<?xml version="1.0" encoding="UTF-8" standalone="no"?>
<svg width="48px" height="48px" viewBox="0 0 48 48" version="1.1" xmlns="http://www.w3.org/2000/svg" xmlns:xlink="http://www.w3.org/1999/xlink" style="background: #FFFFFF;">
    <!-- Generator: Sketch 3.8.3 (29802) - http://www.bohemiancoding.com/sketch -->
    <title>cross-dashes</title>
    <desc>Created with Sketch.</desc>
    <defs></defs>
    <g id="Patterns" stroke="none" stroke-width="1" fill="none" fill-rule="evenodd">
        <g id="cross-dashes" fill="#000000">
            <g id="semi-cross">
                <rect id="Rectangle-1" x="0" y="5" width="4" height="2"></rect>
                <rect id="Rectangle-1" transform="translate(6.000000, 2.000000) rotate(-90.000000) translate(-6.000000, -2.000000) " x="4" y="1" width="4" height="2"></rect>
            </g>
            <g id="semi-cross" transform="translate(0.000000, 8.000000)">
                <rect id="Rectangle-1" x="0" y="5" width="4" height="2"></rect>
                <rect id="Rectangle-1" transform="translate(6.000000, 2.000000) rotate(-90.000000) translate(-6.000000, -2.000000) " x="4" y="1" width="4" height="2"></rect>
            </g>
            <g id="semi-cross" transform="translate(8.000000, 0.000000)">
                <rect id="Rectangle-1" x="0" y="5" width="4" height="2"></rect>
                <rect id="Rectangle-1" transform="translate(6.000000, 2.000000) rotate(-90.000000) translate(-6.000000, -2.000000) " x="4" y="1" width="4" height="2"></rect>
            </g>
            <g id="semi-cross" transform="translate(8.000000, 8.000000)">
                <rect id="Rectangle-1" x="0" y="5" width="4" height="2"></rect>
                <rect id="Rectangle-1" transform="translate(6.000000, 2.000000) rotate(-90.000000) translate(-6.000000, -2.000000) " x="4" y="1" width="4" height="2"></rect>
            </g>
            <g id="semi-cross" transform="translate(16.000000, 0.000000)">
                <rect id="Rectangle-1" x="0" y="5" width="4" height="2"></rect>
                <rect id="Rectangle-1" transform="translate(6.000000, 2.000000) rotate(-90.000000) translate(-6.000000, -2.000000) " x="4" y="1" width="4" height="2"></rect>
            </g>
            <g id="semi-cross" transform="translate(16.000000, 8.000000)">
                <rect id="Rectangle-1" x="0" y="5" width="4" height="2"></rect>
                <rect id="Rectangle-1" transform="translate(6.000000, 2.000000) rotate(-90.000000) translate(-6.000000, -2.000000) " x="4" y="1" width="4" height="2"></rect>
            </g>
            <g id="semi-cross" transform="translate(24.000000, 0.000000)">
                <rect id="Rectangle-1" x="0" y="5" width="4" height="2"></rect>
                <rect id="Rectangle-1" transform="translate(6.000000, 2.000000) rotate(-90.000000) translate(-6.000000, -2.000000) " x="4" y="1" width="4" height="2"></rect>
            </g>
            <g id="semi-cross" transform="translate(24.000000, 8.000000)">
                <rect id="Rectangle-1" x="0" y="5" width="4" height="2"></rect>
                <rect id="Rectangle-1" transform="translate(6.000000, 2.000000) rotate(-90.000000) translate(-6.000000, -2.000000) " x="4" y="1" width="4" height="2"></rect>
            </g>
            <g id="semi-cross" transform="translate(32.000000, 0.000000)">
                <rect id="Rectangle-1" x="0" y="5" width="4" height="2"></rect>
                <rect id="Rectangle-1" transform="translate(6.000000, 2.000000) rotate(-90.000000) translate(-6.000000, -2.000000) " x="4" y="1" width="4" height="2"></rect>
            </g>
            <g id="semi-cross" transform="translate(32.000000, 8.000000)">
                <rect id="Rectangle-1" x="0" y="5" width="4" height="2"></rect>
                <rect id="Rectangle-1" transform="translate(6.000000, 2.000000) rotate(-90.000000) translate(-6.000000, -2.000000) " x="4" y="1" width="4" height="2"></rect>
            </g>
            <g id="semi-cross" transform="translate(40.000000, 0.000000)">
                <rect id="Rectangle-1" x="0" y="5" width="4" height="2"></rect>
                <rect id="Rectangle-1" transform="translate(6.000000, 2.000000) rotate(-90.000000) translate(-6.000000, -2.000000) " x="4" y="1" width="4" height="2"></rect>
            </g>
            <g id="semi-cross" transform="translate(40.000000, 8.000000)">
                <rect id="Rectangle-1" x="0" y="5" width="4" height="2"></rect>
                <rect id="Rectangle-1" transform="translate(6.000000, 2.000000) rotate(-90.000000) translate(-6.000000, -2.000000) " x="4" y="1" width="4" height="2"></rect>
            </g>
            <g id="semi-cross" transform="translate(0.000000, 16.000000)">
                <rect id="Rectangle-1" x="0" y="5" width="4" height="2"></rect>
                <rect id="Rectangle-1" transform="translate(6.000000, 2.000000) rotate(-90.000000) translate(-6.000000, -2.000000) " x="4" y="1" width="4" height="2"></rect>
            </g>
            <g id="semi-cross" transform="translate(8.000000, 16.000000)">
                <rect id="Rectangle-1" x="0" y="5" width="4" height="2"></rect>
                <rect id="Rectangle-1" transform="translate(6.000000, 2.000000) rotate(-90.000000) translate(-6.000000, -2.000000) " x="4" y="1" width="4" height="2"></rect>
            </g>
            <g id="semi-cross" transform="translate(16.000000, 16.000000)">
                <rect id="Rectangle-1" x="0" y="5" width="4" height="2"></rect>
                <rect id="Rectangle-1" transform="translate(6.000000, 2.000000) rotate(-90.000000) translate(-6.000000, -2.000000) " x="4" y="1" width="4" height="2"></rect>
            </g>
            <g id="semi-cross" transform="translate(24.000000, 16.000000)">
                <rect id="Rectangle-1" x="0" y="5" width="4" height="2"></rect>
                <rect id="Rectangle-1" transform="translate(6.000000, 2.000000) rotate(-90.000000) translate(-6.000000, -2.000000) " x="4" y="1" width="4" height="2"></rect>
            </g>
            <g id="semi-cross" transform="translate(32.000000, 16.000000)">
                <rect id="Rectangle-1" x="0" y="5" width="4" height="2"></rect>
                <rect id="Rectangle-1" transform="translate(6.000000, 2.000000) rotate(-90.000000) translate(-6.000000, -2.000000) " x="4" y="1" width="4" height="2"></rect>
            </g>
            <g id="semi-cross" transform="translate(40.000000, 16.000000)">
                <rect id="Rectangle-1" x="0" y="5" width="4" height="2"></rect>
                <rect id="Rectangle-1" transform="translate(6.000000, 2.000000) rotate(-90.000000) translate(-6.000000, -2.000000) " x="4" y="1" width="4" height="2"></rect>
            </g>
            <g id="semi-cross" transform="translate(0.000000, 24.000000)">
                <rect id="Rectangle-1" x="0" y="5" width="4" height="2"></rect>
                <rect id="Rectangle-1" transform="translate(6.000000, 2.000000) rotate(-90.000000) translate(-6.000000, -2.000000) " x="4" y="1" width="4" height="2"></rect>
            </g>
            <g id="semi-cross" transform="translate(8.000000, 24.000000)">
                <rect id="Rectangle-1" x="0" y="5" width="4" height="2"></rect>
                <rect id="Rectangle-1" transform="translate(6.000000, 2.000000) rotate(-90.000000) translate(-6.000000, -2.000000) " x="4" y="1" width="4" height="2"></rect>
            </g>
            <g id="semi-cross" transform="translate(16.000000, 24.000000)">
                <rect id="Rectangle-1" x="0" y="5" width="4" height="2"></rect>
                <rect id="Rectangle-1" transform="translate(6.000000, 2.000000) rotate(-90.000000) translate(-6.000000, -2.000000) " x="4" y="1" width="4" height="2"></rect>
            </g>
            <g id="semi-cross" transform="translate(24.000000, 24.000000)">
                <rect id="Rectangle-1" x="0" y="5" width="4" height="2"></rect>
                <rect id="Rectangle-1" transform="translate(6.000000, 2.000000) rotate(-90.000000) translate(-6.000000, -2.000000) " x="4" y="1" width="4" height="2"></rect>
            </g>
            <g id="semi-cross" transform="translate(32.000000, 24.000000)">
                <rect id="Rectangle-1" x="0" y="5" width="4" height="2"></rect>
                <rect id="Rectangle-1" transform="translate(6.000000, 2.000000) rotate(-90.000000) translate(-6.000000, -2.000000) " x="4" y="1" width="4" height="2"></rect>
            </g>
            <g id="semi-cross" transform="translate(40.000000, 24.000000)">
                <rect id="Rectangle-1" x="0" y="5" width="4" height="2"></rect>
                <rect id="Rectangle-1" transform="translate(6.000000, 2.000000) rotate(-90.000000) translate(-6.000000, -2.000000) " x="4" y="1" width="4" height="2"></rect>
            </g>
            <g id="semi-cross" transform="translate(0.000000, 32.000000)">
                <rect id="Rectangle-1" x="0" y="5" width="4" height="2"></rect>
                <rect id="Rectangle-1" transform="translate(6.000000, 2.000000) rotate(-90.000000) translate(-6.000000, -2.000000) " x="4" y="1" width="4" height="2"></rect>
            </g>
            <g id="semi-cross" transform="translate(0.000000, 40.000000)">
                <rect id="Rectangle-1" x="0" y="5" width="4" height="2"></rect>
                <rect id="Rectangle-1" transform="translate(6.000000, 2.000000) rotate(-90.000000) translate(-6.000000, -2.000000) " x="4" y="1" width="4" height="2"></rect>
            </g>
            <g id="semi-cross" transform="translate(8.000000, 32.000000)">
                <rect id="Rectangle-1" x="0" y="5" width="4" height="2"></rect>
                <rect id="Rectangle-1" transform="translate(6.000000, 2.000000) rotate(-90.000000) translate(-6.000000, -2.000000) " x="4" y="1" width="4" height="2"></rect>
            </g>
            <g id="semi-cross" transform="translate(8.000000, 40.000000)">
                <rect id="Rectangle-1" x="0" y="5" width="4" height="2"></rect>
                <rect id="Rectangle-1" transform="translate(6.000000, 2.000000) rotate(-90.000000) translate(-6.000000, -2.000000) " x="4" y="1" width="4" height="2"></rect>
            </g>
            <g id="semi-cross" transform="translate(16.000000, 32.000000)">
                <rect id="Rectangle-1" x="0" y="5" width="4" height="2"></rect>
                <rect id="Rectangle-1" transform="translate(6.000000, 2.000000) rotate(-90.000000) translate(-6.000000, -2.000000) " x="4" y="1" width="4" height="2"></rect>
            </g>
            <g id="semi-cross" transform="translate(16.000000, 40.000000)">
                <rect id="Rectangle-1" x="0" y="5" width="4" height="2"></rect>
                <rect id="Rectangle-1" transform="translate(6.000000, 2.000000) rotate(-90.000000) translate(-6.000000, -2.000000) " x="4" y="1" width="4" height="2"></rect>
            </g>
            <g id="semi-cross" transform="translate(24.000000, 32.000000)">
                <rect id="Rectangle-1" x="0" y="5" width="4" height="2"></rect>
                <rect id="Rectangle-1" transform="translate(6.000000, 2.000000) rotate(-90.000000) translate(-6.000000, -2.000000) " x="4" y="1" width="4" height="2"></rect>
            </g>
            <g id="semi-cross" transform="translate(24.000000, 40.000000)">
                <rect id="Rectangle-1" x="0" y="5" width="4" height="2"></rect>
                <rect id="Rectangle-1" transform="translate(6.000000, 2.000000) rotate(-90.000000) translate(-6.000000, -2.000000) " x="4" y="1" width="4" height="2"></rect>
            </g>
            <g id="semi-cross" transform="translate(32.000000, 32.000000)">
                <rect id="Rectangle-1" x="0" y="5" width="4" height="2"></rect>
                <rect id="Rectangle-1" transform="translate(6.000000, 2.000000) rotate(-90.000000) translate(-6.000000, -2.000000) " x="4" y="1" width="4" height="2"></rect>
            </g>
            <g id="semi-cross" transform="translate(32.000000, 40.000000)">
                <rect id="Rectangle-1" x="0" y="5" width="4" height="2"></rect>
                <rect id="Rectangle-1" transform="translate(6.000000, 2.000000) rotate(-90.000000) translate(-6.000000, -2.000000) " x="4" y="1" width="4" height="2"></rect>
            </g>
            <g id="semi-cross" transform="translate(40.000000, 32.000000)">
                <rect id="Rectangle-1" x="0" y="5" width="4" height="2"></rect>
                <rect id="Rectangle-1" transform="translate(6.000000, 2.000000) rotate(-90.000000) translate(-6.000000, -2.000000) " x="4" y="1" width="4" height="2"></rect>
            </g>
            <g id="semi-cross" transform="translate(40.000000, 40.000000)">
                <rect id="Rectangle-1" x="0" y="5" width="4" height="2"></rect>
                <rect id="Rectangle-1" transform="translate(6.000000, 2.000000) rotate(-90.000000) translate(-6.000000, -2.000000) " x="4" y="1" width="4" height="2"></rect>
            </g>
        </g>
    </g>
</svg>