<?xml version="1.0" encoding="UTF-8" standalone="no"?>
<svg width="48px" height="48px" viewBox="0 0 48 48" version="1.1" xmlns="http://www.w3.org/2000/svg" xmlns:xlink="http://www.w3.org/1999/xlink" style="background: #FFFFFF;">
    <!-- Generator: Sketch 3.8.3 (29802) - http://www.bohemiancoding.com/sketch -->
    <title>cross-diagonal-lines</title>
    <desc>Created with Sketch.</desc>
    <defs></defs>
    <g id="Patterns" stroke="none" stroke-width="1" fill="none" fill-rule="evenodd">
        <g id="cross-diagonal-lines" fill="#000000">
            <g id="Group-3" transform="translate(24.000000, 24.500000) rotate(-315.000000) translate(-24.000000, -24.500000) translate(-24.000000, -35.000000)">
                <g id="Group-2" transform="translate(0.000000, 26.000000)">
                    <g id="thin_line">
                        <rect id="Rectangle-1" x="0" y="0" width="96" height="1"></rect>
                    </g>
                    <g id="thin_line" transform="translate(0.000000, 4.000000)">
                        <rect id="Rectangle-1" x="0" y="0" width="96" height="1"></rect>
                    </g>
                    <g id="thin_line" transform="translate(0.000000, 8.000000)">
                        <rect id="Rectangle-1" x="0" y="0" width="96" height="1"></rect>
                    </g>
                    <g id="thin_line" transform="translate(0.000000, 12.000000)">
                        <rect id="Rectangle-1" x="0" y="0" width="96" height="1"></rect>
                    </g>
                    <g id="thin_line" transform="translate(0.000000, 16.000000)">
                        <rect id="Rectangle-1" x="0" y="0" width="96" height="1"></rect>
                    </g>
                    <g id="thin_line" transform="translate(0.000000, 20.000000)">
                        <rect id="Rectangle-1" x="0" y="0" width="96" height="1"></rect>
                    </g>
                    <g id="thin_line" transform="translate(0.000000, 24.000000)">
                        <rect id="Rectangle-1" x="0" y="0" width="96" height="1"></rect>
                    </g>
                    <g id="thin_line" transform="translate(0.000000, 28.000000)">
                        <rect id="Rectangle-1" x="0" y="0" width="96" height="1"></rect>
                    </g>
                    <g id="thin_line" transform="translate(0.000000, 32.000000)">
                        <rect id="Rectangle-1" x="0" y="0" width="96" height="1"></rect>
                    </g>
                    <g id="thin_line" transform="translate(0.000000, 36.000000)">
                        <rect id="Rectangle-1" x="0" y="0" width="96" height="1"></rect>
                    </g>
                    <g id="thin_line" transform="translate(0.000000, 40.000000)">
                        <rect id="Rectangle-1" x="0" y="0" width="96" height="1"></rect>
                    </g>
                    <g id="thin_line" transform="translate(0.000000, 44.000000)">
                        <rect id="Rectangle-1" x="0" y="0" width="96" height="1"></rect>
                    </g>
                </g>
                <g id="Group-2-Copy" transform="translate(0.000000, 74.000000)">
                    <g id="thin_line">
                        <rect id="Rectangle-1" x="0" y="0" width="96" height="1"></rect>
                    </g>
                    <g id="thin_line" transform="translate(0.000000, 4.000000)">
                        <rect id="Rectangle-1" x="0" y="0" width="96" height="1"></rect>
                    </g>
                    <g id="thin_line" transform="translate(0.000000, 8.000000)">
                        <rect id="Rectangle-1" x="0" y="0" width="96" height="1"></rect>
                    </g>
                    <g id="thin_line" transform="translate(0.000000, 12.000000)">
                        <rect id="Rectangle-1" x="0" y="0" width="96" height="1"></rect>
                    </g>
                    <g id="thin_line" transform="translate(0.000000, 16.000000)">
                        <rect id="Rectangle-1" x="0" y="0" width="96" height="1"></rect>
                    </g>
                    <g id="thin_line" transform="translate(0.000000, 20.000000)">
                        <rect id="Rectangle-1" x="0" y="0" width="96" height="1"></rect>
                    </g>
                    <g id="thin_line" transform="translate(0.000000, 24.000000)">
                        <rect id="Rectangle-1" x="0" y="0" width="96" height="1"></rect>
                    </g>
                    <g id="thin_line" transform="translate(0.000000, 28.000000)">
                        <rect id="Rectangle-1" x="0" y="0" width="96" height="1"></rect>
                    </g>
                    <g id="thin_line" transform="translate(0.000000, 32.000000)">
                        <rect id="Rectangle-1" x="0" y="0" width="96" height="1"></rect>
                    </g>
                    <g id="thin_line" transform="translate(0.000000, 36.000000)">
                        <rect id="Rectangle-1" x="0" y="0" width="96" height="1"></rect>
                    </g>
                    <g id="thin_line" transform="translate(0.000000, 40.000000)">
                        <rect id="Rectangle-1" x="0" y="0" width="96" height="1"></rect>
                    </g>
                    <g id="thin_line" transform="translate(0.000000, 44.000000)">
                        <rect id="Rectangle-1" x="0" y="0" width="96" height="1"></rect>
                    </g>
                </g>
                <g id="Group" transform="translate(3.000000, 0.000000)">
                    <g id="thin_line" transform="translate(44.500000, 48.000000) rotate(-270.000000) translate(-44.500000, -48.000000) translate(-3.500000, 47.500000)">
                        <rect id="Rectangle-1" x="0" y="0" width="96" height="1"></rect>
                    </g>
                    <g id="thin_line" transform="translate(40.500000, 48.000000) rotate(-270.000000) translate(-40.500000, -48.000000) translate(-7.500000, 47.500000)">
                        <rect id="Rectangle-1" x="0" y="0" width="96" height="1"></rect>
                    </g>
                    <g id="thin_line" transform="translate(36.500000, 48.000000) rotate(-270.000000) translate(-36.500000, -48.000000) translate(-11.500000, 47.500000)">
                        <rect id="Rectangle-1" x="0" y="0" width="96" height="1"></rect>
                    </g>
                    <g id="thin_line" transform="translate(32.500000, 48.000000) rotate(-270.000000) translate(-32.500000, -48.000000) translate(-15.500000, 47.500000)">
                        <rect id="Rectangle-1" x="0" y="0" width="96" height="1"></rect>
                    </g>
                    <g id="thin_line" transform="translate(28.500000, 48.000000) rotate(-270.000000) translate(-28.500000, -48.000000) translate(-19.500000, 47.500000)">
                        <rect id="Rectangle-1" x="0" y="0" width="96" height="1"></rect>
                    </g>
                    <g id="thin_line" transform="translate(24.500000, 48.000000) rotate(-270.000000) translate(-24.500000, -48.000000) translate(-23.500000, 47.500000)">
                        <rect id="Rectangle-1" x="0" y="0" width="96" height="1"></rect>
                    </g>
                    <g id="thin_line" transform="translate(20.500000, 48.000000) rotate(-270.000000) translate(-20.500000, -48.000000) translate(-27.500000, 47.500000)">
                        <rect id="Rectangle-1" x="0" y="0" width="96" height="1"></rect>
                    </g>
                    <g id="thin_line" transform="translate(16.500000, 48.000000) rotate(-270.000000) translate(-16.500000, -48.000000) translate(-31.500000, 47.500000)">
                        <rect id="Rectangle-1" x="0" y="0" width="96" height="1"></rect>
                    </g>
                    <g id="thin_line" transform="translate(12.500000, 48.000000) rotate(-270.000000) translate(-12.500000, -48.000000) translate(-35.500000, 47.500000)">
                        <rect id="Rectangle-1" x="0" y="0" width="96" height="1"></rect>
                    </g>
                    <g id="thin_line" transform="translate(8.500000, 48.000000) rotate(-270.000000) translate(-8.500000, -48.000000) translate(-39.500000, 47.500000)">
                        <rect id="Rectangle-1" x="0" y="0" width="96" height="1"></rect>
                    </g>
                    <g id="thin_line" transform="translate(4.500000, 48.000000) rotate(-270.000000) translate(-4.500000, -48.000000) translate(-43.500000, 47.500000)">
                        <rect id="Rectangle-1" x="0" y="0" width="96" height="1"></rect>
                    </g>
                    <g id="thin_line" transform="translate(0.500000, 48.000000) rotate(-270.000000) translate(-0.500000, -48.000000) translate(-47.500000, 47.500000)">
                        <rect id="Rectangle-1" x="0" y="0" width="96" height="1"></rect>
                    </g>
                </g>
                <g id="Group-Copy" transform="translate(51.000000, 0.000000)">
                    <g id="thin_line" transform="translate(44.500000, 48.000000) rotate(-270.000000) translate(-44.500000, -48.000000) translate(-3.500000, 47.500000)">
                        <rect id="Rectangle-1" x="0" y="0" width="96" height="1"></rect>
                    </g>
                    <g id="thin_line" transform="translate(40.500000, 48.000000) rotate(-270.000000) translate(-40.500000, -48.000000) translate(-7.500000, 47.500000)">
                        <rect id="Rectangle-1" x="0" y="0" width="96" height="1"></rect>
                    </g>
                    <g id="thin_line" transform="translate(36.500000, 48.000000) rotate(-270.000000) translate(-36.500000, -48.000000) translate(-11.500000, 47.500000)">
                        <rect id="Rectangle-1" x="0" y="0" width="96" height="1"></rect>
                    </g>
                    <g id="thin_line" transform="translate(32.500000, 48.000000) rotate(-270.000000) translate(-32.500000, -48.000000) translate(-15.500000, 47.500000)">
                        <rect id="Rectangle-1" x="0" y="0" width="96" height="1"></rect>
                    </g>
                    <g id="thin_line" transform="translate(28.500000, 48.000000) rotate(-270.000000) translate(-28.500000, -48.000000) translate(-19.500000, 47.500000)">
                        <rect id="Rectangle-1" x="0" y="0" width="96" height="1"></rect>
                    </g>
                    <g id="thin_line" transform="translate(24.500000, 48.000000) rotate(-270.000000) translate(-24.500000, -48.000000) translate(-23.500000, 47.500000)">
                        <rect id="Rectangle-1" x="0" y="0" width="96" height="1"></rect>
                    </g>
                    <g id="thin_line" transform="translate(20.500000, 48.000000) rotate(-270.000000) translate(-20.500000, -48.000000) translate(-27.500000, 47.500000)">
                        <rect id="Rectangle-1" x="0" y="0" width="96" height="1"></rect>
                    </g>
                    <g id="thin_line" transform="translate(16.500000, 48.000000) rotate(-270.000000) translate(-16.500000, -48.000000) translate(-31.500000, 47.500000)">
                        <rect id="Rectangle-1" x="0" y="0" width="96" height="1"></rect>
                    </g>
                    <g id="thin_line" transform="translate(12.500000, 48.000000) rotate(-270.000000) translate(-12.500000, -48.000000) translate(-35.500000, 47.500000)">
                        <rect id="Rectangle-1" x="0" y="0" width="96" height="1"></rect>
                    </g>
                    <g id="thin_line" transform="translate(8.500000, 48.000000) rotate(-270.000000) translate(-8.500000, -48.000000) translate(-39.500000, 47.500000)">
                        <rect id="Rectangle-1" x="0" y="0" width="96" height="1"></rect>
                    </g>
                    <g id="thin_line" transform="translate(4.500000, 48.000000) rotate(-270.000000) translate(-4.500000, -48.000000) translate(-43.500000, 47.500000)">
                        <rect id="Rectangle-1" x="0" y="0" width="96" height="1"></rect>
                    </g>
                    <g id="thin_line" transform="translate(0.500000, 48.000000) rotate(-270.000000) translate(-0.500000, -48.000000) translate(-47.500000, 47.500000)">
                        <rect id="Rectangle-1" x="0" y="0" width="96" height="1"></rect>
                    </g>
                </g>
            </g>
        </g>
    </g>
</svg>