<?xml version="1.0" encoding="UTF-8" standalone="no"?>
<svg width="48px" height="48px" viewBox="0 0 48 48" version="1.1" xmlns="http://www.w3.org/2000/svg" xmlns:xlink="http://www.w3.org/1999/xlink" style="background: #FFFFFF;">
    <!-- Generator: Sketch 3.8.3 (29802) - http://www.bohemiancoding.com/sketch -->
    <title>curly-lines</title>
    <desc>Created with Sketch.</desc>
    <defs></defs>
    <g id="Patterns" stroke="none" stroke-width="1" fill="none" fill-rule="evenodd">
        <g id="curly-lines" fill="#000000">
            <g id="Group-2" transform="translate(-4.000000, 0.000000)">
                <g id="Group">
                    <g id="weave">
                        <g id="Group">
                            <path d="M8.91509089e-13,2 C0.893684373,0.794014257 2.4156178,0 4.14285714,0 C5.87009648,0 7.39202991,0.794014257 8.28571429,2 L6.85458386,2 C6.15573355,1.38140649 5.19860492,1 4.14285714,1 C3.08710937,1 2.12998074,1.38140649 1.43113043,2 L8.91509089e-13,2 Z" id="Combined-Shape"></path>
                            <path d="M6.83571468,4 C7.72939905,2.79401426 9.25133248,2 10.9785718,2 C12.7058112,2 14.2277446,2.79401426 15.121429,4 L13.6902985,4 C12.9914482,3.38140649 12.0343196,3 10.9785718,3 C9.92282405,3 8.96569542,3.38140649 8.26684511,4 L6.83571468,4 Z" id="Combined-Shape-Copy" transform="translate(10.978572, 3.000000) scale(1, -1) translate(-10.978572, -3.000000) "></path>
                        </g>
                    </g>
                    <g id="weave" transform="translate(13.700000, 0.000000)">
                        <g id="Group">
                            <path d="M8.91509089e-13,2 C0.893684373,0.794014257 2.4156178,0 4.14285714,0 C5.87009648,0 7.39202991,0.794014257 8.28571429,2 L6.85458386,2 C6.15573355,1.38140649 5.19860492,1 4.14285714,1 C3.08710937,1 2.12998074,1.38140649 1.43113043,2 L8.91509089e-13,2 Z" id="Combined-Shape"></path>
                            <path d="M6.83571468,4 C7.72939905,2.79401426 9.25133248,2 10.9785718,2 C12.7058112,2 14.2277446,2.79401426 15.121429,4 L13.6902985,4 C12.9914482,3.38140649 12.0343196,3 10.9785718,3 C9.92282405,3 8.96569542,3.38140649 8.26684511,4 L6.83571468,4 Z" id="Combined-Shape-Copy" transform="translate(10.978572, 3.000000) scale(1, -1) translate(-10.978572, -3.000000) "></path>
                        </g>
                    </g>
                </g>
                <g id="Group-Copy" transform="translate(27.400000, 0.000000)">
                    <g id="weave">
                        <g id="Group">
                            <path d="M8.91509089e-13,2 C0.893684373,0.794014257 2.4156178,0 4.14285714,0 C5.87009648,0 7.39202991,0.794014257 8.28571429,2 L6.85458386,2 C6.15573355,1.38140649 5.19860492,1 4.14285714,1 C3.08710937,1 2.12998074,1.38140649 1.43113043,2 L8.91509089e-13,2 Z" id="Combined-Shape"></path>
                            <path d="M6.83571468,4 C7.72939905,2.79401426 9.25133248,2 10.9785718,2 C12.7058112,2 14.2277446,2.79401426 15.121429,4 L13.6902985,4 C12.9914482,3.38140649 12.0343196,3 10.9785718,3 C9.92282405,3 8.96569542,3.38140649 8.26684511,4 L6.83571468,4 Z" id="Combined-Shape-Copy" transform="translate(10.978572, 3.000000) scale(1, -1) translate(-10.978572, -3.000000) "></path>
                        </g>
                    </g>
                    <g id="weave" transform="translate(13.700000, 0.000000)">
                        <g id="Group">
                            <path d="M8.91509089e-13,2 C0.893684373,0.794014257 2.4156178,0 4.14285714,0 C5.87009648,0 7.39202991,0.794014257 8.28571429,2 L6.85458386,2 C6.15573355,1.38140649 5.19860492,1 4.14285714,1 C3.08710937,1 2.12998074,1.38140649 1.43113043,2 L8.91509089e-13,2 Z" id="Combined-Shape"></path>
                            <path d="M6.83571468,4 C7.72939905,2.79401426 9.25133248,2 10.9785718,2 C12.7058112,2 14.2277446,2.79401426 15.121429,4 L13.6902985,4 C12.9914482,3.38140649 12.0343196,3 10.9785718,3 C9.92282405,3 8.96569542,3.38140649 8.26684511,4 L6.83571468,4 Z" id="Combined-Shape-Copy" transform="translate(10.978572, 3.000000) scale(1, -1) translate(-10.978572, -3.000000) "></path>
                        </g>
                    </g>
                </g>
            </g>
            <g id="Group-2-Copy" transform="translate(-4.000000, 3.000000)">
                <g id="Group">
                    <g id="weave">
                        <g id="Group">
                            <path d="M8.91509089e-13,2 C0.893684373,0.794014257 2.4156178,0 4.14285714,0 C5.87009648,0 7.39202991,0.794014257 8.28571429,2 L6.85458386,2 C6.15573355,1.38140649 5.19860492,1 4.14285714,1 C3.08710937,1 2.12998074,1.38140649 1.43113043,2 L8.91509089e-13,2 Z" id="Combined-Shape"></path>
                            <path d="M6.83571468,4 C7.72939905,2.79401426 9.25133248,2 10.9785718,2 C12.7058112,2 14.2277446,2.79401426 15.121429,4 L13.6902985,4 C12.9914482,3.38140649 12.0343196,3 10.9785718,3 C9.92282405,3 8.96569542,3.38140649 8.26684511,4 L6.83571468,4 Z" id="Combined-Shape-Copy" transform="translate(10.978572, 3.000000) scale(1, -1) translate(-10.978572, -3.000000) "></path>
                        </g>
                    </g>
                    <g id="weave" transform="translate(13.700000, 0.000000)">
                        <g id="Group">
                            <path d="M8.91509089e-13,2 C0.893684373,0.794014257 2.4156178,0 4.14285714,0 C5.87009648,0 7.39202991,0.794014257 8.28571429,2 L6.85458386,2 C6.15573355,1.38140649 5.19860492,1 4.14285714,1 C3.08710937,1 2.12998074,1.38140649 1.43113043,2 L8.91509089e-13,2 Z" id="Combined-Shape"></path>
                            <path d="M6.83571468,4 C7.72939905,2.79401426 9.25133248,2 10.9785718,2 C12.7058112,2 14.2277446,2.79401426 15.121429,4 L13.6902985,4 C12.9914482,3.38140649 12.0343196,3 10.9785718,3 C9.92282405,3 8.96569542,3.38140649 8.26684511,4 L6.83571468,4 Z" id="Combined-Shape-Copy" transform="translate(10.978572, 3.000000) scale(1, -1) translate(-10.978572, -3.000000) "></path>
                        </g>
                    </g>
                </g>
                <g id="Group-Copy" transform="translate(27.400000, 0.000000)">
                    <g id="weave">
                        <g id="Group">
                            <path d="M8.91509089e-13,2 C0.893684373,0.794014257 2.4156178,0 4.14285714,0 C5.87009648,0 7.39202991,0.794014257 8.28571429,2 L6.85458386,2 C6.15573355,1.38140649 5.19860492,1 4.14285714,1 C3.08710937,1 2.12998074,1.38140649 1.43113043,2 L8.91509089e-13,2 Z" id="Combined-Shape"></path>
                            <path d="M6.83571468,4 C7.72939905,2.79401426 9.25133248,2 10.9785718,2 C12.7058112,2 14.2277446,2.79401426 15.121429,4 L13.6902985,4 C12.9914482,3.38140649 12.0343196,3 10.9785718,3 C9.92282405,3 8.96569542,3.38140649 8.26684511,4 L6.83571468,4 Z" id="Combined-Shape-Copy" transform="translate(10.978572, 3.000000) scale(1, -1) translate(-10.978572, -3.000000) "></path>
                        </g>
                    </g>
                    <g id="weave" transform="translate(13.700000, 0.000000)">
                        <g id="Group">
                            <path d="M8.91509089e-13,2 C0.893684373,0.794014257 2.4156178,0 4.14285714,0 C5.87009648,0 7.39202991,0.794014257 8.28571429,2 L6.85458386,2 C6.15573355,1.38140649 5.19860492,1 4.14285714,1 C3.08710937,1 2.12998074,1.38140649 1.43113043,2 L8.91509089e-13,2 Z" id="Combined-Shape"></path>
                            <path d="M6.83571468,4 C7.72939905,2.79401426 9.25133248,2 10.9785718,2 C12.7058112,2 14.2277446,2.79401426 15.121429,4 L13.6902985,4 C12.9914482,3.38140649 12.0343196,3 10.9785718,3 C9.92282405,3 8.96569542,3.38140649 8.26684511,4 L6.83571468,4 Z" id="Combined-Shape-Copy" transform="translate(10.978572, 3.000000) scale(1, -1) translate(-10.978572, -3.000000) "></path>
                        </g>
                    </g>
                </g>
            </g>
            <g id="Group-2-Copy-2" transform="translate(-4.000000, 6.000000)">
                <g id="Group">
                    <g id="weave">
                        <g id="Group">
                            <path d="M8.91509089e-13,2 C0.893684373,0.794014257 2.4156178,0 4.14285714,0 C5.87009648,0 7.39202991,0.794014257 8.28571429,2 L6.85458386,2 C6.15573355,1.38140649 5.19860492,1 4.14285714,1 C3.08710937,1 2.12998074,1.38140649 1.43113043,2 L8.91509089e-13,2 Z" id="Combined-Shape"></path>
                            <path d="M6.83571468,4 C7.72939905,2.79401426 9.25133248,2 10.9785718,2 C12.7058112,2 14.2277446,2.79401426 15.121429,4 L13.6902985,4 C12.9914482,3.38140649 12.0343196,3 10.9785718,3 C9.92282405,3 8.96569542,3.38140649 8.26684511,4 L6.83571468,4 Z" id="Combined-Shape-Copy" transform="translate(10.978572, 3.000000) scale(1, -1) translate(-10.978572, -3.000000) "></path>
                        </g>
                    </g>
                    <g id="weave" transform="translate(13.700000, 0.000000)">
                        <g id="Group">
                            <path d="M8.91509089e-13,2 C0.893684373,0.794014257 2.4156178,0 4.14285714,0 C5.87009648,0 7.39202991,0.794014257 8.28571429,2 L6.85458386,2 C6.15573355,1.38140649 5.19860492,1 4.14285714,1 C3.08710937,1 2.12998074,1.38140649 1.43113043,2 L8.91509089e-13,2 Z" id="Combined-Shape"></path>
                            <path d="M6.83571468,4 C7.72939905,2.79401426 9.25133248,2 10.9785718,2 C12.7058112,2 14.2277446,2.79401426 15.121429,4 L13.6902985,4 C12.9914482,3.38140649 12.0343196,3 10.9785718,3 C9.92282405,3 8.96569542,3.38140649 8.26684511,4 L6.83571468,4 Z" id="Combined-Shape-Copy" transform="translate(10.978572, 3.000000) scale(1, -1) translate(-10.978572, -3.000000) "></path>
                        </g>
                    </g>
                </g>
                <g id="Group-Copy" transform="translate(27.400000, 0.000000)">
                    <g id="weave">
                        <g id="Group">
                            <path d="M8.91509089e-13,2 C0.893684373,0.794014257 2.4156178,0 4.14285714,0 C5.87009648,0 7.39202991,0.794014257 8.28571429,2 L6.85458386,2 C6.15573355,1.38140649 5.19860492,1 4.14285714,1 C3.08710937,1 2.12998074,1.38140649 1.43113043,2 L8.91509089e-13,2 Z" id="Combined-Shape"></path>
                            <path d="M6.83571468,4 C7.72939905,2.79401426 9.25133248,2 10.9785718,2 C12.7058112,2 14.2277446,2.79401426 15.121429,4 L13.6902985,4 C12.9914482,3.38140649 12.0343196,3 10.9785718,3 C9.92282405,3 8.96569542,3.38140649 8.26684511,4 L6.83571468,4 Z" id="Combined-Shape-Copy" transform="translate(10.978572, 3.000000) scale(1, -1) translate(-10.978572, -3.000000) "></path>
                        </g>
                    </g>
                    <g id="weave" transform="translate(13.700000, 0.000000)">
                        <g id="Group">
                            <path d="M8.91509089e-13,2 C0.893684373,0.794014257 2.4156178,0 4.14285714,0 C5.87009648,0 7.39202991,0.794014257 8.28571429,2 L6.85458386,2 C6.15573355,1.38140649 5.19860492,1 4.14285714,1 C3.08710937,1 2.12998074,1.38140649 1.43113043,2 L8.91509089e-13,2 Z" id="Combined-Shape"></path>
                            <path d="M6.83571468,4 C7.72939905,2.79401426 9.25133248,2 10.9785718,2 C12.7058112,2 14.2277446,2.79401426 15.121429,4 L13.6902985,4 C12.9914482,3.38140649 12.0343196,3 10.9785718,3 C9.92282405,3 8.96569542,3.38140649 8.26684511,4 L6.83571468,4 Z" id="Combined-Shape-Copy" transform="translate(10.978572, 3.000000) scale(1, -1) translate(-10.978572, -3.000000) "></path>
                        </g>
                    </g>
                </g>
            </g>
            <g id="Group-2-Copy-3" transform="translate(-4.000000, 9.000000)">
                <g id="Group">
                    <g id="weave">
                        <g id="Group">
                            <path d="M8.91509089e-13,2 C0.893684373,0.794014257 2.4156178,0 4.14285714,0 C5.87009648,0 7.39202991,0.794014257 8.28571429,2 L6.85458386,2 C6.15573355,1.38140649 5.19860492,1 4.14285714,1 C3.08710937,1 2.12998074,1.38140649 1.43113043,2 L8.91509089e-13,2 Z" id="Combined-Shape"></path>
                            <path d="M6.83571468,4 C7.72939905,2.79401426 9.25133248,2 10.9785718,2 C12.7058112,2 14.2277446,2.79401426 15.121429,4 L13.6902985,4 C12.9914482,3.38140649 12.0343196,3 10.9785718,3 C9.92282405,3 8.96569542,3.38140649 8.26684511,4 L6.83571468,4 Z" id="Combined-Shape-Copy" transform="translate(10.978572, 3.000000) scale(1, -1) translate(-10.978572, -3.000000) "></path>
                        </g>
                    </g>
                    <g id="weave" transform="translate(13.700000, 0.000000)">
                        <g id="Group">
                            <path d="M8.91509089e-13,2 C0.893684373,0.794014257 2.4156178,0 4.14285714,0 C5.87009648,0 7.39202991,0.794014257 8.28571429,2 L6.85458386,2 C6.15573355,1.38140649 5.19860492,1 4.14285714,1 C3.08710937,1 2.12998074,1.38140649 1.43113043,2 L8.91509089e-13,2 Z" id="Combined-Shape"></path>
                            <path d="M6.83571468,4 C7.72939905,2.79401426 9.25133248,2 10.9785718,2 C12.7058112,2 14.2277446,2.79401426 15.121429,4 L13.6902985,4 C12.9914482,3.38140649 12.0343196,3 10.9785718,3 C9.92282405,3 8.96569542,3.38140649 8.26684511,4 L6.83571468,4 Z" id="Combined-Shape-Copy" transform="translate(10.978572, 3.000000) scale(1, -1) translate(-10.978572, -3.000000) "></path>
                        </g>
                    </g>
                </g>
                <g id="Group-Copy" transform="translate(27.400000, 0.000000)">
                    <g id="weave">
                        <g id="Group">
                            <path d="M8.91509089e-13,2 C0.893684373,0.794014257 2.4156178,0 4.14285714,0 C5.87009648,0 7.39202991,0.794014257 8.28571429,2 L6.85458386,2 C6.15573355,1.38140649 5.19860492,1 4.14285714,1 C3.08710937,1 2.12998074,1.38140649 1.43113043,2 L8.91509089e-13,2 Z" id="Combined-Shape"></path>
                            <path d="M6.83571468,4 C7.72939905,2.79401426 9.25133248,2 10.9785718,2 C12.7058112,2 14.2277446,2.79401426 15.121429,4 L13.6902985,4 C12.9914482,3.38140649 12.0343196,3 10.9785718,3 C9.92282405,3 8.96569542,3.38140649 8.26684511,4 L6.83571468,4 Z" id="Combined-Shape-Copy" transform="translate(10.978572, 3.000000) scale(1, -1) translate(-10.978572, -3.000000) "></path>
                        </g>
                    </g>
                    <g id="weave" transform="translate(13.700000, 0.000000)">
                        <g id="Group">
                            <path d="M8.91509089e-13,2 C0.893684373,0.794014257 2.4156178,0 4.14285714,0 C5.87009648,0 7.39202991,0.794014257 8.28571429,2 L6.85458386,2 C6.15573355,1.38140649 5.19860492,1 4.14285714,1 C3.08710937,1 2.12998074,1.38140649 1.43113043,2 L8.91509089e-13,2 Z" id="Combined-Shape"></path>
                            <path d="M6.83571468,4 C7.72939905,2.79401426 9.25133248,2 10.9785718,2 C12.7058112,2 14.2277446,2.79401426 15.121429,4 L13.6902985,4 C12.9914482,3.38140649 12.0343196,3 10.9785718,3 C9.92282405,3 8.96569542,3.38140649 8.26684511,4 L6.83571468,4 Z" id="Combined-Shape-Copy" transform="translate(10.978572, 3.000000) scale(1, -1) translate(-10.978572, -3.000000) "></path>
                        </g>
                    </g>
                </g>
            </g>
            <g id="Group-2-Copy-4" transform="translate(-4.000000, 12.000000)">
                <g id="Group">
                    <g id="weave">
                        <g id="Group">
                            <path d="M8.91509089e-13,2 C0.893684373,0.794014257 2.4156178,0 4.14285714,0 C5.87009648,0 7.39202991,0.794014257 8.28571429,2 L6.85458386,2 C6.15573355,1.38140649 5.19860492,1 4.14285714,1 C3.08710937,1 2.12998074,1.38140649 1.43113043,2 L8.91509089e-13,2 Z" id="Combined-Shape"></path>
                            <path d="M6.83571468,4 C7.72939905,2.79401426 9.25133248,2 10.9785718,2 C12.7058112,2 14.2277446,2.79401426 15.121429,4 L13.6902985,4 C12.9914482,3.38140649 12.0343196,3 10.9785718,3 C9.92282405,3 8.96569542,3.38140649 8.26684511,4 L6.83571468,4 Z" id="Combined-Shape-Copy" transform="translate(10.978572, 3.000000) scale(1, -1) translate(-10.978572, -3.000000) "></path>
                        </g>
                    </g>
                    <g id="weave" transform="translate(13.700000, 0.000000)">
                        <g id="Group">
                            <path d="M8.91509089e-13,2 C0.893684373,0.794014257 2.4156178,0 4.14285714,0 C5.87009648,0 7.39202991,0.794014257 8.28571429,2 L6.85458386,2 C6.15573355,1.38140649 5.19860492,1 4.14285714,1 C3.08710937,1 2.12998074,1.38140649 1.43113043,2 L8.91509089e-13,2 Z" id="Combined-Shape"></path>
                            <path d="M6.83571468,4 C7.72939905,2.79401426 9.25133248,2 10.9785718,2 C12.7058112,2 14.2277446,2.79401426 15.121429,4 L13.6902985,4 C12.9914482,3.38140649 12.0343196,3 10.9785718,3 C9.92282405,3 8.96569542,3.38140649 8.26684511,4 L6.83571468,4 Z" id="Combined-Shape-Copy" transform="translate(10.978572, 3.000000) scale(1, -1) translate(-10.978572, -3.000000) "></path>
                        </g>
                    </g>
                </g>
                <g id="Group-Copy" transform="translate(27.400000, 0.000000)">
                    <g id="weave">
                        <g id="Group">
                            <path d="M8.91509089e-13,2 C0.893684373,0.794014257 2.4156178,0 4.14285714,0 C5.87009648,0 7.39202991,0.794014257 8.28571429,2 L6.85458386,2 C6.15573355,1.38140649 5.19860492,1 4.14285714,1 C3.08710937,1 2.12998074,1.38140649 1.43113043,2 L8.91509089e-13,2 Z" id="Combined-Shape"></path>
                            <path d="M6.83571468,4 C7.72939905,2.79401426 9.25133248,2 10.9785718,2 C12.7058112,2 14.2277446,2.79401426 15.121429,4 L13.6902985,4 C12.9914482,3.38140649 12.0343196,3 10.9785718,3 C9.92282405,3 8.96569542,3.38140649 8.26684511,4 L6.83571468,4 Z" id="Combined-Shape-Copy" transform="translate(10.978572, 3.000000) scale(1, -1) translate(-10.978572, -3.000000) "></path>
                        </g>
                    </g>
                    <g id="weave" transform="translate(13.700000, 0.000000)">
                        <g id="Group">
                            <path d="M8.91509089e-13,2 C0.893684373,0.794014257 2.4156178,0 4.14285714,0 C5.87009648,0 7.39202991,0.794014257 8.28571429,2 L6.85458386,2 C6.15573355,1.38140649 5.19860492,1 4.14285714,1 C3.08710937,1 2.12998074,1.38140649 1.43113043,2 L8.91509089e-13,2 Z" id="Combined-Shape"></path>
                            <path d="M6.83571468,4 C7.72939905,2.79401426 9.25133248,2 10.9785718,2 C12.7058112,2 14.2277446,2.79401426 15.121429,4 L13.6902985,4 C12.9914482,3.38140649 12.0343196,3 10.9785718,3 C9.92282405,3 8.96569542,3.38140649 8.26684511,4 L6.83571468,4 Z" id="Combined-Shape-Copy" transform="translate(10.978572, 3.000000) scale(1, -1) translate(-10.978572, -3.000000) "></path>
                        </g>
                    </g>
                </g>
            </g>
            <g id="Group-2-Copy-5" transform="translate(-4.000000, 15.000000)">
                <g id="Group">
                    <g id="weave">
                        <g id="Group">
                            <path d="M8.91509089e-13,2 C0.893684373,0.794014257 2.4156178,0 4.14285714,0 C5.87009648,0 7.39202991,0.794014257 8.28571429,2 L6.85458386,2 C6.15573355,1.38140649 5.19860492,1 4.14285714,1 C3.08710937,1 2.12998074,1.38140649 1.43113043,2 L8.91509089e-13,2 Z" id="Combined-Shape"></path>
                            <path d="M6.83571468,4 C7.72939905,2.79401426 9.25133248,2 10.9785718,2 C12.7058112,2 14.2277446,2.79401426 15.121429,4 L13.6902985,4 C12.9914482,3.38140649 12.0343196,3 10.9785718,3 C9.92282405,3 8.96569542,3.38140649 8.26684511,4 L6.83571468,4 Z" id="Combined-Shape-Copy" transform="translate(10.978572, 3.000000) scale(1, -1) translate(-10.978572, -3.000000) "></path>
                        </g>
                    </g>
                    <g id="weave" transform="translate(13.700000, 0.000000)">
                        <g id="Group">
                            <path d="M8.91509089e-13,2 C0.893684373,0.794014257 2.4156178,0 4.14285714,0 C5.87009648,0 7.39202991,0.794014257 8.28571429,2 L6.85458386,2 C6.15573355,1.38140649 5.19860492,1 4.14285714,1 C3.08710937,1 2.12998074,1.38140649 1.43113043,2 L8.91509089e-13,2 Z" id="Combined-Shape"></path>
                            <path d="M6.83571468,4 C7.72939905,2.79401426 9.25133248,2 10.9785718,2 C12.7058112,2 14.2277446,2.79401426 15.121429,4 L13.6902985,4 C12.9914482,3.38140649 12.0343196,3 10.9785718,3 C9.92282405,3 8.96569542,3.38140649 8.26684511,4 L6.83571468,4 Z" id="Combined-Shape-Copy" transform="translate(10.978572, 3.000000) scale(1, -1) translate(-10.978572, -3.000000) "></path>
                        </g>
                    </g>
                </g>
                <g id="Group-Copy" transform="translate(27.400000, 0.000000)">
                    <g id="weave">
                        <g id="Group">
                            <path d="M8.91509089e-13,2 C0.893684373,0.794014257 2.4156178,0 4.14285714,0 C5.87009648,0 7.39202991,0.794014257 8.28571429,2 L6.85458386,2 C6.15573355,1.38140649 5.19860492,1 4.14285714,1 C3.08710937,1 2.12998074,1.38140649 1.43113043,2 L8.91509089e-13,2 Z" id="Combined-Shape"></path>
                            <path d="M6.83571468,4 C7.72939905,2.79401426 9.25133248,2 10.9785718,2 C12.7058112,2 14.2277446,2.79401426 15.121429,4 L13.6902985,4 C12.9914482,3.38140649 12.0343196,3 10.9785718,3 C9.92282405,3 8.96569542,3.38140649 8.26684511,4 L6.83571468,4 Z" id="Combined-Shape-Copy" transform="translate(10.978572, 3.000000) scale(1, -1) translate(-10.978572, -3.000000) "></path>
                        </g>
                    </g>
                    <g id="weave" transform="translate(13.700000, 0.000000)">
                        <g id="Group">
                            <path d="M8.91509089e-13,2 C0.893684373,0.794014257 2.4156178,0 4.14285714,0 C5.87009648,0 7.39202991,0.794014257 8.28571429,2 L6.85458386,2 C6.15573355,1.38140649 5.19860492,1 4.14285714,1 C3.08710937,1 2.12998074,1.38140649 1.43113043,2 L8.91509089e-13,2 Z" id="Combined-Shape"></path>
                            <path d="M6.83571468,4 C7.72939905,2.79401426 9.25133248,2 10.9785718,2 C12.7058112,2 14.2277446,2.79401426 15.121429,4 L13.6902985,4 C12.9914482,3.38140649 12.0343196,3 10.9785718,3 C9.92282405,3 8.96569542,3.38140649 8.26684511,4 L6.83571468,4 Z" id="Combined-Shape-Copy" transform="translate(10.978572, 3.000000) scale(1, -1) translate(-10.978572, -3.000000) "></path>
                        </g>
                    </g>
                </g>
            </g>
            <g id="Group-2-Copy-6" transform="translate(-4.000000, 18.000000)">
                <g id="Group">
                    <g id="weave">
                        <g id="Group">
                            <path d="M8.91509089e-13,2 C0.893684373,0.794014257 2.4156178,0 4.14285714,0 C5.87009648,0 7.39202991,0.794014257 8.28571429,2 L6.85458386,2 C6.15573355,1.38140649 5.19860492,1 4.14285714,1 C3.08710937,1 2.12998074,1.38140649 1.43113043,2 L8.91509089e-13,2 Z" id="Combined-Shape"></path>
                            <path d="M6.83571468,4 C7.72939905,2.79401426 9.25133248,2 10.9785718,2 C12.7058112,2 14.2277446,2.79401426 15.121429,4 L13.6902985,4 C12.9914482,3.38140649 12.0343196,3 10.9785718,3 C9.92282405,3 8.96569542,3.38140649 8.26684511,4 L6.83571468,4 Z" id="Combined-Shape-Copy" transform="translate(10.978572, 3.000000) scale(1, -1) translate(-10.978572, -3.000000) "></path>
                        </g>
                    </g>
                    <g id="weave" transform="translate(13.700000, 0.000000)">
                        <g id="Group">
                            <path d="M8.91509089e-13,2 C0.893684373,0.794014257 2.4156178,0 4.14285714,0 C5.87009648,0 7.39202991,0.794014257 8.28571429,2 L6.85458386,2 C6.15573355,1.38140649 5.19860492,1 4.14285714,1 C3.08710937,1 2.12998074,1.38140649 1.43113043,2 L8.91509089e-13,2 Z" id="Combined-Shape"></path>
                            <path d="M6.83571468,4 C7.72939905,2.79401426 9.25133248,2 10.9785718,2 C12.7058112,2 14.2277446,2.79401426 15.121429,4 L13.6902985,4 C12.9914482,3.38140649 12.0343196,3 10.9785718,3 C9.92282405,3 8.96569542,3.38140649 8.26684511,4 L6.83571468,4 Z" id="Combined-Shape-Copy" transform="translate(10.978572, 3.000000) scale(1, -1) translate(-10.978572, -3.000000) "></path>
                        </g>
                    </g>
                </g>
                <g id="Group-Copy" transform="translate(27.400000, 0.000000)">
                    <g id="weave">
                        <g id="Group">
                            <path d="M8.91509089e-13,2 C0.893684373,0.794014257 2.4156178,0 4.14285714,0 C5.87009648,0 7.39202991,0.794014257 8.28571429,2 L6.85458386,2 C6.15573355,1.38140649 5.19860492,1 4.14285714,1 C3.08710937,1 2.12998074,1.38140649 1.43113043,2 L8.91509089e-13,2 Z" id="Combined-Shape"></path>
                            <path d="M6.83571468,4 C7.72939905,2.79401426 9.25133248,2 10.9785718,2 C12.7058112,2 14.2277446,2.79401426 15.121429,4 L13.6902985,4 C12.9914482,3.38140649 12.0343196,3 10.9785718,3 C9.92282405,3 8.96569542,3.38140649 8.26684511,4 L6.83571468,4 Z" id="Combined-Shape-Copy" transform="translate(10.978572, 3.000000) scale(1, -1) translate(-10.978572, -3.000000) "></path>
                        </g>
                    </g>
                    <g id="weave" transform="translate(13.700000, 0.000000)">
                        <g id="Group">
                            <path d="M8.91509089e-13,2 C0.893684373,0.794014257 2.4156178,0 4.14285714,0 C5.87009648,0 7.39202991,0.794014257 8.28571429,2 L6.85458386,2 C6.15573355,1.38140649 5.19860492,1 4.14285714,1 C3.08710937,1 2.12998074,1.38140649 1.43113043,2 L8.91509089e-13,2 Z" id="Combined-Shape"></path>
                            <path d="M6.83571468,4 C7.72939905,2.79401426 9.25133248,2 10.9785718,2 C12.7058112,2 14.2277446,2.79401426 15.121429,4 L13.6902985,4 C12.9914482,3.38140649 12.0343196,3 10.9785718,3 C9.92282405,3 8.96569542,3.38140649 8.26684511,4 L6.83571468,4 Z" id="Combined-Shape-Copy" transform="translate(10.978572, 3.000000) scale(1, -1) translate(-10.978572, -3.000000) "></path>
                        </g>
                    </g>
                </g>
            </g>
            <g id="Group-2-Copy-7" transform="translate(-4.000000, 21.000000)">
                <g id="Group">
                    <g id="weave">
                        <g id="Group">
                            <path d="M8.91509089e-13,2 C0.893684373,0.794014257 2.4156178,0 4.14285714,0 C5.87009648,0 7.39202991,0.794014257 8.28571429,2 L6.85458386,2 C6.15573355,1.38140649 5.19860492,1 4.14285714,1 C3.08710937,1 2.12998074,1.38140649 1.43113043,2 L8.91509089e-13,2 Z" id="Combined-Shape"></path>
                            <path d="M6.83571468,4 C7.72939905,2.79401426 9.25133248,2 10.9785718,2 C12.7058112,2 14.2277446,2.79401426 15.121429,4 L13.6902985,4 C12.9914482,3.38140649 12.0343196,3 10.9785718,3 C9.92282405,3 8.96569542,3.38140649 8.26684511,4 L6.83571468,4 Z" id="Combined-Shape-Copy" transform="translate(10.978572, 3.000000) scale(1, -1) translate(-10.978572, -3.000000) "></path>
                        </g>
                    </g>
                    <g id="weave" transform="translate(13.700000, 0.000000)">
                        <g id="Group">
                            <path d="M8.91509089e-13,2 C0.893684373,0.794014257 2.4156178,0 4.14285714,0 C5.87009648,0 7.39202991,0.794014257 8.28571429,2 L6.85458386,2 C6.15573355,1.38140649 5.19860492,1 4.14285714,1 C3.08710937,1 2.12998074,1.38140649 1.43113043,2 L8.91509089e-13,2 Z" id="Combined-Shape"></path>
                            <path d="M6.83571468,4 C7.72939905,2.79401426 9.25133248,2 10.9785718,2 C12.7058112,2 14.2277446,2.79401426 15.121429,4 L13.6902985,4 C12.9914482,3.38140649 12.0343196,3 10.9785718,3 C9.92282405,3 8.96569542,3.38140649 8.26684511,4 L6.83571468,4 Z" id="Combined-Shape-Copy" transform="translate(10.978572, 3.000000) scale(1, -1) translate(-10.978572, -3.000000) "></path>
                        </g>
                    </g>
                </g>
                <g id="Group-Copy" transform="translate(27.400000, 0.000000)">
                    <g id="weave">
                        <g id="Group">
                            <path d="M8.91509089e-13,2 C0.893684373,0.794014257 2.4156178,0 4.14285714,0 C5.87009648,0 7.39202991,0.794014257 8.28571429,2 L6.85458386,2 C6.15573355,1.38140649 5.19860492,1 4.14285714,1 C3.08710937,1 2.12998074,1.38140649 1.43113043,2 L8.91509089e-13,2 Z" id="Combined-Shape"></path>
                            <path d="M6.83571468,4 C7.72939905,2.79401426 9.25133248,2 10.9785718,2 C12.7058112,2 14.2277446,2.79401426 15.121429,4 L13.6902985,4 C12.9914482,3.38140649 12.0343196,3 10.9785718,3 C9.92282405,3 8.96569542,3.38140649 8.26684511,4 L6.83571468,4 Z" id="Combined-Shape-Copy" transform="translate(10.978572, 3.000000) scale(1, -1) translate(-10.978572, -3.000000) "></path>
                        </g>
                    </g>
                    <g id="weave" transform="translate(13.700000, 0.000000)">
                        <g id="Group">
                            <path d="M8.91509089e-13,2 C0.893684373,0.794014257 2.4156178,0 4.14285714,0 C5.87009648,0 7.39202991,0.794014257 8.28571429,2 L6.85458386,2 C6.15573355,1.38140649 5.19860492,1 4.14285714,1 C3.08710937,1 2.12998074,1.38140649 1.43113043,2 L8.91509089e-13,2 Z" id="Combined-Shape"></path>
                            <path d="M6.83571468,4 C7.72939905,2.79401426 9.25133248,2 10.9785718,2 C12.7058112,2 14.2277446,2.79401426 15.121429,4 L13.6902985,4 C12.9914482,3.38140649 12.0343196,3 10.9785718,3 C9.92282405,3 8.96569542,3.38140649 8.26684511,4 L6.83571468,4 Z" id="Combined-Shape-Copy" transform="translate(10.978572, 3.000000) scale(1, -1) translate(-10.978572, -3.000000) "></path>
                        </g>
                    </g>
                </g>
            </g>
            <g id="Group-2-Copy-8" transform="translate(-4.000000, 24.000000)">
                <g id="Group">
                    <g id="weave">
                        <g id="Group">
                            <path d="M8.91509089e-13,2 C0.893684373,0.794014257 2.4156178,0 4.14285714,0 C5.87009648,0 7.39202991,0.794014257 8.28571429,2 L6.85458386,2 C6.15573355,1.38140649 5.19860492,1 4.14285714,1 C3.08710937,1 2.12998074,1.38140649 1.43113043,2 L8.91509089e-13,2 Z" id="Combined-Shape"></path>
                            <path d="M6.83571468,4 C7.72939905,2.79401426 9.25133248,2 10.9785718,2 C12.7058112,2 14.2277446,2.79401426 15.121429,4 L13.6902985,4 C12.9914482,3.38140649 12.0343196,3 10.9785718,3 C9.92282405,3 8.96569542,3.38140649 8.26684511,4 L6.83571468,4 Z" id="Combined-Shape-Copy" transform="translate(10.978572, 3.000000) scale(1, -1) translate(-10.978572, -3.000000) "></path>
                        </g>
                    </g>
                    <g id="weave" transform="translate(13.700000, 0.000000)">
                        <g id="Group">
                            <path d="M8.91509089e-13,2 C0.893684373,0.794014257 2.4156178,0 4.14285714,0 C5.87009648,0 7.39202991,0.794014257 8.28571429,2 L6.85458386,2 C6.15573355,1.38140649 5.19860492,1 4.14285714,1 C3.08710937,1 2.12998074,1.38140649 1.43113043,2 L8.91509089e-13,2 Z" id="Combined-Shape"></path>
                            <path d="M6.83571468,4 C7.72939905,2.79401426 9.25133248,2 10.9785718,2 C12.7058112,2 14.2277446,2.79401426 15.121429,4 L13.6902985,4 C12.9914482,3.38140649 12.0343196,3 10.9785718,3 C9.92282405,3 8.96569542,3.38140649 8.26684511,4 L6.83571468,4 Z" id="Combined-Shape-Copy" transform="translate(10.978572, 3.000000) scale(1, -1) translate(-10.978572, -3.000000) "></path>
                        </g>
                    </g>
                </g>
                <g id="Group-Copy" transform="translate(27.400000, 0.000000)">
                    <g id="weave">
                        <g id="Group">
                            <path d="M8.91509089e-13,2 C0.893684373,0.794014257 2.4156178,0 4.14285714,0 C5.87009648,0 7.39202991,0.794014257 8.28571429,2 L6.85458386,2 C6.15573355,1.38140649 5.19860492,1 4.14285714,1 C3.08710937,1 2.12998074,1.38140649 1.43113043,2 L8.91509089e-13,2 Z" id="Combined-Shape"></path>
                            <path d="M6.83571468,4 C7.72939905,2.79401426 9.25133248,2 10.9785718,2 C12.7058112,2 14.2277446,2.79401426 15.121429,4 L13.6902985,4 C12.9914482,3.38140649 12.0343196,3 10.9785718,3 C9.92282405,3 8.96569542,3.38140649 8.26684511,4 L6.83571468,4 Z" id="Combined-Shape-Copy" transform="translate(10.978572, 3.000000) scale(1, -1) translate(-10.978572, -3.000000) "></path>
                        </g>
                    </g>
                    <g id="weave" transform="translate(13.700000, 0.000000)">
                        <g id="Group">
                            <path d="M8.91509089e-13,2 C0.893684373,0.794014257 2.4156178,0 4.14285714,0 C5.87009648,0 7.39202991,0.794014257 8.28571429,2 L6.85458386,2 C6.15573355,1.38140649 5.19860492,1 4.14285714,1 C3.08710937,1 2.12998074,1.38140649 1.43113043,2 L8.91509089e-13,2 Z" id="Combined-Shape"></path>
                            <path d="M6.83571468,4 C7.72939905,2.79401426 9.25133248,2 10.9785718,2 C12.7058112,2 14.2277446,2.79401426 15.121429,4 L13.6902985,4 C12.9914482,3.38140649 12.0343196,3 10.9785718,3 C9.92282405,3 8.96569542,3.38140649 8.26684511,4 L6.83571468,4 Z" id="Combined-Shape-Copy" transform="translate(10.978572, 3.000000) scale(1, -1) translate(-10.978572, -3.000000) "></path>
                        </g>
                    </g>
                </g>
            </g>
            <g id="Group-2-Copy-9" transform="translate(-4.000000, 27.000000)">
                <g id="Group">
                    <g id="weave">
                        <g id="Group">
                            <path d="M8.91509089e-13,2 C0.893684373,0.794014257 2.4156178,0 4.14285714,0 C5.87009648,0 7.39202991,0.794014257 8.28571429,2 L6.85458386,2 C6.15573355,1.38140649 5.19860492,1 4.14285714,1 C3.08710937,1 2.12998074,1.38140649 1.43113043,2 L8.91509089e-13,2 Z" id="Combined-Shape"></path>
                            <path d="M6.83571468,4 C7.72939905,2.79401426 9.25133248,2 10.9785718,2 C12.7058112,2 14.2277446,2.79401426 15.121429,4 L13.6902985,4 C12.9914482,3.38140649 12.0343196,3 10.9785718,3 C9.92282405,3 8.96569542,3.38140649 8.26684511,4 L6.83571468,4 Z" id="Combined-Shape-Copy" transform="translate(10.978572, 3.000000) scale(1, -1) translate(-10.978572, -3.000000) "></path>
                        </g>
                    </g>
                    <g id="weave" transform="translate(13.700000, 0.000000)">
                        <g id="Group">
                            <path d="M8.91509089e-13,2 C0.893684373,0.794014257 2.4156178,0 4.14285714,0 C5.87009648,0 7.39202991,0.794014257 8.28571429,2 L6.85458386,2 C6.15573355,1.38140649 5.19860492,1 4.14285714,1 C3.08710937,1 2.12998074,1.38140649 1.43113043,2 L8.91509089e-13,2 Z" id="Combined-Shape"></path>
                            <path d="M6.83571468,4 C7.72939905,2.79401426 9.25133248,2 10.9785718,2 C12.7058112,2 14.2277446,2.79401426 15.121429,4 L13.6902985,4 C12.9914482,3.38140649 12.0343196,3 10.9785718,3 C9.92282405,3 8.96569542,3.38140649 8.26684511,4 L6.83571468,4 Z" id="Combined-Shape-Copy" transform="translate(10.978572, 3.000000) scale(1, -1) translate(-10.978572, -3.000000) "></path>
                        </g>
                    </g>
                </g>
                <g id="Group-Copy" transform="translate(27.400000, 0.000000)">
                    <g id="weave">
                        <g id="Group">
                            <path d="M8.91509089e-13,2 C0.893684373,0.794014257 2.4156178,0 4.14285714,0 C5.87009648,0 7.39202991,0.794014257 8.28571429,2 L6.85458386,2 C6.15573355,1.38140649 5.19860492,1 4.14285714,1 C3.08710937,1 2.12998074,1.38140649 1.43113043,2 L8.91509089e-13,2 Z" id="Combined-Shape"></path>
                            <path d="M6.83571468,4 C7.72939905,2.79401426 9.25133248,2 10.9785718,2 C12.7058112,2 14.2277446,2.79401426 15.121429,4 L13.6902985,4 C12.9914482,3.38140649 12.0343196,3 10.9785718,3 C9.92282405,3 8.96569542,3.38140649 8.26684511,4 L6.83571468,4 Z" id="Combined-Shape-Copy" transform="translate(10.978572, 3.000000) scale(1, -1) translate(-10.978572, -3.000000) "></path>
                        </g>
                    </g>
                    <g id="weave" transform="translate(13.700000, 0.000000)">
                        <g id="Group">
                            <path d="M8.91509089e-13,2 C0.893684373,0.794014257 2.4156178,0 4.14285714,0 C5.87009648,0 7.39202991,0.794014257 8.28571429,2 L6.85458386,2 C6.15573355,1.38140649 5.19860492,1 4.14285714,1 C3.08710937,1 2.12998074,1.38140649 1.43113043,2 L8.91509089e-13,2 Z" id="Combined-Shape"></path>
                            <path d="M6.83571468,4 C7.72939905,2.79401426 9.25133248,2 10.9785718,2 C12.7058112,2 14.2277446,2.79401426 15.121429,4 L13.6902985,4 C12.9914482,3.38140649 12.0343196,3 10.9785718,3 C9.92282405,3 8.96569542,3.38140649 8.26684511,4 L6.83571468,4 Z" id="Combined-Shape-Copy" transform="translate(10.978572, 3.000000) scale(1, -1) translate(-10.978572, -3.000000) "></path>
                        </g>
                    </g>
                </g>
            </g>
            <g id="Group-2-Copy-10" transform="translate(-4.000000, 30.000000)">
                <g id="Group">
                    <g id="weave">
                        <g id="Group">
                            <path d="M8.91509089e-13,2 C0.893684373,0.794014257 2.4156178,0 4.14285714,0 C5.87009648,0 7.39202991,0.794014257 8.28571429,2 L6.85458386,2 C6.15573355,1.38140649 5.19860492,1 4.14285714,1 C3.08710937,1 2.12998074,1.38140649 1.43113043,2 L8.91509089e-13,2 Z" id="Combined-Shape"></path>
                            <path d="M6.83571468,4 C7.72939905,2.79401426 9.25133248,2 10.9785718,2 C12.7058112,2 14.2277446,2.79401426 15.121429,4 L13.6902985,4 C12.9914482,3.38140649 12.0343196,3 10.9785718,3 C9.92282405,3 8.96569542,3.38140649 8.26684511,4 L6.83571468,4 Z" id="Combined-Shape-Copy" transform="translate(10.978572, 3.000000) scale(1, -1) translate(-10.978572, -3.000000) "></path>
                        </g>
                    </g>
                    <g id="weave" transform="translate(13.700000, 0.000000)">
                        <g id="Group">
                            <path d="M8.91509089e-13,2 C0.893684373,0.794014257 2.4156178,0 4.14285714,0 C5.87009648,0 7.39202991,0.794014257 8.28571429,2 L6.85458386,2 C6.15573355,1.38140649 5.19860492,1 4.14285714,1 C3.08710937,1 2.12998074,1.38140649 1.43113043,2 L8.91509089e-13,2 Z" id="Combined-Shape"></path>
                            <path d="M6.83571468,4 C7.72939905,2.79401426 9.25133248,2 10.9785718,2 C12.7058112,2 14.2277446,2.79401426 15.121429,4 L13.6902985,4 C12.9914482,3.38140649 12.0343196,3 10.9785718,3 C9.92282405,3 8.96569542,3.38140649 8.26684511,4 L6.83571468,4 Z" id="Combined-Shape-Copy" transform="translate(10.978572, 3.000000) scale(1, -1) translate(-10.978572, -3.000000) "></path>
                        </g>
                    </g>
                </g>
                <g id="Group-Copy" transform="translate(27.400000, 0.000000)">
                    <g id="weave">
                        <g id="Group">
                            <path d="M8.91509089e-13,2 C0.893684373,0.794014257 2.4156178,0 4.14285714,0 C5.87009648,0 7.39202991,0.794014257 8.28571429,2 L6.85458386,2 C6.15573355,1.38140649 5.19860492,1 4.14285714,1 C3.08710937,1 2.12998074,1.38140649 1.43113043,2 L8.91509089e-13,2 Z" id="Combined-Shape"></path>
                            <path d="M6.83571468,4 C7.72939905,2.79401426 9.25133248,2 10.9785718,2 C12.7058112,2 14.2277446,2.79401426 15.121429,4 L13.6902985,4 C12.9914482,3.38140649 12.0343196,3 10.9785718,3 C9.92282405,3 8.96569542,3.38140649 8.26684511,4 L6.83571468,4 Z" id="Combined-Shape-Copy" transform="translate(10.978572, 3.000000) scale(1, -1) translate(-10.978572, -3.000000) "></path>
                        </g>
                    </g>
                    <g id="weave" transform="translate(13.700000, 0.000000)">
                        <g id="Group">
                            <path d="M8.91509089e-13,2 C0.893684373,0.794014257 2.4156178,0 4.14285714,0 C5.87009648,0 7.39202991,0.794014257 8.28571429,2 L6.85458386,2 C6.15573355,1.38140649 5.19860492,1 4.14285714,1 C3.08710937,1 2.12998074,1.38140649 1.43113043,2 L8.91509089e-13,2 Z" id="Combined-Shape"></path>
                            <path d="M6.83571468,4 C7.72939905,2.79401426 9.25133248,2 10.9785718,2 C12.7058112,2 14.2277446,2.79401426 15.121429,4 L13.6902985,4 C12.9914482,3.38140649 12.0343196,3 10.9785718,3 C9.92282405,3 8.96569542,3.38140649 8.26684511,4 L6.83571468,4 Z" id="Combined-Shape-Copy" transform="translate(10.978572, 3.000000) scale(1, -1) translate(-10.978572, -3.000000) "></path>
                        </g>
                    </g>
                </g>
            </g>
            <g id="Group-2-Copy-11" transform="translate(-4.000000, 33.000000)">
                <g id="Group">
                    <g id="weave">
                        <g id="Group">
                            <path d="M8.91509089e-13,2 C0.893684373,0.794014257 2.4156178,0 4.14285714,0 C5.87009648,0 7.39202991,0.794014257 8.28571429,2 L6.85458386,2 C6.15573355,1.38140649 5.19860492,1 4.14285714,1 C3.08710937,1 2.12998074,1.38140649 1.43113043,2 L8.91509089e-13,2 Z" id="Combined-Shape"></path>
                            <path d="M6.83571468,4 C7.72939905,2.79401426 9.25133248,2 10.9785718,2 C12.7058112,2 14.2277446,2.79401426 15.121429,4 L13.6902985,4 C12.9914482,3.38140649 12.0343196,3 10.9785718,3 C9.92282405,3 8.96569542,3.38140649 8.26684511,4 L6.83571468,4 Z" id="Combined-Shape-Copy" transform="translate(10.978572, 3.000000) scale(1, -1) translate(-10.978572, -3.000000) "></path>
                        </g>
                    </g>
                    <g id="weave" transform="translate(13.700000, 0.000000)">
                        <g id="Group">
                            <path d="M8.91509089e-13,2 C0.893684373,0.794014257 2.4156178,0 4.14285714,0 C5.87009648,0 7.39202991,0.794014257 8.28571429,2 L6.85458386,2 C6.15573355,1.38140649 5.19860492,1 4.14285714,1 C3.08710937,1 2.12998074,1.38140649 1.43113043,2 L8.91509089e-13,2 Z" id="Combined-Shape"></path>
                            <path d="M6.83571468,4 C7.72939905,2.79401426 9.25133248,2 10.9785718,2 C12.7058112,2 14.2277446,2.79401426 15.121429,4 L13.6902985,4 C12.9914482,3.38140649 12.0343196,3 10.9785718,3 C9.92282405,3 8.96569542,3.38140649 8.26684511,4 L6.83571468,4 Z" id="Combined-Shape-Copy" transform="translate(10.978572, 3.000000) scale(1, -1) translate(-10.978572, -3.000000) "></path>
                        </g>
                    </g>
                </g>
                <g id="Group-Copy" transform="translate(27.400000, 0.000000)">
                    <g id="weave">
                        <g id="Group">
                            <path d="M8.91509089e-13,2 C0.893684373,0.794014257 2.4156178,0 4.14285714,0 C5.87009648,0 7.39202991,0.794014257 8.28571429,2 L6.85458386,2 C6.15573355,1.38140649 5.19860492,1 4.14285714,1 C3.08710937,1 2.12998074,1.38140649 1.43113043,2 L8.91509089e-13,2 Z" id="Combined-Shape"></path>
                            <path d="M6.83571468,4 C7.72939905,2.79401426 9.25133248,2 10.9785718,2 C12.7058112,2 14.2277446,2.79401426 15.121429,4 L13.6902985,4 C12.9914482,3.38140649 12.0343196,3 10.9785718,3 C9.92282405,3 8.96569542,3.38140649 8.26684511,4 L6.83571468,4 Z" id="Combined-Shape-Copy" transform="translate(10.978572, 3.000000) scale(1, -1) translate(-10.978572, -3.000000) "></path>
                        </g>
                    </g>
                    <g id="weave" transform="translate(13.700000, 0.000000)">
                        <g id="Group">
                            <path d="M8.91509089e-13,2 C0.893684373,0.794014257 2.4156178,0 4.14285714,0 C5.87009648,0 7.39202991,0.794014257 8.28571429,2 L6.85458386,2 C6.15573355,1.38140649 5.19860492,1 4.14285714,1 C3.08710937,1 2.12998074,1.38140649 1.43113043,2 L8.91509089e-13,2 Z" id="Combined-Shape"></path>
                            <path d="M6.83571468,4 C7.72939905,2.79401426 9.25133248,2 10.9785718,2 C12.7058112,2 14.2277446,2.79401426 15.121429,4 L13.6902985,4 C12.9914482,3.38140649 12.0343196,3 10.9785718,3 C9.92282405,3 8.96569542,3.38140649 8.26684511,4 L6.83571468,4 Z" id="Combined-Shape-Copy" transform="translate(10.978572, 3.000000) scale(1, -1) translate(-10.978572, -3.000000) "></path>
                        </g>
                    </g>
                </g>
            </g>
            <g id="Group-2-Copy-12" transform="translate(-4.000000, 36.000000)">
                <g id="Group">
                    <g id="weave">
                        <g id="Group">
                            <path d="M8.91509089e-13,2 C0.893684373,0.794014257 2.4156178,0 4.14285714,0 C5.87009648,0 7.39202991,0.794014257 8.28571429,2 L6.85458386,2 C6.15573355,1.38140649 5.19860492,1 4.14285714,1 C3.08710937,1 2.12998074,1.38140649 1.43113043,2 L8.91509089e-13,2 Z" id="Combined-Shape"></path>
                            <path d="M6.83571468,4 C7.72939905,2.79401426 9.25133248,2 10.9785718,2 C12.7058112,2 14.2277446,2.79401426 15.121429,4 L13.6902985,4 C12.9914482,3.38140649 12.0343196,3 10.9785718,3 C9.92282405,3 8.96569542,3.38140649 8.26684511,4 L6.83571468,4 Z" id="Combined-Shape-Copy" transform="translate(10.978572, 3.000000) scale(1, -1) translate(-10.978572, -3.000000) "></path>
                        </g>
                    </g>
                    <g id="weave" transform="translate(13.700000, 0.000000)">
                        <g id="Group">
                            <path d="M8.91509089e-13,2 C0.893684373,0.794014257 2.4156178,0 4.14285714,0 C5.87009648,0 7.39202991,0.794014257 8.28571429,2 L6.85458386,2 C6.15573355,1.38140649 5.19860492,1 4.14285714,1 C3.08710937,1 2.12998074,1.38140649 1.43113043,2 L8.91509089e-13,2 Z" id="Combined-Shape"></path>
                            <path d="M6.83571468,4 C7.72939905,2.79401426 9.25133248,2 10.9785718,2 C12.7058112,2 14.2277446,2.79401426 15.121429,4 L13.6902985,4 C12.9914482,3.38140649 12.0343196,3 10.9785718,3 C9.92282405,3 8.96569542,3.38140649 8.26684511,4 L6.83571468,4 Z" id="Combined-Shape-Copy" transform="translate(10.978572, 3.000000) scale(1, -1) translate(-10.978572, -3.000000) "></path>
                        </g>
                    </g>
                </g>
                <g id="Group-Copy" transform="translate(27.400000, 0.000000)">
                    <g id="weave">
                        <g id="Group">
                            <path d="M8.91509089e-13,2 C0.893684373,0.794014257 2.4156178,0 4.14285714,0 C5.87009648,0 7.39202991,0.794014257 8.28571429,2 L6.85458386,2 C6.15573355,1.38140649 5.19860492,1 4.14285714,1 C3.08710937,1 2.12998074,1.38140649 1.43113043,2 L8.91509089e-13,2 Z" id="Combined-Shape"></path>
                            <path d="M6.83571468,4 C7.72939905,2.79401426 9.25133248,2 10.9785718,2 C12.7058112,2 14.2277446,2.79401426 15.121429,4 L13.6902985,4 C12.9914482,3.38140649 12.0343196,3 10.9785718,3 C9.92282405,3 8.96569542,3.38140649 8.26684511,4 L6.83571468,4 Z" id="Combined-Shape-Copy" transform="translate(10.978572, 3.000000) scale(1, -1) translate(-10.978572, -3.000000) "></path>
                        </g>
                    </g>
                    <g id="weave" transform="translate(13.700000, 0.000000)">
                        <g id="Group">
                            <path d="M8.91509089e-13,2 C0.893684373,0.794014257 2.4156178,0 4.14285714,0 C5.87009648,0 7.39202991,0.794014257 8.28571429,2 L6.85458386,2 C6.15573355,1.38140649 5.19860492,1 4.14285714,1 C3.08710937,1 2.12998074,1.38140649 1.43113043,2 L8.91509089e-13,2 Z" id="Combined-Shape"></path>
                            <path d="M6.83571468,4 C7.72939905,2.79401426 9.25133248,2 10.9785718,2 C12.7058112,2 14.2277446,2.79401426 15.121429,4 L13.6902985,4 C12.9914482,3.38140649 12.0343196,3 10.9785718,3 C9.92282405,3 8.96569542,3.38140649 8.26684511,4 L6.83571468,4 Z" id="Combined-Shape-Copy" transform="translate(10.978572, 3.000000) scale(1, -1) translate(-10.978572, -3.000000) "></path>
                        </g>
                    </g>
                </g>
            </g>
            <g id="Group-2-Copy-13" transform="translate(-4.000000, 39.000000)">
                <g id="Group">
                    <g id="weave">
                        <g id="Group">
                            <path d="M8.91509089e-13,2 C0.893684373,0.794014257 2.4156178,0 4.14285714,0 C5.87009648,0 7.39202991,0.794014257 8.28571429,2 L6.85458386,2 C6.15573355,1.38140649 5.19860492,1 4.14285714,1 C3.08710937,1 2.12998074,1.38140649 1.43113043,2 L8.91509089e-13,2 Z" id="Combined-Shape"></path>
                            <path d="M6.83571468,4 C7.72939905,2.79401426 9.25133248,2 10.9785718,2 C12.7058112,2 14.2277446,2.79401426 15.121429,4 L13.6902985,4 C12.9914482,3.38140649 12.0343196,3 10.9785718,3 C9.92282405,3 8.96569542,3.38140649 8.26684511,4 L6.83571468,4 Z" id="Combined-Shape-Copy" transform="translate(10.978572, 3.000000) scale(1, -1) translate(-10.978572, -3.000000) "></path>
                        </g>
                    </g>
                    <g id="weave" transform="translate(13.700000, 0.000000)">
                        <g id="Group">
                            <path d="M8.91509089e-13,2 C0.893684373,0.794014257 2.4156178,0 4.14285714,0 C5.87009648,0 7.39202991,0.794014257 8.28571429,2 L6.85458386,2 C6.15573355,1.38140649 5.19860492,1 4.14285714,1 C3.08710937,1 2.12998074,1.38140649 1.43113043,2 L8.91509089e-13,2 Z" id="Combined-Shape"></path>
                            <path d="M6.83571468,4 C7.72939905,2.79401426 9.25133248,2 10.9785718,2 C12.7058112,2 14.2277446,2.79401426 15.121429,4 L13.6902985,4 C12.9914482,3.38140649 12.0343196,3 10.9785718,3 C9.92282405,3 8.96569542,3.38140649 8.26684511,4 L6.83571468,4 Z" id="Combined-Shape-Copy" transform="translate(10.978572, 3.000000) scale(1, -1) translate(-10.978572, -3.000000) "></path>
                        </g>
                    </g>
                </g>
                <g id="Group-Copy" transform="translate(27.400000, 0.000000)">
                    <g id="weave">
                        <g id="Group">
                            <path d="M8.91509089e-13,2 C0.893684373,0.794014257 2.4156178,0 4.14285714,0 C5.87009648,0 7.39202991,0.794014257 8.28571429,2 L6.85458386,2 C6.15573355,1.38140649 5.19860492,1 4.14285714,1 C3.08710937,1 2.12998074,1.38140649 1.43113043,2 L8.91509089e-13,2 Z" id="Combined-Shape"></path>
                            <path d="M6.83571468,4 C7.72939905,2.79401426 9.25133248,2 10.9785718,2 C12.7058112,2 14.2277446,2.79401426 15.121429,4 L13.6902985,4 C12.9914482,3.38140649 12.0343196,3 10.9785718,3 C9.92282405,3 8.96569542,3.38140649 8.26684511,4 L6.83571468,4 Z" id="Combined-Shape-Copy" transform="translate(10.978572, 3.000000) scale(1, -1) translate(-10.978572, -3.000000) "></path>
                        </g>
                    </g>
                    <g id="weave" transform="translate(13.700000, 0.000000)">
                        <g id="Group">
                            <path d="M8.91509089e-13,2 C0.893684373,0.794014257 2.4156178,0 4.14285714,0 C5.87009648,0 7.39202991,0.794014257 8.28571429,2 L6.85458386,2 C6.15573355,1.38140649 5.19860492,1 4.14285714,1 C3.08710937,1 2.12998074,1.38140649 1.43113043,2 L8.91509089e-13,2 Z" id="Combined-Shape"></path>
                            <path d="M6.83571468,4 C7.72939905,2.79401426 9.25133248,2 10.9785718,2 C12.7058112,2 14.2277446,2.79401426 15.121429,4 L13.6902985,4 C12.9914482,3.38140649 12.0343196,3 10.9785718,3 C9.92282405,3 8.96569542,3.38140649 8.26684511,4 L6.83571468,4 Z" id="Combined-Shape-Copy" transform="translate(10.978572, 3.000000) scale(1, -1) translate(-10.978572, -3.000000) "></path>
                        </g>
                    </g>
                </g>
            </g>
            <g id="Group-2-Copy-14" transform="translate(-4.000000, 42.000000)">
                <g id="Group">
                    <g id="weave">
                        <g id="Group">
                            <path d="M8.91509089e-13,2 C0.893684373,0.794014257 2.4156178,0 4.14285714,0 C5.87009648,0 7.39202991,0.794014257 8.28571429,2 L6.85458386,2 C6.15573355,1.38140649 5.19860492,1 4.14285714,1 C3.08710937,1 2.12998074,1.38140649 1.43113043,2 L8.91509089e-13,2 Z" id="Combined-Shape"></path>
                            <path d="M6.83571468,4 C7.72939905,2.79401426 9.25133248,2 10.9785718,2 C12.7058112,2 14.2277446,2.79401426 15.121429,4 L13.6902985,4 C12.9914482,3.38140649 12.0343196,3 10.9785718,3 C9.92282405,3 8.96569542,3.38140649 8.26684511,4 L6.83571468,4 Z" id="Combined-Shape-Copy" transform="translate(10.978572, 3.000000) scale(1, -1) translate(-10.978572, -3.000000) "></path>
                        </g>
                    </g>
                    <g id="weave" transform="translate(13.700000, 0.000000)">
                        <g id="Group">
                            <path d="M8.91509089e-13,2 C0.893684373,0.794014257 2.4156178,0 4.14285714,0 C5.87009648,0 7.39202991,0.794014257 8.28571429,2 L6.85458386,2 C6.15573355,1.38140649 5.19860492,1 4.14285714,1 C3.08710937,1 2.12998074,1.38140649 1.43113043,2 L8.91509089e-13,2 Z" id="Combined-Shape"></path>
                            <path d="M6.83571468,4 C7.72939905,2.79401426 9.25133248,2 10.9785718,2 C12.7058112,2 14.2277446,2.79401426 15.121429,4 L13.6902985,4 C12.9914482,3.38140649 12.0343196,3 10.9785718,3 C9.92282405,3 8.96569542,3.38140649 8.26684511,4 L6.83571468,4 Z" id="Combined-Shape-Copy" transform="translate(10.978572, 3.000000) scale(1, -1) translate(-10.978572, -3.000000) "></path>
                        </g>
                    </g>
                </g>
                <g id="Group-Copy" transform="translate(27.400000, 0.000000)">
                    <g id="weave">
                        <g id="Group">
                            <path d="M8.91509089e-13,2 C0.893684373,0.794014257 2.4156178,0 4.14285714,0 C5.87009648,0 7.39202991,0.794014257 8.28571429,2 L6.85458386,2 C6.15573355,1.38140649 5.19860492,1 4.14285714,1 C3.08710937,1 2.12998074,1.38140649 1.43113043,2 L8.91509089e-13,2 Z" id="Combined-Shape"></path>
                            <path d="M6.83571468,4 C7.72939905,2.79401426 9.25133248,2 10.9785718,2 C12.7058112,2 14.2277446,2.79401426 15.121429,4 L13.6902985,4 C12.9914482,3.38140649 12.0343196,3 10.9785718,3 C9.92282405,3 8.96569542,3.38140649 8.26684511,4 L6.83571468,4 Z" id="Combined-Shape-Copy" transform="translate(10.978572, 3.000000) scale(1, -1) translate(-10.978572, -3.000000) "></path>
                        </g>
                    </g>
                    <g id="weave" transform="translate(13.700000, 0.000000)">
                        <g id="Group">
                            <path d="M8.91509089e-13,2 C0.893684373,0.794014257 2.4156178,0 4.14285714,0 C5.87009648,0 7.39202991,0.794014257 8.28571429,2 L6.85458386,2 C6.15573355,1.38140649 5.19860492,1 4.14285714,1 C3.08710937,1 2.12998074,1.38140649 1.43113043,2 L8.91509089e-13,2 Z" id="Combined-Shape"></path>
                            <path d="M6.83571468,4 C7.72939905,2.79401426 9.25133248,2 10.9785718,2 C12.7058112,2 14.2277446,2.79401426 15.121429,4 L13.6902985,4 C12.9914482,3.38140649 12.0343196,3 10.9785718,3 C9.92282405,3 8.96569542,3.38140649 8.26684511,4 L6.83571468,4 Z" id="Combined-Shape-Copy" transform="translate(10.978572, 3.000000) scale(1, -1) translate(-10.978572, -3.000000) "></path>
                        </g>
                    </g>
                </g>
            </g>
            <g id="Group-2-Copy-15" transform="translate(-4.000000, 45.000000)">
                <g id="Group">
                    <g id="weave">
                        <g id="Group">
                            <path d="M8.91509089e-13,2 C0.893684373,0.794014257 2.4156178,0 4.14285714,0 C5.87009648,0 7.39202991,0.794014257 8.28571429,2 L6.85458386,2 C6.15573355,1.38140649 5.19860492,1 4.14285714,1 C3.08710937,1 2.12998074,1.38140649 1.43113043,2 L8.91509089e-13,2 Z" id="Combined-Shape"></path>
                            <path d="M6.83571468,4 C7.72939905,2.79401426 9.25133248,2 10.9785718,2 C12.7058112,2 14.2277446,2.79401426 15.121429,4 L13.6902985,4 C12.9914482,3.38140649 12.0343196,3 10.9785718,3 C9.92282405,3 8.96569542,3.38140649 8.26684511,4 L6.83571468,4 Z" id="Combined-Shape-Copy" transform="translate(10.978572, 3.000000) scale(1, -1) translate(-10.978572, -3.000000) "></path>
                        </g>
                    </g>
                    <g id="weave" transform="translate(13.700000, 0.000000)">
                        <g id="Group">
                            <path d="M8.91509089e-13,2 C0.893684373,0.794014257 2.4156178,0 4.14285714,0 C5.87009648,0 7.39202991,0.794014257 8.28571429,2 L6.85458386,2 C6.15573355,1.38140649 5.19860492,1 4.14285714,1 C3.08710937,1 2.12998074,1.38140649 1.43113043,2 L8.91509089e-13,2 Z" id="Combined-Shape"></path>
                            <path d="M6.83571468,4 C7.72939905,2.79401426 9.25133248,2 10.9785718,2 C12.7058112,2 14.2277446,2.79401426 15.121429,4 L13.6902985,4 C12.9914482,3.38140649 12.0343196,3 10.9785718,3 C9.92282405,3 8.96569542,3.38140649 8.26684511,4 L6.83571468,4 Z" id="Combined-Shape-Copy" transform="translate(10.978572, 3.000000) scale(1, -1) translate(-10.978572, -3.000000) "></path>
                        </g>
                    </g>
                </g>
                <g id="Group-Copy" transform="translate(27.400000, 0.000000)">
                    <g id="weave">
                        <g id="Group">
                            <path d="M8.91509089e-13,2 C0.893684373,0.794014257 2.4156178,0 4.14285714,0 C5.87009648,0 7.39202991,0.794014257 8.28571429,2 L6.85458386,2 C6.15573355,1.38140649 5.19860492,1 4.14285714,1 C3.08710937,1 2.12998074,1.38140649 1.43113043,2 L8.91509089e-13,2 Z" id="Combined-Shape"></path>
                            <path d="M6.83571468,4 C7.72939905,2.79401426 9.25133248,2 10.9785718,2 C12.7058112,2 14.2277446,2.79401426 15.121429,4 L13.6902985,4 C12.9914482,3.38140649 12.0343196,3 10.9785718,3 C9.92282405,3 8.96569542,3.38140649 8.26684511,4 L6.83571468,4 Z" id="Combined-Shape-Copy" transform="translate(10.978572, 3.000000) scale(1, -1) translate(-10.978572, -3.000000) "></path>
                        </g>
                    </g>
                    <g id="weave" transform="translate(13.700000, 0.000000)">
                        <g id="Group">
                            <path d="M8.91509089e-13,2 C0.893684373,0.794014257 2.4156178,0 4.14285714,0 C5.87009648,0 7.39202991,0.794014257 8.28571429,2 L6.85458386,2 C6.15573355,1.38140649 5.19860492,1 4.14285714,1 C3.08710937,1 2.12998074,1.38140649 1.43113043,2 L8.91509089e-13,2 Z" id="Combined-Shape"></path>
                            <path d="M6.83571468,4 C7.72939905,2.79401426 9.25133248,2 10.9785718,2 C12.7058112,2 14.2277446,2.79401426 15.121429,4 L13.6902985,4 C12.9914482,3.38140649 12.0343196,3 10.9785718,3 C9.92282405,3 8.96569542,3.38140649 8.26684511,4 L6.83571468,4 Z" id="Combined-Shape-Copy" transform="translate(10.978572, 3.000000) scale(1, -1) translate(-10.978572, -3.000000) "></path>
                        </g>
                    </g>
                </g>
            </g>
            <g id="Group-2-Copy-16" transform="translate(-4.000000, -3.000000)">
                <g id="Group">
                    <g id="weave">
                        <g id="Group">
                            <path d="M8.91509089e-13,2 C0.893684373,0.794014257 2.4156178,0 4.14285714,0 C5.87009648,0 7.39202991,0.794014257 8.28571429,2 L6.85458386,2 C6.15573355,1.38140649 5.19860492,1 4.14285714,1 C3.08710937,1 2.12998074,1.38140649 1.43113043,2 L8.91509089e-13,2 Z" id="Combined-Shape"></path>
                            <path d="M6.83571468,4 C7.72939905,2.79401426 9.25133248,2 10.9785718,2 C12.7058112,2 14.2277446,2.79401426 15.121429,4 L13.6902985,4 C12.9914482,3.38140649 12.0343196,3 10.9785718,3 C9.92282405,3 8.96569542,3.38140649 8.26684511,4 L6.83571468,4 Z" id="Combined-Shape-Copy" transform="translate(10.978572, 3.000000) scale(1, -1) translate(-10.978572, -3.000000) "></path>
                        </g>
                    </g>
                    <g id="weave" transform="translate(13.700000, 0.000000)">
                        <g id="Group">
                            <path d="M8.91509089e-13,2 C0.893684373,0.794014257 2.4156178,0 4.14285714,0 C5.87009648,0 7.39202991,0.794014257 8.28571429,2 L6.85458386,2 C6.15573355,1.38140649 5.19860492,1 4.14285714,1 C3.08710937,1 2.12998074,1.38140649 1.43113043,2 L8.91509089e-13,2 Z" id="Combined-Shape"></path>
                            <path d="M6.83571468,4 C7.72939905,2.79401426 9.25133248,2 10.9785718,2 C12.7058112,2 14.2277446,2.79401426 15.121429,4 L13.6902985,4 C12.9914482,3.38140649 12.0343196,3 10.9785718,3 C9.92282405,3 8.96569542,3.38140649 8.26684511,4 L6.83571468,4 Z" id="Combined-Shape-Copy" transform="translate(10.978572, 3.000000) scale(1, -1) translate(-10.978572, -3.000000) "></path>
                        </g>
                    </g>
                </g>
                <g id="Group-Copy" transform="translate(27.400000, 0.000000)">
                    <g id="weave">
                        <g id="Group">
                            <path d="M8.91509089e-13,2 C0.893684373,0.794014257 2.4156178,0 4.14285714,0 C5.87009648,0 7.39202991,0.794014257 8.28571429,2 L6.85458386,2 C6.15573355,1.38140649 5.19860492,1 4.14285714,1 C3.08710937,1 2.12998074,1.38140649 1.43113043,2 L8.91509089e-13,2 Z" id="Combined-Shape"></path>
                            <path d="M6.83571468,4 C7.72939905,2.79401426 9.25133248,2 10.9785718,2 C12.7058112,2 14.2277446,2.79401426 15.121429,4 L13.6902985,4 C12.9914482,3.38140649 12.0343196,3 10.9785718,3 C9.92282405,3 8.96569542,3.38140649 8.26684511,4 L6.83571468,4 Z" id="Combined-Shape-Copy" transform="translate(10.978572, 3.000000) scale(1, -1) translate(-10.978572, -3.000000) "></path>
                        </g>
                    </g>
                    <g id="weave" transform="translate(13.700000, 0.000000)">
                        <g id="Group">
                            <path d="M8.91509089e-13,2 C0.893684373,0.794014257 2.4156178,0 4.14285714,0 C5.87009648,0 7.39202991,0.794014257 8.28571429,2 L6.85458386,2 C6.15573355,1.38140649 5.19860492,1 4.14285714,1 C3.08710937,1 2.12998074,1.38140649 1.43113043,2 L8.91509089e-13,2 Z" id="Combined-Shape"></path>
                            <path d="M6.83571468,4 C7.72939905,2.79401426 9.25133248,2 10.9785718,2 C12.7058112,2 14.2277446,2.79401426 15.121429,4 L13.6902985,4 C12.9914482,3.38140649 12.0343196,3 10.9785718,3 C9.92282405,3 8.96569542,3.38140649 8.26684511,4 L6.83571468,4 Z" id="Combined-Shape-Copy" transform="translate(10.978572, 3.000000) scale(1, -1) translate(-10.978572, -3.000000) "></path>
                        </g>
                    </g>
                </g>
            </g>
        </g>
    </g>
</svg>