<?xml version="1.0" encoding="UTF-8" standalone="no"?>
<svg width="48px" height="48px" viewBox="0 0 48 48" version="1.1" xmlns="http://www.w3.org/2000/svg" xmlns:xlink="http://www.w3.org/1999/xlink" style="background: #FFFFFF;">
    <!-- Generator: Sketch 3.8.3 (29802) - http://www.bohemiancoding.com/sketch -->
    <title>diagonal-2-lines</title>
    <desc>Created with Sketch.</desc>
    <defs></defs>
    <g id="Patterns" stroke="none" stroke-width="1" fill="none" fill-rule="evenodd">
        <g id="diagonal-2-lines" fill="#000000">
            <g id="Group" transform="translate(22.689863, 23.689863) rotate(-315.000000) translate(-22.689863, -23.689863) translate(-26.810137, -9.810137)">
                <g id="thick_line" transform="translate(48.127417, 65.775649) rotate(-180.000000) translate(-48.127417, -65.775649) translate(0.127417, 64.775649)">
                    <rect id="Rectangle-1" x="0" y="0" width="96" height="2"></rect>
                </g>
                <g id="thick_line" transform="translate(48.127417, 61.775649) rotate(-180.000000) translate(-48.127417, -61.775649) translate(0.127417, 60.775649)">
                    <rect id="Rectangle-1" x="0" y="0" width="96" height="2"></rect>
                </g>
                <g id="thick_line" transform="translate(48.127417, 57.775649) rotate(-180.000000) translate(-48.127417, -57.775649) translate(0.127417, 56.775649)">
                    <rect id="Rectangle-1" x="0" y="0" width="96" height="2"></rect>
                </g>
                <g id="thick_line" transform="translate(48.127417, 53.775649) rotate(-180.000000) translate(-48.127417, -53.775649) translate(0.127417, 52.775649)">
                    <rect id="Rectangle-1" x="0" y="0" width="96" height="2"></rect>
                </g>
                <g id="thick_line" transform="translate(48.127417, 49.775649) rotate(-180.000000) translate(-48.127417, -49.775649) translate(0.127417, 48.775649)">
                    <rect id="Rectangle-1" x="0" y="0" width="96" height="2"></rect>
                </g>
                <g id="thick_line" transform="translate(48.127417, 45.775649) rotate(-180.000000) translate(-48.127417, -45.775649) translate(0.127417, 44.775649)">
                    <rect id="Rectangle-1" x="0" y="0" width="96" height="2"></rect>
                </g>
                <g id="thick_line" transform="translate(48.127417, 41.775649) rotate(-180.000000) translate(-48.127417, -41.775649) translate(0.127417, 40.775649)">
                    <rect id="Rectangle-1" x="0" y="0" width="96" height="2"></rect>
                </g>
                <g id="thick_line" transform="translate(48.127417, 37.775649) rotate(-180.000000) translate(-48.127417, -37.775649) translate(0.127417, 36.775649)">
                    <rect id="Rectangle-1" x="0" y="0" width="96" height="2"></rect>
                </g>
                <g id="thick_line" transform="translate(48.127417, 33.775649) rotate(-180.000000) translate(-48.127417, -33.775649) translate(0.127417, 32.775649)">
                    <rect id="Rectangle-1" x="0" y="0" width="96" height="2"></rect>
                </g>
                <g id="thick_line" transform="translate(48.127417, 29.775649) rotate(-180.000000) translate(-48.127417, -29.775649) translate(0.127417, 28.775649)">
                    <rect id="Rectangle-1" x="0" y="0" width="96" height="2"></rect>
                </g>
                <g id="thick_line" transform="translate(48.127417, 25.775649) rotate(-180.000000) translate(-48.127417, -25.775649) translate(0.127417, 24.775649)">
                    <rect id="Rectangle-1" x="0" y="0" width="96" height="2"></rect>
                </g>
                <g id="thick_line" transform="translate(48.127417, 21.775649) rotate(-180.000000) translate(-48.127417, -21.775649) translate(0.127417, 20.775649)">
                    <rect id="Rectangle-1" x="0" y="0" width="96" height="2"></rect>
                </g>
                <g id="thick_line" transform="translate(50.914214, 17.976659) rotate(-180.000000) translate(-50.914214, -17.976659) translate(2.914214, 16.976659)">
                    <rect id="Rectangle-1" x="0" y="0" width="96" height="2"></rect>
                </g>
                <g id="thick_line" transform="translate(50.914214, 13.976659) rotate(-180.000000) translate(-50.914214, -13.976659) translate(2.914214, 12.976659)">
                    <rect id="Rectangle-1" x="0" y="0" width="96" height="2"></rect>
                </g>
                <g id="thick_line" transform="translate(50.914214, 9.976659) rotate(-180.000000) translate(-50.914214, -9.976659) translate(2.914214, 8.976659)">
                    <rect id="Rectangle-1" x="0" y="0" width="96" height="2"></rect>
                </g>
                <g id="thick_line" transform="translate(50.914214, 5.976659) rotate(-180.000000) translate(-50.914214, -5.976659) translate(2.914214, 4.976659)">
                    <rect id="Rectangle-1" x="0" y="0" width="96" height="2"></rect>
                </g>
                <g id="thick_line" transform="translate(50.914214, 1.976659) rotate(-180.000000) translate(-50.914214, -1.976659) translate(2.914214, 0.976659)">
                    <rect id="Rectangle-1" x="0" y="0" width="96" height="2"></rect>
                </g>
            </g>
        </g>
    </g>
</svg>