<?xml version="1.0" encoding="UTF-8" standalone="no"?>
<svg width="48px" height="48px" viewBox="0 0 48 48" version="1.1" xmlns="http://www.w3.org/2000/svg" xmlns:xlink="http://www.w3.org/1999/xlink" style="background: #FFFFFF;">
    <!-- Generator: Sketch 3.8.3 (29802) - http://www.bohemiancoding.com/sketch -->
    <title>diagonal-1-lines</title>
    <desc>Created with Sketch.</desc>
    <defs></defs>
    <g id="Patterns" stroke="none" stroke-width="1" fill="none" fill-rule="evenodd">
        <g id="diagonal-1-lines" fill="#000000">
            <g id="Group" transform="translate(-22.000000, -43.000000)">
                <g id="thick_line" transform="translate(34.648232, 34.707107) rotate(-45.000000) translate(-34.648232, -34.707107) translate(-13.351768, 33.707107)">
                    <rect id="Rectangle-1" x="0" y="0" width="96" height="2"></rect>
                </g>
                <g id="thick_line" transform="translate(37.476659, 37.535534) rotate(-45.000000) translate(-37.476659, -37.535534) translate(-10.523341, 36.535534)">
                    <rect id="Rectangle-1" x="0" y="0" width="96" height="2"></rect>
                </g>
                <g id="thick_line" transform="translate(40.305087, 40.363961) rotate(-45.000000) translate(-40.305087, -40.363961) translate(-7.694913, 39.363961)">
                    <rect id="Rectangle-1" x="0" y="0" width="96" height="2"></rect>
                </g>
                <g id="thick_line" transform="translate(43.133514, 43.192388) rotate(-45.000000) translate(-43.133514, -43.192388) translate(-4.866486, 42.192388)">
                    <rect id="Rectangle-1" x="0" y="0" width="96" height="2"></rect>
                </g>
                <g id="thick_line" transform="translate(45.961941, 46.020815) rotate(-45.000000) translate(-45.961941, -46.020815) translate(-2.038059, 45.020815)">
                    <rect id="Rectangle-1" x="0" y="0" width="96" height="2"></rect>
                </g>
                <g id="thick_line" transform="translate(48.790368, 48.849242) rotate(-45.000000) translate(-48.790368, -48.849242) translate(0.790368, 47.849242)">
                    <rect id="Rectangle-1" x="0" y="0" width="96" height="2"></rect>
                </g>
                <g id="thick_line" transform="translate(51.618795, 51.677670) rotate(-45.000000) translate(-51.618795, -51.677670) translate(3.618795, 50.677670)">
                    <rect id="Rectangle-1" x="0" y="0" width="96" height="2"></rect>
                </g>
                <g id="thick_line" transform="translate(54.447222, 54.506097) rotate(-45.000000) translate(-54.447222, -54.506097) translate(6.447222, 53.506097)">
                    <rect id="Rectangle-1" x="0" y="0" width="96" height="2"></rect>
                </g>
                <g id="thick_line" transform="translate(57.275649, 57.334524) rotate(-45.000000) translate(-57.275649, -57.334524) translate(9.275649, 56.334524)">
                    <rect id="Rectangle-1" x="0" y="0" width="96" height="2"></rect>
                </g>
                <g id="thick_line" transform="translate(60.104076, 60.162951) rotate(-45.000000) translate(-60.104076, -60.162951) translate(12.104076, 59.162951)">
                    <rect id="Rectangle-1" x="0" y="0" width="96" height="2"></rect>
                </g>
                <g id="thick_line" transform="translate(62.932504, 62.991378) rotate(-45.000000) translate(-62.932504, -62.991378) translate(14.932504, 61.991378)">
                    <rect id="Rectangle-1" x="0" y="0" width="96" height="2"></rect>
                </g>
                <g id="thick_line" transform="translate(65.760931, 65.819805) rotate(-45.000000) translate(-65.760931, -65.819805) translate(17.760931, 64.819805)">
                    <rect id="Rectangle-1" x="0" y="0" width="96" height="2"></rect>
                </g>
                <g id="thick_line" transform="translate(66.476659, 70.476659) rotate(-45.000000) translate(-66.476659, -70.476659) translate(18.476659, 69.476659)">
                    <rect id="Rectangle-1" x="0" y="0" width="96" height="2"></rect>
                </g>
                <g id="thick_line" transform="translate(69.305087, 73.305087) rotate(-45.000000) translate(-69.305087, -73.305087) translate(21.305087, 72.305087)">
                    <rect id="Rectangle-1" x="0" y="0" width="96" height="2"></rect>
                </g>
                <g id="thick_line" transform="translate(72.133514, 76.133514) rotate(-45.000000) translate(-72.133514, -76.133514) translate(24.133514, 75.133514)">
                    <rect id="Rectangle-1" x="0" y="0" width="96" height="2"></rect>
                </g>
                <g id="thick_line" transform="translate(74.961941, 78.961941) rotate(-45.000000) translate(-74.961941, -78.961941) translate(26.961941, 77.961941)">
                    <rect id="Rectangle-1" x="0" y="0" width="96" height="2"></rect>
                </g>
                <g id="thick_line" transform="translate(77.790368, 81.790368) rotate(-45.000000) translate(-77.790368, -81.790368) translate(29.790368, 80.790368)">
                    <rect id="Rectangle-1" x="0" y="0" width="96" height="2"></rect>
                </g>
            </g>
        </g>
    </g>
</svg>