<?xml version="1.0" encoding="UTF-8" standalone="no"?>
<svg width="48px" height="48px" viewBox="0 0 48 48" version="1.1" xmlns="http://www.w3.org/2000/svg" xmlns:xlink="http://www.w3.org/1999/xlink" style="background: #FFFFFF;">
    <!-- Generator: Sketch 3.8.3 (29802) - http://www.bohemiancoding.com/sketch -->
    <title>horizontal-lines</title>
    <desc>Created with Sketch.</desc>
    <defs></defs>
    <g id="Patterns" stroke="none" stroke-width="1" fill="none" fill-rule="evenodd">
        <g id="horizontal-lines" fill="#000000">
            <g id="thick_line" transform="translate(0.000000, 2.000000)">
                <rect id="Rectangle-1" x="0" y="0" width="96" height="2"></rect>
            </g>
            <g id="thick_line" transform="translate(0.000000, 6.000000)">
                <rect id="Rectangle-1" x="0" y="0" width="96" height="2"></rect>
            </g>
            <g id="thick_line" transform="translate(0.000000, 10.000000)">
                <rect id="Rectangle-1" x="0" y="0" width="96" height="2"></rect>
            </g>
            <g id="thick_line" transform="translate(0.000000, 14.000000)">
                <rect id="Rectangle-1" x="0" y="0" width="96" height="2"></rect>
            </g>
            <g id="thick_line" transform="translate(0.000000, 18.000000)">
                <rect id="Rectangle-1" x="0" y="0" width="96" height="2"></rect>
            </g>
            <g id="thick_line" transform="translate(0.000000, 22.000000)">
                <rect id="Rectangle-1" x="0" y="0" width="96" height="2"></rect>
            </g>
            <g id="thick_line" transform="translate(0.000000, 26.000000)">
                <rect id="Rectangle-1" x="0" y="0" width="96" height="2"></rect>
            </g>
            <g id="thick_line" transform="translate(0.000000, 30.000000)">
                <rect id="Rectangle-1" x="0" y="0" width="96" height="2"></rect>
            </g>
            <g id="thick_line" transform="translate(0.000000, 34.000000)">
                <rect id="Rectangle-1" x="0" y="0" width="96" height="2"></rect>
            </g>
            <g id="thick_line" transform="translate(0.000000, 38.000000)">
                <rect id="Rectangle-1" x="0" y="0" width="96" height="2"></rect>
            </g>
            <g id="thick_line" transform="translate(0.000000, 42.000000)">
                <rect id="Rectangle-1" x="0" y="0" width="96" height="2"></rect>
            </g>
            <g id="thick_line" transform="translate(0.000000, 46.000000)">
                <rect id="Rectangle-1" x="0" y="0" width="96" height="2"></rect>
            </g>
        </g>
    </g>
</svg>