<?xml version="1.0" encoding="UTF-8" standalone="no"?>
<svg width="48px" height="48px" viewBox="0 0 48 48" version="1.1" xmlns="http://www.w3.org/2000/svg" xmlns:xlink="http://www.w3.org/1999/xlink" style="background: #FFFFFF;">
    <!-- Generator: Sketch 3.8.3 (29802) - http://www.bohemiancoding.com/sketch -->
    <title>vertical-lines</title>
    <desc>Created with Sketch.</desc>
    <defs></defs>
    <g id="Patterns" stroke="none" stroke-width="1" fill="none" fill-rule="evenodd">
        <g id="vertical-lines" fill="#000000">
            <g id="Group" transform="translate(25.000000, 24.000000) rotate(-90.000000) translate(-25.000000, -24.000000) translate(1.000000, 1.000000)">
                <g id="thick_line">
                    <rect id="Rectangle-1" x="0" y="0" width="96" height="2"></rect>
                </g>
                <g id="thick_line" transform="translate(0.000000, 4.000000)">
                    <rect id="Rectangle-1" x="0" y="0" width="96" height="2"></rect>
                </g>
                <g id="thick_line" transform="translate(0.000000, 8.000000)">
                    <rect id="Rectangle-1" x="0" y="0" width="96" height="2"></rect>
                </g>
                <g id="thick_line" transform="translate(0.000000, 12.000000)">
                    <rect id="Rectangle-1" x="0" y="0" width="96" height="2"></rect>
                </g>
                <g id="thick_line" transform="translate(0.000000, 16.000000)">
                    <rect id="Rectangle-1" x="0" y="0" width="96" height="2"></rect>
                </g>
                <g id="thick_line" transform="translate(0.000000, 20.000000)">
                    <rect id="Rectangle-1" x="0" y="0" width="96" height="2"></rect>
                </g>
                <g id="thick_line" transform="translate(0.000000, 24.000000)">
                    <rect id="Rectangle-1" x="0" y="0" width="96" height="2"></rect>
                </g>
                <g id="thick_line" transform="translate(0.000000, 28.000000)">
                    <rect id="Rectangle-1" x="0" y="0" width="96" height="2"></rect>
                </g>
                <g id="thick_line" transform="translate(0.000000, 32.000000)">
                    <rect id="Rectangle-1" x="0" y="0" width="96" height="2"></rect>
                </g>
                <g id="thick_line" transform="translate(0.000000, 36.000000)">
                    <rect id="Rectangle-1" x="0" y="0" width="96" height="2"></rect>
                </g>
                <g id="thick_line" transform="translate(0.000000, 40.000000)">
                    <rect id="Rectangle-1" x="0" y="0" width="96" height="2"></rect>
                </g>
                <g id="thick_line" transform="translate(0.000000, 44.000000)">
                    <rect id="Rectangle-1" x="0" y="0" width="96" height="2"></rect>
                </g>
            </g>
        </g>
    </g>
</svg>