<?xml version="1.0" encoding="UTF-8" standalone="no"?>
<svg width="48px" height="48px" viewBox="0 0 48 48" version="1.1" xmlns="http://www.w3.org/2000/svg" xmlns:xlink="http://www.w3.org/1999/xlink" style="background: #FFFFFF;">
    <!-- Generator: Sketch 3.8.3 (29802) - http://www.bohemiancoding.com/sketch -->
    <title>zigzag-lines</title>
    <desc>Created with Sketch.</desc>
    <defs></defs>
    <g id="Patterns" stroke="none" stroke-width="1" fill="none" fill-rule="evenodd">
        <g id="zigzag-lines" fill="#000000">
            <g id="line" transform="translate(-4.000000, 0.000000)">
                <g id="zigzag-unit">
                    <path d="M5,2 L4,0 L0,8 L6,8 L7,10 L11,2 L5,2 Z M4,4 L6,8 L2,8 L4,4 Z M7,6 L5,2 L9,2 L7,6 Z" id="Combined-Shape"></path>
                </g>
                <g id="zigzag-unit" transform="translate(6.000000, 0.000000)">
                    <path d="M5,2 L4,0 L0,8 L6,8 L7,10 L11,2 L5,2 Z M4,4 L6,8 L2,8 L4,4 Z M7,6 L5,2 L9,2 L7,6 Z" id="Combined-Shape"></path>
                </g>
                <g id="zigzag-unit" transform="translate(12.000000, 0.000000)">
                    <path d="M5,2 L4,0 L0,8 L6,8 L7,10 L11,2 L5,2 Z M4,4 L6,8 L2,8 L4,4 Z M7,6 L5,2 L9,2 L7,6 Z" id="Combined-Shape"></path>
                </g>
                <g id="zigzag-unit" transform="translate(18.000000, 0.000000)">
                    <path d="M5,2 L4,0 L0,8 L6,8 L7,10 L11,2 L5,2 Z M4,4 L6,8 L2,8 L4,4 Z M7,6 L5,2 L9,2 L7,6 Z" id="Combined-Shape"></path>
                </g>
                <g id="zigzag-unit" transform="translate(24.000000, 0.000000)">
                    <path d="M5,2 L4,0 L0,8 L6,8 L7,10 L11,2 L5,2 Z M4,4 L6,8 L2,8 L4,4 Z M7,6 L5,2 L9,2 L7,6 Z" id="Combined-Shape"></path>
                </g>
                <g id="zigzag-unit" transform="translate(30.000000, 0.000000)">
                    <path d="M5,2 L4,0 L0,8 L6,8 L7,10 L11,2 L5,2 Z M4,4 L6,8 L2,8 L4,4 Z M7,6 L5,2 L9,2 L7,6 Z" id="Combined-Shape"></path>
                </g>
                <g id="zigzag-unit" transform="translate(36.000000, 0.000000)">
                    <path d="M5,2 L4,0 L0,8 L6,8 L7,10 L11,2 L5,2 Z M4,4 L6,8 L2,8 L4,4 Z M7,6 L5,2 L9,2 L7,6 Z" id="Combined-Shape"></path>
                </g>
                <g id="zigzag-unit" transform="translate(42.000000, 0.000000)">
                    <path d="M5,2 L4,0 L0,8 L6,8 L7,10 L11,2 L5,2 Z M4,4 L6,8 L2,8 L4,4 Z M7,6 L5,2 L9,2 L7,6 Z" id="Combined-Shape"></path>
                </g>
                <g id="zigzag-unit" transform="translate(48.000000, 0.000000)">
                    <path d="M5,2 L4,0 L0,8 L6,8 L7,10 L11,2 L5,2 Z M4,4 L6,8 L2,8 L4,4 Z M7,6 L5,2 L9,2 L7,6 Z" id="Combined-Shape"></path>
                </g>
            </g>
            <g id="line-copy" transform="translate(-4.000000, 8.000000)">
                <g id="zigzag-unit">
                    <path d="M5,2 L4,0 L0,8 L6,8 L7,10 L11,2 L5,2 Z M4,4 L6,8 L2,8 L4,4 Z M7,6 L5,2 L9,2 L7,6 Z" id="Combined-Shape"></path>
                </g>
                <g id="zigzag-unit" transform="translate(6.000000, 0.000000)">
                    <path d="M5,2 L4,0 L0,8 L6,8 L7,10 L11,2 L5,2 Z M4,4 L6,8 L2,8 L4,4 Z M7,6 L5,2 L9,2 L7,6 Z" id="Combined-Shape"></path>
                </g>
                <g id="zigzag-unit" transform="translate(12.000000, 0.000000)">
                    <path d="M5,2 L4,0 L0,8 L6,8 L7,10 L11,2 L5,2 Z M4,4 L6,8 L2,8 L4,4 Z M7,6 L5,2 L9,2 L7,6 Z" id="Combined-Shape"></path>
                </g>
                <g id="zigzag-unit" transform="translate(18.000000, 0.000000)">
                    <path d="M5,2 L4,0 L0,8 L6,8 L7,10 L11,2 L5,2 Z M4,4 L6,8 L2,8 L4,4 Z M7,6 L5,2 L9,2 L7,6 Z" id="Combined-Shape"></path>
                </g>
                <g id="zigzag-unit" transform="translate(24.000000, 0.000000)">
                    <path d="M5,2 L4,0 L0,8 L6,8 L7,10 L11,2 L5,2 Z M4,4 L6,8 L2,8 L4,4 Z M7,6 L5,2 L9,2 L7,6 Z" id="Combined-Shape"></path>
                </g>
                <g id="zigzag-unit" transform="translate(30.000000, 0.000000)">
                    <path d="M5,2 L4,0 L0,8 L6,8 L7,10 L11,2 L5,2 Z M4,4 L6,8 L2,8 L4,4 Z M7,6 L5,2 L9,2 L7,6 Z" id="Combined-Shape"></path>
                </g>
                <g id="zigzag-unit" transform="translate(36.000000, 0.000000)">
                    <path d="M5,2 L4,0 L0,8 L6,8 L7,10 L11,2 L5,2 Z M4,4 L6,8 L2,8 L4,4 Z M7,6 L5,2 L9,2 L7,6 Z" id="Combined-Shape"></path>
                </g>
                <g id="zigzag-unit" transform="translate(42.000000, 0.000000)">
                    <path d="M5,2 L4,0 L0,8 L6,8 L7,10 L11,2 L5,2 Z M4,4 L6,8 L2,8 L4,4 Z M7,6 L5,2 L9,2 L7,6 Z" id="Combined-Shape"></path>
                </g>
                <g id="zigzag-unit" transform="translate(48.000000, 0.000000)">
                    <path d="M5,2 L4,0 L0,8 L6,8 L7,10 L11,2 L5,2 Z M4,4 L6,8 L2,8 L4,4 Z M7,6 L5,2 L9,2 L7,6 Z" id="Combined-Shape"></path>
                </g>
            </g>
            <g id="line-copy-2" transform="translate(-4.000000, 16.000000)">
                <g id="zigzag-unit">
                    <path d="M5,2 L4,0 L0,8 L6,8 L7,10 L11,2 L5,2 Z M4,4 L6,8 L2,8 L4,4 Z M7,6 L5,2 L9,2 L7,6 Z" id="Combined-Shape"></path>
                </g>
                <g id="zigzag-unit" transform="translate(6.000000, 0.000000)">
                    <path d="M5,2 L4,0 L0,8 L6,8 L7,10 L11,2 L5,2 Z M4,4 L6,8 L2,8 L4,4 Z M7,6 L5,2 L9,2 L7,6 Z" id="Combined-Shape"></path>
                </g>
                <g id="zigzag-unit" transform="translate(12.000000, 0.000000)">
                    <path d="M5,2 L4,0 L0,8 L6,8 L7,10 L11,2 L5,2 Z M4,4 L6,8 L2,8 L4,4 Z M7,6 L5,2 L9,2 L7,6 Z" id="Combined-Shape"></path>
                </g>
                <g id="zigzag-unit" transform="translate(18.000000, 0.000000)">
                    <path d="M5,2 L4,0 L0,8 L6,8 L7,10 L11,2 L5,2 Z M4,4 L6,8 L2,8 L4,4 Z M7,6 L5,2 L9,2 L7,6 Z" id="Combined-Shape"></path>
                </g>
                <g id="zigzag-unit" transform="translate(24.000000, 0.000000)">
                    <path d="M5,2 L4,0 L0,8 L6,8 L7,10 L11,2 L5,2 Z M4,4 L6,8 L2,8 L4,4 Z M7,6 L5,2 L9,2 L7,6 Z" id="Combined-Shape"></path>
                </g>
                <g id="zigzag-unit" transform="translate(30.000000, 0.000000)">
                    <path d="M5,2 L4,0 L0,8 L6,8 L7,10 L11,2 L5,2 Z M4,4 L6,8 L2,8 L4,4 Z M7,6 L5,2 L9,2 L7,6 Z" id="Combined-Shape"></path>
                </g>
                <g id="zigzag-unit" transform="translate(36.000000, 0.000000)">
                    <path d="M5,2 L4,0 L0,8 L6,8 L7,10 L11,2 L5,2 Z M4,4 L6,8 L2,8 L4,4 Z M7,6 L5,2 L9,2 L7,6 Z" id="Combined-Shape"></path>
                </g>
                <g id="zigzag-unit" transform="translate(42.000000, 0.000000)">
                    <path d="M5,2 L4,0 L0,8 L6,8 L7,10 L11,2 L5,2 Z M4,4 L6,8 L2,8 L4,4 Z M7,6 L5,2 L9,2 L7,6 Z" id="Combined-Shape"></path>
                </g>
                <g id="zigzag-unit" transform="translate(48.000000, 0.000000)">
                    <path d="M5,2 L4,0 L0,8 L6,8 L7,10 L11,2 L5,2 Z M4,4 L6,8 L2,8 L4,4 Z M7,6 L5,2 L9,2 L7,6 Z" id="Combined-Shape"></path>
                </g>
            </g>
            <g id="line-copy-3" transform="translate(-4.000000, 24.000000)">
                <g id="zigzag-unit">
                    <path d="M5,2 L4,0 L0,8 L6,8 L7,10 L11,2 L5,2 Z M4,4 L6,8 L2,8 L4,4 Z M7,6 L5,2 L9,2 L7,6 Z" id="Combined-Shape"></path>
                </g>
                <g id="zigzag-unit" transform="translate(6.000000, 0.000000)">
                    <path d="M5,2 L4,0 L0,8 L6,8 L7,10 L11,2 L5,2 Z M4,4 L6,8 L2,8 L4,4 Z M7,6 L5,2 L9,2 L7,6 Z" id="Combined-Shape"></path>
                </g>
                <g id="zigzag-unit" transform="translate(12.000000, 0.000000)">
                    <path d="M5,2 L4,0 L0,8 L6,8 L7,10 L11,2 L5,2 Z M4,4 L6,8 L2,8 L4,4 Z M7,6 L5,2 L9,2 L7,6 Z" id="Combined-Shape"></path>
                </g>
                <g id="zigzag-unit" transform="translate(18.000000, 0.000000)">
                    <path d="M5,2 L4,0 L0,8 L6,8 L7,10 L11,2 L5,2 Z M4,4 L6,8 L2,8 L4,4 Z M7,6 L5,2 L9,2 L7,6 Z" id="Combined-Shape"></path>
                </g>
                <g id="zigzag-unit" transform="translate(24.000000, 0.000000)">
                    <path d="M5,2 L4,0 L0,8 L6,8 L7,10 L11,2 L5,2 Z M4,4 L6,8 L2,8 L4,4 Z M7,6 L5,2 L9,2 L7,6 Z" id="Combined-Shape"></path>
                </g>
                <g id="zigzag-unit" transform="translate(30.000000, 0.000000)">
                    <path d="M5,2 L4,0 L0,8 L6,8 L7,10 L11,2 L5,2 Z M4,4 L6,8 L2,8 L4,4 Z M7,6 L5,2 L9,2 L7,6 Z" id="Combined-Shape"></path>
                </g>
                <g id="zigzag-unit" transform="translate(36.000000, 0.000000)">
                    <path d="M5,2 L4,0 L0,8 L6,8 L7,10 L11,2 L5,2 Z M4,4 L6,8 L2,8 L4,4 Z M7,6 L5,2 L9,2 L7,6 Z" id="Combined-Shape"></path>
                </g>
                <g id="zigzag-unit" transform="translate(42.000000, 0.000000)">
                    <path d="M5,2 L4,0 L0,8 L6,8 L7,10 L11,2 L5,2 Z M4,4 L6,8 L2,8 L4,4 Z M7,6 L5,2 L9,2 L7,6 Z" id="Combined-Shape"></path>
                </g>
                <g id="zigzag-unit" transform="translate(48.000000, 0.000000)">
                    <path d="M5,2 L4,0 L0,8 L6,8 L7,10 L11,2 L5,2 Z M4,4 L6,8 L2,8 L4,4 Z M7,6 L5,2 L9,2 L7,6 Z" id="Combined-Shape"></path>
                </g>
            </g>
            <g id="line-copy-4" transform="translate(-4.000000, 32.000000)">
                <g id="zigzag-unit">
                    <path d="M5,2 L4,0 L0,8 L6,8 L7,10 L11,2 L5,2 Z M4,4 L6,8 L2,8 L4,4 Z M7,6 L5,2 L9,2 L7,6 Z" id="Combined-Shape"></path>
                </g>
                <g id="zigzag-unit" transform="translate(6.000000, 0.000000)">
                    <path d="M5,2 L4,0 L0,8 L6,8 L7,10 L11,2 L5,2 Z M4,4 L6,8 L2,8 L4,4 Z M7,6 L5,2 L9,2 L7,6 Z" id="Combined-Shape"></path>
                </g>
                <g id="zigzag-unit" transform="translate(12.000000, 0.000000)">
                    <path d="M5,2 L4,0 L0,8 L6,8 L7,10 L11,2 L5,2 Z M4,4 L6,8 L2,8 L4,4 Z M7,6 L5,2 L9,2 L7,6 Z" id="Combined-Shape"></path>
                </g>
                <g id="zigzag-unit" transform="translate(18.000000, 0.000000)">
                    <path d="M5,2 L4,0 L0,8 L6,8 L7,10 L11,2 L5,2 Z M4,4 L6,8 L2,8 L4,4 Z M7,6 L5,2 L9,2 L7,6 Z" id="Combined-Shape"></path>
                </g>
                <g id="zigzag-unit" transform="translate(24.000000, 0.000000)">
                    <path d="M5,2 L4,0 L0,8 L6,8 L7,10 L11,2 L5,2 Z M4,4 L6,8 L2,8 L4,4 Z M7,6 L5,2 L9,2 L7,6 Z" id="Combined-Shape"></path>
                </g>
                <g id="zigzag-unit" transform="translate(30.000000, 0.000000)">
                    <path d="M5,2 L4,0 L0,8 L6,8 L7,10 L11,2 L5,2 Z M4,4 L6,8 L2,8 L4,4 Z M7,6 L5,2 L9,2 L7,6 Z" id="Combined-Shape"></path>
                </g>
                <g id="zigzag-unit" transform="translate(36.000000, 0.000000)">
                    <path d="M5,2 L4,0 L0,8 L6,8 L7,10 L11,2 L5,2 Z M4,4 L6,8 L2,8 L4,4 Z M7,6 L5,2 L9,2 L7,6 Z" id="Combined-Shape"></path>
                </g>
                <g id="zigzag-unit" transform="translate(42.000000, 0.000000)">
                    <path d="M5,2 L4,0 L0,8 L6,8 L7,10 L11,2 L5,2 Z M4,4 L6,8 L2,8 L4,4 Z M7,6 L5,2 L9,2 L7,6 Z" id="Combined-Shape"></path>
                </g>
                <g id="zigzag-unit" transform="translate(48.000000, 0.000000)">
                    <path d="M5,2 L4,0 L0,8 L6,8 L7,10 L11,2 L5,2 Z M4,4 L6,8 L2,8 L4,4 Z M7,6 L5,2 L9,2 L7,6 Z" id="Combined-Shape"></path>
                </g>
            </g>
            <g id="line-copy-5" transform="translate(-4.000000, 40.000000)">
                <g id="zigzag-unit">
                    <path d="M5,2 L4,0 L0,8 L6,8 L7,10 L11,2 L5,2 Z M4,4 L6,8 L2,8 L4,4 Z M7,6 L5,2 L9,2 L7,6 Z" id="Combined-Shape"></path>
                </g>
                <g id="zigzag-unit" transform="translate(6.000000, 0.000000)">
                    <path d="M5,2 L4,0 L0,8 L6,8 L7,10 L11,2 L5,2 Z M4,4 L6,8 L2,8 L4,4 Z M7,6 L5,2 L9,2 L7,6 Z" id="Combined-Shape"></path>
                </g>
                <g id="zigzag-unit" transform="translate(12.000000, 0.000000)">
                    <path d="M5,2 L4,0 L0,8 L6,8 L7,10 L11,2 L5,2 Z M4,4 L6,8 L2,8 L4,4 Z M7,6 L5,2 L9,2 L7,6 Z" id="Combined-Shape"></path>
                </g>
                <g id="zigzag-unit" transform="translate(18.000000, 0.000000)">
                    <path d="M5,2 L4,0 L0,8 L6,8 L7,10 L11,2 L5,2 Z M4,4 L6,8 L2,8 L4,4 Z M7,6 L5,2 L9,2 L7,6 Z" id="Combined-Shape"></path>
                </g>
                <g id="zigzag-unit" transform="translate(24.000000, 0.000000)">
                    <path d="M5,2 L4,0 L0,8 L6,8 L7,10 L11,2 L5,2 Z M4,4 L6,8 L2,8 L4,4 Z M7,6 L5,2 L9,2 L7,6 Z" id="Combined-Shape"></path>
                </g>
                <g id="zigzag-unit" transform="translate(30.000000, 0.000000)">
                    <path d="M5,2 L4,0 L0,8 L6,8 L7,10 L11,2 L5,2 Z M4,4 L6,8 L2,8 L4,4 Z M7,6 L5,2 L9,2 L7,6 Z" id="Combined-Shape"></path>
                </g>
                <g id="zigzag-unit" transform="translate(36.000000, 0.000000)">
                    <path d="M5,2 L4,0 L0,8 L6,8 L7,10 L11,2 L5,2 Z M4,4 L6,8 L2,8 L4,4 Z M7,6 L5,2 L9,2 L7,6 Z" id="Combined-Shape"></path>
                </g>
                <g id="zigzag-unit" transform="translate(42.000000, 0.000000)">
                    <path d="M5,2 L4,0 L0,8 L6,8 L7,10 L11,2 L5,2 Z M4,4 L6,8 L2,8 L4,4 Z M7,6 L5,2 L9,2 L7,6 Z" id="Combined-Shape"></path>
                </g>
                <g id="zigzag-unit" transform="translate(48.000000, 0.000000)">
                    <path d="M5,2 L4,0 L0,8 L6,8 L7,10 L11,2 L5,2 Z M4,4 L6,8 L2,8 L4,4 Z M7,6 L5,2 L9,2 L7,6 Z" id="Combined-Shape"></path>
                </g>
            </g>
            <g id="line-copy-6" transform="translate(-4.000000, -8.000000)">
                <g id="zigzag-unit">
                    <path d="M5,2 L4,0 L0,8 L6,8 L7,10 L11,2 L5,2 Z M4,4 L6,8 L2,8 L4,4 Z M7,6 L5,2 L9,2 L7,6 Z" id="Combined-Shape"></path>
                </g>
                <g id="zigzag-unit" transform="translate(6.000000, 0.000000)">
                    <path d="M5,2 L4,0 L0,8 L6,8 L7,10 L11,2 L5,2 Z M4,4 L6,8 L2,8 L4,4 Z M7,6 L5,2 L9,2 L7,6 Z" id="Combined-Shape"></path>
                </g>
                <g id="zigzag-unit" transform="translate(12.000000, 0.000000)">
                    <path d="M5,2 L4,0 L0,8 L6,8 L7,10 L11,2 L5,2 Z M4,4 L6,8 L2,8 L4,4 Z M7,6 L5,2 L9,2 L7,6 Z" id="Combined-Shape"></path>
                </g>
                <g id="zigzag-unit" transform="translate(18.000000, 0.000000)">
                    <path d="M5,2 L4,0 L0,8 L6,8 L7,10 L11,2 L5,2 Z M4,4 L6,8 L2,8 L4,4 Z M7,6 L5,2 L9,2 L7,6 Z" id="Combined-Shape"></path>
                </g>
                <g id="zigzag-unit" transform="translate(24.000000, 0.000000)">
                    <path d="M5,2 L4,0 L0,8 L6,8 L7,10 L11,2 L5,2 Z M4,4 L6,8 L2,8 L4,4 Z M7,6 L5,2 L9,2 L7,6 Z" id="Combined-Shape"></path>
                </g>
                <g id="zigzag-unit" transform="translate(30.000000, 0.000000)">
                    <path d="M5,2 L4,0 L0,8 L6,8 L7,10 L11,2 L5,2 Z M4,4 L6,8 L2,8 L4,4 Z M7,6 L5,2 L9,2 L7,6 Z" id="Combined-Shape"></path>
                </g>
                <g id="zigzag-unit" transform="translate(36.000000, 0.000000)">
                    <path d="M5,2 L4,0 L0,8 L6,8 L7,10 L11,2 L5,2 Z M4,4 L6,8 L2,8 L4,4 Z M7,6 L5,2 L9,2 L7,6 Z" id="Combined-Shape"></path>
                </g>
                <g id="zigzag-unit" transform="translate(42.000000, 0.000000)">
                    <path d="M5,2 L4,0 L0,8 L6,8 L7,10 L11,2 L5,2 Z M4,4 L6,8 L2,8 L4,4 Z M7,6 L5,2 L9,2 L7,6 Z" id="Combined-Shape"></path>
                </g>
            </g>
        </g>
    </g>
</svg>