<?xml version="1.0" standalone="no"?>
<!DOCTYPE svg PUBLIC "-//W3C//DTD SVG 1.1//EN" "http://www.w3.org/Graphics/SVG/1.1/DTD/svg11.dtd" >
<svg xmlns="http://www.w3.org/2000/svg">
<metadata></metadata>
<defs>
<font id="permianseriftypefaceregular" horiz-adv-x="1429" >
<font-face units-per-em="2048" ascent="1536" descent="-512" />
<missing-glyph horiz-adv-x="481" />
<glyph unicode="&#xfb01;" horiz-adv-x="1388" d="M-18 0v63l163 23l172 846h-174v92h193l12 61q42 208 163.5 335.5t262.5 127.5q69 0 149.5 -18.5t98.5 -20.5l-39 -166q-47 10 -88 38.5t-74 51.5t-67 23q-81 0 -127 -78t-76 -233q-6 -34 -25 -121h422l226 20l40 -10l-198 -934l252 170v-100l-178 -119 q-31 -21 -45.5 -30.5t-48.5 -22t-66 -12.5q-51 0 -84 41t-17 112l172 793h-493l-172 -846l225 -23v-63h-579zM1036 1350q0 53 34 93t97 40q52 0 78.5 -30t26.5 -75q0 -64 -33.5 -105.5t-89.5 -41.5q-49 0 -81 32.5t-32 86.5z" />
<glyph unicode="&#xfb02;" horiz-adv-x="1374" d="M-18 0v63l163 23l172 846h-174v92h193l6 29q26 132 88 243t157.5 181.5t203.5 70.5q64 0 143 -19.5t121 -19.5q127 0 248 64l40 -10l-307 -1436l248 164v-121l-178 -119q-31 -21 -45.5 -30.5t-48.5 -22t-66 -12.5q-51 0 -83.5 41t-16.5 112l264 1233q-46 -24 -100 -24 q-40 0 -75.5 17t-57.5 37t-55 37t-68 17q-83 0 -129.5 -87.5t-85.5 -285.5l-13 -59h271v-92h-289l-172 -846l225 -23v-63h-579z" />
<glyph horiz-adv-x="0" />
<glyph horiz-adv-x="682" />
<glyph unicode=" "  horiz-adv-x="481" />
<glyph unicode="&#x09;" horiz-adv-x="481" />
<glyph unicode="&#xa0;" horiz-adv-x="481" />
<glyph unicode="!" horiz-adv-x="567" d="M63 88q0 52 34.5 92.5t97.5 40.5q48 0 80 -32.5t32 -86.5q0 -53 -34 -93t-97 -40q-49 0 -81 32.5t-32 86.5zM184 410l148 1026l215 10l-254 -1036h-109z" />
<glyph unicode="&#x22;" horiz-adv-x="757" d="M219 948l33 488l215 10l-139 -498h-109zM547 948l33 488l215 10l-140 -498h-108z" />
<glyph unicode="#" horiz-adv-x="1531" d="M68 293v151h274l190 340h-296v152h380l156 276h168l-156 -276h326l156 276h168l-156 -276h188v-152h-272l-188 -340h292v-151h-378l-164 -293h-170l166 293h-326l-164 -293h-170l166 293h-190zM512 444h324l190 340h-326z" />
<glyph unicode="$" horiz-adv-x="1048" d="M-2 49l63 320h62v-258q103 -33 235 -33q97 0 176 29t130 92.5t51 150.5q0 60 -29 108.5t-75.5 82t-102.5 64.5t-112.5 63.5t-103 70t-75.5 92.5t-29 123q0 166 124.5 281t322.5 137l41 297q83 28 160 0l-70 -295q82 -4 152.5 -23.5t100.5 -36.5l30 -18l-78 -325h-78 l18 254q-95 45 -229 45q-130 0 -212.5 -65t-82.5 -185q0 -42 18 -79t48.5 -65t70 -54t83.5 -50.5t88 -49.5t83.5 -55t70 -64.5t48.5 -80.5t18 -100q0 -174 -123 -292t-323 -148l-39 -295q-80 -28 -160 0l68 284q-64 0 -122.5 8t-96.5 19.5t-66.5 23t-41.5 19.5z" />
<glyph unicode="%" horiz-adv-x="1947" d="M166 1018q0 82 29 160t83 142t142 103t196 39q162 0 248 -90t86 -235q0 -186 -125 -312.5t-323 -126.5q-149 0 -242.5 81.5t-93.5 238.5zM360 1016q0 -88 38.5 -148.5t121.5 -60.5q107 0 169.5 96.5t62.5 231.5q0 91 -40 155t-120 64q-113 0 -172.5 -94t-59.5 -244z M373 0l1028 1434h198l-1026 -1434h-200zM1038 299q0 82 29 160t83.5 142t142.5 103t196 39q162 0 248 -90t86 -235q0 -186 -125.5 -312t-323.5 -126q-149 0 -242.5 81t-93.5 238zM1233 297q0 -88 38.5 -148.5t121.5 -60.5q107 0 169 96.5t62 231.5q0 91 -40 155t-120 64 q-112 0 -171.5 -94t-59.5 -244z" />
<glyph unicode="&#x26;" horiz-adv-x="1456" d="M55 293q0 133 85 237t261 199q-58 89 -90 166t-32 170q0 166 119.5 281.5t303.5 115.5q168 0 251 -74t83 -194q0 -53 -19 -101.5t-50 -89t-86.5 -86.5t-112.5 -85t-145 -93l88 -129q126 -190 196 -278q148 166 258 432l-192 29v63h446v-63l-147 -29q-122 -295 -309 -502 q164 -196 284 -196h41v-66h-100q-199 0 -352 143q-204 -163 -424 -163q-160 0 -258.5 84.5t-98.5 228.5zM250 336q0 -118 58 -179t157 -61q157 0 307 111q-38 43 -73 90.5t-90 130.5t-68 102l-97 140l-6 6q-89 -65 -138.5 -158t-49.5 -182zM471 1110q0 -86 28.5 -158 t82.5 -153q266 188 266 372q0 89 -42 139t-116 50q-101 0 -160 -73.5t-59 -176.5z" />
<glyph unicode="'" horiz-adv-x="430" d="M219 948l33 488l215 10l-139 -498h-109z" />
<glyph unicode="(" horiz-adv-x="657" d="M51 283q0 155 30 305t94 295.5t157.5 271t227.5 231t296 175.5l27 -52q-165 -91 -291.5 -230t-201.5 -300.5t-112.5 -330.5t-37.5 -339q0 -494 276 -770l-35 -51q-209 128 -319.5 334.5t-110.5 460.5z" />
<glyph unicode=")" horiz-adv-x="661" d="M-248 -461q165 91 291.5 230t201.5 300.5t112.5 330.5t37.5 339q0 494 -276 770l35 52q209 -128 319.5 -334.5t110.5 -460.5q0 -155 -30 -305t-94 -295.5t-157.5 -271t-227.5 -231t-296 -175.5z" />
<glyph unicode="*" horiz-adv-x="1101" d="M227 1448q18 46 61.5 58t98.5 -21l197 -131l63 39v268q0 53 30.5 89t84.5 36t69.5 -39.5t-6.5 -85.5l-112 -264l45 -43l246 133q59 30 99 19.5t52 -58.5q12 -46 -22 -79.5t-97 -39.5l-264 -35l-39 -71l144 -164q39 -49 32 -90t-51 -66q-44 -26 -83 -4t-54 84l-49 199h-78 l-148 -228q-23 -36 -53.5 -53.5t-57 -15.5t-44.5 18q-19 17 -26.5 42t6 57.5t51.5 60.5l231 164l-8 69l-232 35q-54 7 -77.5 41t-8.5 76z" />
<glyph unicode="+" horiz-adv-x="1038" d="M94 518v131h361l67 357h144l-68 -357h338v-131h-365l-67 -354h-144l68 354h-334z" />
<glyph unicode="," horiz-adv-x="497" d="M-45 -305q165 126 217 280q-54 -10 -91.5 20.5t-37.5 96.5q0 56 36 92.5t95 36.5q48 0 80.5 -33t32.5 -90q0 -128 -81 -248.5t-206 -209.5z" />
<glyph unicode="-" horiz-adv-x="915" d="M158 516v141l596 21v-141z" />
<glyph unicode="." horiz-adv-x="491" d="M41 88q0 53 34 93t97 40q49 0 81 -32.5t32 -86.5q0 -53 -34 -93t-97 -40q-49 0 -81 32.5t-32 86.5z" />
<glyph unicode="/" horiz-adv-x="823" d="M-139 -356l882 1790h168l-880 -1790h-170z" />
<glyph unicode="0" horiz-adv-x="1224" d="M117 473q0 82 12.5 173t39 186.5t64.5 185t93 169t120 139t149.5 94t178.5 34.5q101 0 175.5 -39t117 -108.5t62.5 -156t20 -192.5q0 -82 -12.5 -172.5t-39.5 -186t-65.5 -184.5t-93.5 -168.5t-120.5 -138.5t-150 -93.5t-178.5 -34.5q-81 0 -144.5 26t-106 70.5 t-70 107.5t-39.5 134.5t-12 154.5zM326 467q0 -201 41 -293t151 -92q112 0 209 122t153 324t56 430q0 199 -43 296.5t-152 97.5q-87 0 -165 -75t-132 -198t-86 -283.5t-32 -328.5z" />
<glyph unicode="1" horiz-adv-x="755" d="M139 1266l510 180h53l-280 -1446h-201l246 1266l-307 -62z" />
<glyph unicode="2" horiz-adv-x="1009" d="M-29 0v61q226 225 367.5 383t224.5 281t113.5 212.5t30.5 182.5q0 92 -60.5 144.5t-165.5 52.5q-81 0 -154 -18t-106 -36l-33 -18v76q7 5 20 14t54.5 32t84 40.5t104 32t118.5 14.5q161 0 255 -85t94 -228q0 -79 -19 -153t-65 -153t-99.5 -149.5t-146.5 -165.5 t-179.5 -176t-224.5 -205l672 43l-10 -182h-875z" />
<glyph unicode="3" horiz-adv-x="1040" d="M-10 115l28 65q14 -8 39.5 -19t96.5 -29.5t135 -18.5q186 0 292.5 95.5t106.5 248.5q0 266 -366 266l20 80q196 9 309 96.5t113 222.5q0 100 -65 147.5t-177 47.5q-71 0 -137.5 -18.5t-97.5 -36.5l-31 -19v78q7 5 19 14t52 32t82 40.5t104.5 32t123.5 14.5 q155 0 244.5 -77.5t89.5 -211.5q0 -138 -105 -246t-286 -147q148 -21 229.5 -102.5t81.5 -218.5q0 -90 -39 -175t-107 -150.5t-168 -105.5t-215 -40q-73 0 -138 14t-106 34t-71.5 39.5t-43.5 33.5z" />
<glyph unicode="4" horiz-adv-x="1118" d="M-8 420l858 1055l160 -33l-189 -977l191 4l-15 -143h-204l-35 -185q-8 -42 -15 -89.5t-9 -73.5l-3 -27h-203l72 375h-571zM176 455l451 8l112 577q9 46 20.5 95.5t18.5 75.5l8 26h-6q-43 -82 -121 -178z" />
<glyph unicode="5" horiz-adv-x="1046" d="M2 123l25 49q12 -7 35 -17t98.5 -27t156.5 -17q176 0 277.5 83t101.5 232q0 334 -495 334l155 674h674l-18 -183l-566 37l-90 -387q278 -10 413.5 -122t135.5 -312q0 -101 -34.5 -188.5t-100 -154.5t-167.5 -105.5t-228 -38.5t-226.5 44.5t-146.5 98.5z" />
<glyph unicode="6" horiz-adv-x="1103" d="M104 469q8 163 47 303.5t116 263t187.5 210.5t269.5 142t355 62v-82q-128 -8 -235 -41.5t-186 -86t-140 -126t-101 -156t-65 -180.5q13 13 31.5 26.5t52 32t83 30.5t104.5 12q163 0 264 -104.5t92 -291.5q-5 -99 -40 -188.5t-97 -160t-157.5 -112.5t-211.5 -42 q-122 0 -208.5 64.5t-126.5 174t-34 250.5zM311 481q-3 -57 1 -111.5t17.5 -107t36.5 -91.5t60 -63t84 -24q76 0 135.5 54.5t91 139t35.5 183.5q6 136 -51.5 213.5t-171.5 77.5q-134 0 -219 -80q-16 -99 -19 -191z" />
<glyph unicode="7" horiz-adv-x="892" d="M72 14q150 325 356 680.5t401 612.5l-653 -45l12 172h818v-54q-370 -561 -750 -1415z" />
<glyph unicode="8" horiz-adv-x="1116" d="M78 326q0 262 352 424q-90 72 -139 147.5t-49 181.5q0 171 125.5 273t320.5 102q166 0 263.5 -79t97.5 -214q0 -63 -28.5 -123t-77.5 -107.5t-103.5 -84.5t-116.5 -66q52 -39 88.5 -73t73 -81.5t55 -106t18.5 -126.5q0 -175 -134 -295.5t-343 -120.5q-187 0 -295 93 t-108 256zM274 352q0 -127 57 -197.5t163 -70.5q115 0 190.5 75t75.5 201q0 37 -8.5 70t-28.5 63.5t-37.5 52.5t-52.5 51t-55 44t-62 45q-9 7 -14 10q-126 -68 -177 -152t-51 -192zM442 1133q0 -49 15.5 -91.5t48 -80t63 -64t80.5 -63.5q102 66 150.5 134.5t48.5 166.5 q0 113 -51 165t-150 52q-97 0 -151 -59.5t-54 -159.5z" />
<glyph unicode="9" horiz-adv-x="1103" d="M63 -20v81q582 33 725 590q-19 -19 -45 -37.5t-89 -40.5t-134 -22q-163 0 -264 104t-92 291q5 99 40 188.5t97 160.5t157.5 113t211.5 42q122 0 208.5 -64.5t126 -174t33.5 -250.5q-8 -163 -47 -303.5t-116 -263t-187.5 -210.5t-269.5 -142t-355 -62zM371 969 q-6 -136 51.5 -213.5t171.5 -77.5q134 0 217 78q14 85 20 192q4 73 -4 140t-29 126.5t-63.5 95.5t-101.5 36q-76 0 -135.5 -54.5t-91 -139t-35.5 -183.5z" />
<glyph unicode=":" horiz-adv-x="548" d="M63 88q0 52 34.5 92.5t97.5 40.5q48 0 80 -32.5t32 -86.5q0 -53 -34 -93t-97 -40q-49 0 -81 32.5t-32 86.5zM209 903q0 53 34 93t97 40q49 0 81 -32t32 -86q0 -53 -34 -93.5t-97 -40.5q-49 0 -81 32.5t-32 86.5z" />
<glyph unicode=";" horiz-adv-x="591" d="M-27 -305q165 126 217 280q-54 -10 -91.5 20.5t-37.5 96.5q0 56 36.5 92.5t95.5 36.5q48 0 80 -33t32 -90q0 -128 -81 -248.5t-206 -209.5zM252 903q0 53 34 93t97 40q49 0 81 -32t32 -86q0 -53 -34 -93.5t-97 -40.5q-49 0 -81 32.5t-32 86.5z" />
<glyph unicode="&#x3c;" horiz-adv-x="890" d="M82 596v18l557 410h213l-588 -434l383 -486h-174z" />
<glyph unicode="=" horiz-adv-x="1249" d="M197 311v142h841v-142h-841zM197 700v142h841v-142h-841z" />
<glyph unicode="&#x3e;" horiz-adv-x="884" d="M18 102l588 435l-383 485h174l391 -492v-18l-557 -410h-213z" />
<glyph unicode="?" horiz-adv-x="882" d="M215 94q0 53 34 93t97 40q49 0 81 -32t32 -86q0 -53 -34 -93.5t-97 -40.5q-49 0 -81 32.5t-32 86.5zM217 555q0 59 25 110.5t64.5 91t88 76.5t96.5 73.5t87.5 74.5t64.5 86.5t25 103.5q0 170 -209 170q-62 0 -120.5 -12.5t-86.5 -24.5l-27 -12v82q5 4 14.5 9.5t42 21 t69 27t94 21t118.5 9.5q156 0 233.5 -76.5t77.5 -195.5q0 -64 -25.5 -122t-66 -102t-90 -84.5t-99 -76.5t-90 -70.5t-66 -74.5t-25.5 -80q0 -47 36.5 -59t83.5 20l41 -62q-109 -78 -198 -78q-69 0 -113.5 41t-44.5 113z" />
<glyph unicode="@" horiz-adv-x="1798" d="M51 205q0 171 44.5 329.5t132 292t209.5 233.5t286 156t352 56q126 0 233 -38t190.5 -112.5t131 -195.5t47.5 -277q0 -153 -66.5 -308t-181 -258t-239.5 -103q-154 0 -195 129q-3 -5 -10 -14t-30.5 -31t-51 -39t-72 -31t-92.5 -14q-131 0 -205.5 96.5t-74.5 261.5 q0 71 17.5 145.5t54.5 146t88.5 127.5t126.5 90t161 34q61 0 112.5 -19t72.5 -38l22 -19l162 86h22l-122 -713q-8 -33 5.5 -60.5t47.5 -27.5q72 0 129.5 76.5t87 192.5t29.5 243q0 258 -128 403.5t-354 145.5q-139 0 -260 -51.5t-207 -139.5t-148 -203t-92 -244t-30 -261 q0 -116 25 -208t77 -162t138.5 -108t203.5 -38q60 0 115 8l-8 -94q-95 -15 -178 -15q-285 0 -431.5 150t-146.5 420zM659 340q0 -102 40 -166.5t108 -64.5q32 0 62.5 10t51.5 24t37 28t24 24l7 10l84 485l-5 7.5t-15.5 15.5t-27 20t-39.5 16t-52 7q-127 0 -201 -117 t-74 -299z" />
<glyph unicode="A" horiz-adv-x="1292" d="M-100 0v63l149 27l658 1346l170 12l194 -1358l146 -27v-63h-498v63l143 27l-45 336h-477l-49 -109q-52 -112 -88 -227l170 -27v-63h-473zM389 528h414l-70 525l-18 182h-8q-25 -80 -70 -176z" />
<glyph unicode="B" horiz-adv-x="1253" d="M4 0v63l164 27l225 1253l-162 27v64h471q222 0 334.5 -81.5t112.5 -226.5q0 -134 -91 -235t-214 -131l-2 -6q125 -19 204.5 -99.5t79.5 -195.5q0 -111 -49 -200t-133 -144.5t-191.5 -85t-230.5 -29.5h-518zM373 102h164q173 0 279 91.5t106 244.5q0 121 -68.5 189.5 t-200.5 68.5h-176zM496 799h229q101 38 157 117.5t56 181.5q0 233 -268 233h-80z" />
<glyph unicode="C" horiz-adv-x="1212" d="M113 528q0 129 35 261.5t104.5 252.5t163.5 214t223 150t272 56q59 0 115 -8.5t94 -20.5t67.5 -24t43.5 -21l14 -8l-63 -295h-80l4 222q-88 59 -215 59q-109 0 -211.5 -64t-179.5 -173.5t-123.5 -265t-46.5 -328.5q0 -205 103 -335t284 -130q54 0 143 26l103 258h86 l-66 -303q-5 -3 -14 -8.5t-40 -19.5t-64.5 -24.5t-85.5 -19t-105 -8.5q-178 0 -307 76.5t-191.5 201t-62.5 279.5z" />
<glyph unicode="D" horiz-adv-x="1417" d="M4 0v63l164 27l225 1253l-162 27v64h496q151 0 270 -40.5t194.5 -113.5t115 -172.5t39.5 -220.5q0 -249 -112.5 -452t-311 -319t-441.5 -116h-477zM373 102h143q168 0 308.5 97t223 271t82.5 388q0 226 -113.5 349.5t-340.5 123.5h-86z" />
<glyph unicode="E" horiz-adv-x="1148" d="M4 63l164 27l225 1253l-162 27v64h938l-61 -349h-84l2 234l-436 12l-96 -547h399l-23 -125l-395 23l-102 -580l450 9l109 243h84l-80 -354h-930z" />
<glyph unicode="F" horiz-adv-x="1093" d="M4 63l164 27l225 1253l-162 27v64h938l-61 -349h-84l2 234l-436 12l-105 -588h402l-23 -125l-397 21l-98 -549l184 -27v-63h-547z" />
<glyph unicode="G" horiz-adv-x="1349" d="M115 528q0 143 36 279.5t108 254.5t172 207.5t236 141t291 51.5q89 0 171.5 -20.5t120.5 -41.5l38 -20l-63 -295h-74v220q-111 61 -217 61q-99 0 -187 -36t-152.5 -98t-115.5 -141t-82.5 -168t-48 -176.5t-16.5 -168.5q0 -240 102 -374t258 -134q91 0 166 22l84 440 l-201 29v64h549v-64l-147 -29l-92 -495q-21 -7 -57.5 -18t-133.5 -29.5t-176 -18.5q-119 0 -217 33t-162 88t-108 128t-63 150t-19 158z" />
<glyph unicode="H" horiz-adv-x="1546" d="M4 0v63l164 27l225 1253l-162 27l2 64h529l-2 -64l-166 -27l-100 -555h622l101 555l-162 27l2 64h528l-2 -64l-166 -27l-225 -1253l162 -27l-2 -63h-529l2 63l166 27l107 596h-623l-106 -596l161 -27l-2 -63h-524z" />
<glyph unicode="I" horiz-adv-x="722" d="M4 0v63l164 27l225 1253l-162 27v64h529v-64l-166 -27l-225 -1253l161 -27v-63h-526z" />
<glyph unicode="J" horiz-adv-x="692" d="M-76 -289l105 119q68 76 94 142t49 190l211 1181l-162 27v64h529v-64l-166 -27l-193 -1075q-25 -145 -78 -241q-13 -24 -27 -46.5t-33 -46.5t-31.5 -40.5t-38 -42.5t-36.5 -38t-42 -41t-39.5 -37.5t-45 -41.5t-43.5 -39z" />
<glyph unicode="K" horiz-adv-x="1316" d="M4 0v63l164 27l225 1253l-162 27v64h519v-64l-156 -27l-98 -546h151l426 546l-127 27v64h438v-64l-153 -27l-477 -557l385 -706l96 -17v-63h-277l-372 694h-109l-108 -604l161 -27l-2 -63h-524z" />
<glyph unicode="L" horiz-adv-x="1101" d="M4 0v63l164 27l225 1253l-162 27v64h529v-64l-166 -27l-221 -1241l452 9l109 243h84l-80 -354h-934z" />
<glyph unicode="M" horiz-adv-x="1798" d="M6 0v63l164 35l223 1245l-162 27v64h406l207 -820q7 -29 13 -64.5t9 -55.5l2 -21h6q29 61 74 135l510 826h377v-64l-166 -27l-223 -1249l160 -31v-63h-516v63l167 31l170 961q8 45 20 102t20 91l8 34h-7q-59 -123 -110 -205l-547 -872h-41l-225 876q-16 59 -27.5 111.5 t-15.5 75.5l-4 22h-6q-4 -81 -33 -241l-170 -951l160 -35v-63h-443z" />
<glyph unicode="N" horiz-adv-x="1513" d="M-8 0v63l164 33l215 1213l-41 73v52l182 8l514 -969q16 -31 34 -71t28 -64l10 -25l8 2q8 95 24 179l150 839l-158 37v64h447v-64l-170 -37l-236 -1333l-82 -14l-542 1020l-78 161l-6 -2q-7 -90 -25 -184l-156 -885l160 -33v-63h-442z" />
<glyph unicode="O" d="M113 500q0 104 21 214t61 217.5t103 203t141.5 169t182.5 116t220 42.5q243 0 378.5 -143.5t135.5 -384.5q0 -104 -21 -214t-61 -218t-103 -203.5t-141.5 -169t-182.5 -116t-220 -42.5q-242 0 -378 143.5t-136 385.5zM330 535q0 -135 31.5 -237t104 -166t179.5 -64 q99 0 192 74t158.5 191.5t104.5 267.5t39 298q0 135 -32 237.5t-104.5 166t-179.5 63.5q-134 0 -249.5 -125t-179.5 -315.5t-64 -390.5z" />
<glyph unicode="P" horiz-adv-x="1206" d="M4 0v63l164 27l225 1253l-162 27v64h504q228 0 350.5 -91t122.5 -264q0 -153 -80.5 -270.5t-218 -179.5t-307.5 -62h-147l-86 -477l204 -27v-63h-569zM473 670h148q77 0 145 25t120 72t82.5 120.5t30.5 163.5q0 280 -311 280h-98z" />
<glyph unicode="Q" d="M113 500q0 104 21 214t61 217.5t103 203t141.5 169t182.5 116t220 42.5q243 0 378.5 -143.5t135.5 -384.5q0 -128 -32 -264t-91.5 -262t-155 -229.5t-211.5 -155.5q55 -47 84 -91l113 -172q48 -73 90.5 -95.5t108.5 -22.5v-64h-123q-107 0 -171.5 29t-123.5 123l-154 245 q-40 -4 -63 -4q-242 0 -378 143.5t-136 385.5zM330 535q0 -135 31.5 -237t104 -166t179.5 -64q99 0 192 74t158.5 191.5t104.5 267.5t39 298q0 135 -32 237.5t-104.5 166t-179.5 63.5q-134 0 -249.5 -125t-179.5 -315.5t-64 -390.5z" />
<glyph unicode="R" horiz-adv-x="1302" d="M-4 0v63l174 27l223 1253l-160 27v64h504q234 0 353.5 -93.5t119.5 -275.5q0 -87 -34 -161t-92.5 -125.5t-128.5 -86.5t-150 -53l338 -567l71 -13v-59h-253l-347 604h-153l-90 -514l202 -27v-63h-577zM479 707h148q165 0 271 96t106 258q0 270 -314 270h-98z" />
<glyph unicode="S" horiz-adv-x="1050" d="M45 51l76 303h78v-245q94 -31 229 -31q128 0 211.5 69t83.5 187q0 51 -11 92.5t-28 72t-51 63.5t-65 56.5t-85 59.5q-118 81 -153 111q-124 108 -136 246q-1 16 -1 32q0 78 34 149t96 126t156.5 87.5t206.5 32.5q67 0 126 -9t96 -22t65 -26t39 -22l12 -9l-76 -289h-80 v222q-93 49 -198 49q-131 0 -212 -67t-81 -179q0 -41 11 -75t27.5 -60t52 -58t67 -55t90.5 -63q41 -28 60 -41.5t55.5 -42.5t55 -50t44 -54.5t38 -66t22 -75.5t9.5 -90q0 -179 -127.5 -293.5t-369.5 -114.5q-104 0 -195.5 20t-131.5 40z" />
<glyph unicode="T" horiz-adv-x="1212" d="M135 1085l60 349h1114l-60 -349h-94v230l-321 18l-222 -1243l162 -27l-2 -63h-528l2 63l166 27l221 1243l-326 -18l-96 -230h-76z" />
<glyph unicode="U" d="M203 1370v64h528v-64l-168 -29l-147 -827q-15 -81 -15 -148q1 -102 35 -171q56 -115 217 -115q93 0 162 32t115 94.5t74 141.5t47 187l145 806l-170 29v64h477v-64l-168 -29l-135 -759q-13 -69 -26.5 -124.5t-37.5 -121t-53 -115.5t-72.5 -99t-97 -80.5t-126.5 -51 t-160 -19.5q-255 1 -356 149q-69 101 -69 259q0 74 15 160l145 804z" />
<glyph unicode="V" horiz-adv-x="1302" d="M111 1370v64h497v-64l-143 -27l145 -950l21 -182h8q23 80 68 176l348 729q24 53 45.5 109.5t31.5 86.5l9 31l-170 27v64h473v-64l-150 -27l-659 -1345l-162 -12l-217 1357z" />
<glyph unicode="W" horiz-adv-x="1884" d="M115 1370v64h530v-64l-174 -27l74 -888q4 -60 6 -122t2 -94v-32h8q25 106 76 239l377 988l164 10l77 -1008q3 -60 5 -119q1 -35 1 -60v-29l-1 -29h8q29 100 86 235l288 686q23 54 42.5 109.5t27.5 84.5l8 29l-161 27v64h462v-64l-137 -27q-122 -241 -196 -411l-404 -932 l-186 -12l-74 944q-4 53 -6 110t-2 88v31h-8q-33 -119 -74 -225l-356 -936l-183 -12l-127 1355z" />
<glyph unicode="X" horiz-adv-x="1347" d="M-78 0v63l141 33l533 606l-299 639l-141 29v64h542v-64l-180 -27l225 -514q39 54 109 140l166 205q31 38 56.5 78t35.5 60l10 21l-151 37v64h479v-64l-145 -31l-512 -591l313 -658l143 -27v-63h-540v63l184 27l-248 533q-34 -60 -104 -142l-189 -221q-31 -36 -58.5 -77 t-39.5 -64l-12 -23l157 -33v-63h-475z" />
<glyph unicode="Y" horiz-adv-x="1247" d="M104 1370v64h494v-64l-158 -27l183 -456q13 -33 28 -78t24 -73l9 -29h8q47 78 119 184l195 289q25 37 46 76t30 59l8 20l-136 35v64h432v-64l-137 -31l-508 -727l-94 -522l162 -27l-2 -63h-528l2 63l165 27l95 522l-299 731z" />
<glyph unicode="Z" horiz-adv-x="1089" d="M-12 0v51l860 1276l-463 -16l-84 -224h-84l59 347h818v-52l-865 -1278l547 19l98 231h78l-73 -354h-891z" />
<glyph unicode="[" horiz-adv-x="612" d="M-4 -489l354 2015h365l-19 -105h-204l-318 -1806h205l-19 -104h-364z" />
<glyph unicode="\" horiz-adv-x="915" d="M160 1434h168l536 -1790h-170z" />
<glyph unicode="]" horiz-adv-x="614" d="M-129 -489l18 104h203l318 1806h-205l18 105h365l-355 -2015h-362z" />
<glyph unicode="^" horiz-adv-x="956" d="M41 1092l420 464h35l419 -464h-192l-246 284l-246 -284h-190z" />
<glyph unicode="_" horiz-adv-x="1036" d="M-111 -225h942v-129h-942v129z" />
<glyph unicode="`" horiz-adv-x="638" d="M121 1569l151 100l222 -420l-70 -47z" />
<glyph unicode="a" horiz-adv-x="1150" d="M68 287q0 201 77 376t207 278t279 103q140 0 233 -75l105 67l41 -10l-199 -924l254 168v-100l-178 -119q-31 -21 -45.5 -30.5t-48.5 -22t-66 -12.5q-51 0 -83 41q-22 27 -22 68q0 20 5 44l10 47l-135 -100q-69 -53 -122 -74.5t-110 -21.5q-86 0 -144 74.5t-58 222.5z M274 317q0 -186 86 -186q49 0 113 45l191 137l112 525q-50 120 -149 120q-96 0 -179 -99.5t-128.5 -246.5t-45.5 -295z" />
<glyph unicode="b" horiz-adv-x="1097" d="M47 -20l318 1482l-166 17v63l338 31l41 -10l-156 -723l143 106q69 53 122 74.5t110 21.5q86 0 144 -74.5t58 -222.5q0 -201 -77 -376t-207 -278t-279 -103q-150 0 -252 88l-94 -96h-43zM285 203q53 -129 155 -129q96 0 179 99.5t128.5 246.5t45.5 295q0 186 -86 186 q-49 0 -113 -45l-199 -143z" />
<glyph unicode="c" horiz-adv-x="884" d="M78 379q0 118 37.5 236.5t102 214t159.5 155t201 59.5q74 0 155.5 -21t102.5 -24l-54 -163q-38 10 -70 31t-49.5 39t-44 32t-57.5 14q-80 0 -145.5 -91t-99 -219t-33.5 -255q0 -147 35.5 -216t109.5 -69q52 0 93 17.5t91 56.5l125 96v-104l-94 -72q-75 -58 -137.5 -87 t-130.5 -29q-141 0 -219 105t-78 294z" />
<glyph unicode="d" horiz-adv-x="1173" d="M68 287q0 201 77 376t207 278t279 103q100 0 184 -43l100 463l-165 17v63l337 31l41 -10l-311 -1456l252 163v-100l-178 -119q-31 -21 -45.5 -30.5t-48.5 -22t-66 -12.5q-51 0 -83 41q-22 27 -22 68q0 20 5 44l10 49l-139 -104q-69 -53 -122 -74.5t-110 -21.5 q-86 0 -144 74.5t-58 222.5zM274 317q0 -186 86 -186q49 0 113 45l195 141l110 517q-50 124 -151 124q-96 0 -179 -99.5t-128.5 -246.5t-45.5 -295z" />
<glyph unicode="e" horiz-adv-x="944" d="M76 356q0 190 77 349.5t203.5 249t270.5 89.5q125 0 193.5 -59t68.5 -143q0 -195 -305 -301l-301 -103q-2 -20 -2 -57q0 -137 43.5 -208t113.5 -71q52 0 93.5 18t91.5 56l125 96v-104l-95 -72q-77 -59 -139 -88q-60 -28 -125 -28h-4q-142 0 -225.5 102t-83.5 274z M293 535l149 57q125 47 180.5 105.5t55.5 142.5q0 51 -30 80.5t-73 29.5q-69 0 -129 -61t-97.5 -152.5t-55.5 -201.5z" />
<glyph unicode="f" horiz-adv-x="786" d="M-18 0v63l163 23l172 846h-174v92h193l6 29q26 132 88 243t157.5 181.5t203.5 70.5q59 0 144.5 -17.5t119.5 -21.5l-39 -166q-50 7 -97.5 35.5t-87.5 53t-77 24.5q-83 0 -129.5 -87.5t-85.5 -285.5l-13 -59h271v-92h-289l-172 -846l225 -23v-63h-579z" />
<glyph unicode="g" horiz-adv-x="1095" d="M-100 -428l67 172q51 -18 105.5 -51.5t90.5 -60.5t80.5 -47.5t84.5 -20.5q86 0 153 87t103 259l59 280l-141 -104q-69 -53 -122 -74.5t-110 -21.5q-86 0 -144 74.5t-58 222.5q0 201 77 376t207 278t279 103q144 0 243 -83l99 71l41 -10l-223 -1032q-24 -111 -64.5 -203 t-98 -164t-137 -112.5t-174.5 -40.5q-58 0 -115.5 10t-95 22.5t-102 35t-104.5 34.5zM274 317q0 -186 86 -186q49 0 113 45l197 141l108 517q-50 124 -151 124q-96 0 -179 -99.5t-128.5 -246.5t-45.5 -295z" />
<glyph unicode="h" horiz-adv-x="1144" d="M51 0l314 1462l-166 17v63l338 31l41 -10l-154 -717l215 145q75 53 147 53q110 0 152 -84q25 -50 25 -117q0 -45 -11 -98l-137 -641l254 166v-100l-178 -119q-31 -21 -45.5 -30.5t-48.5 -22t-66 -12.5q-51 0 -83 40q-21 27 -20 67q0 20 5 44l133 627q6 28 6 51 q0 48 -28 71q-16 13 -40 13q-37 0 -90 -33l-215 -139l-155 -727h-193z" />
<glyph unicode="i" horiz-adv-x="667" d="M109 139l172 795l-166 16v64l338 30l41 -10l-199 -934l252 170v-100l-178 -119q-31 -21 -45.5 -30.5t-48.5 -22t-66 -12.5q-51 0 -83 41q-22 27 -22 68q0 21 5 44zM315 1350q0 53 34 93t97 40q49 0 81 -32.5t32 -86.5q0 -53 -34 -93t-97 -40q-49 0 -81 32.5t-32 86.5z " />
<glyph unicode="j" horiz-adv-x="575" d="M-453 -487l41 165q50 -7 97 -34t86.5 -50.5t76.5 -23.5q45 0 80 24.5t60.5 75.5t43 108.5t36.5 143.5l215 1012l-166 16v64l338 30l41 -10l-224 -1034q-22 -102 -60.5 -192.5t-94 -167t-135 -121.5t-170.5 -45q-59 0 -145 17.5t-120 21.5zM317 1350q0 52 34.5 92.5 t97.5 40.5q48 0 80 -32.5t32 -86.5q0 -53 -34 -93t-97 -40q-49 0 -81 32.5t-32 86.5z" />
<glyph unicode="k" horiz-adv-x="1056" d="M51 0l314 1462l-166 17v63l338 31l41 -10l-334 -1563h-193zM369 512v8q97 131 161.5 211.5t124.5 145.5t108 97t95.5 48t102.5 16l-54 -204q-80 0 -159 -48.5t-213 -197.5l221 -465l227 147v-104l-149 -98q-75 -48 -103.5 -62t-58.5 -14q-52 0 -76 49z" />
<glyph unicode="l" horiz-adv-x="606" d="M82 139l285 1323l-166 17v63l338 31l41 -10l-314 -1461l254 168v-100l-178 -119q-31 -21 -45.5 -30.5t-48.5 -22t-66 -12.5q-52 0 -84 41q-22 27 -21 68q0 21 5 44z" />
<glyph unicode="m" horiz-adv-x="1683" d="M84 0l199 934l-164 16v64l338 30l41 -10l-41 -188l215 145q75 53 147 53q156 0 156 -186v-16l221 149q75 53 147 53q57 0 93 -26q36 -25 50 -70q13 -43 14 -95q0 -56 -15 -122l-131 -625l252 164v-100l-179 -119q-65 -45 -103 -57q-28 -8 -56 -8q-51 0 -83 40 q-21 27 -21 67q0 20 5 44l125 592q13 59 13 98t-13.5 58.5t-43 15t-74.5 -34.5l-218 -139l-151 -727h-191l154 729q13 57 13 95q0 42 -14 62q-13 20 -43 15t-75 -35l-221 -143l-154 -723h-192z" />
<glyph unicode="n" horiz-adv-x="1179" d="M84 0l199 934l-164 16v64l338 30l41 -10l-41 -188l215 145q75 53 147 53q108 0 152 -80q26 -48 26 -117q0 -46 -12 -102l-137 -641l254 166v-100l-178 -119q-31 -21 -45.5 -30.5t-48.5 -22t-66 -12.5q-50 0 -82 40q-21 27 -21 67q0 20 5 44l133 627q6 27 6 48q0 20 -5 34 q-10 30 -32.5 42t-54.5 6t-66 -28l-215 -139l-156 -727h-192z" />
<glyph unicode="o" horiz-adv-x="1052" d="M74 342q0 94 21.5 191t67 189t109 163.5t155 115t198.5 43.5q152 0 237.5 -94.5t85.5 -261.5q0 -93 -21 -190t-65.5 -190t-108 -166t-156 -117.5t-200.5 -44.5q-151 0 -237 94.5t-86 267.5zM279 334q0 -268 155 -268q73 0 131.5 54t91 130.5t54.5 169.5t29.5 161.5 t7.5 116.5q0 122 -38 191t-118 69q-69 0 -125 -45.5t-90 -114t-57 -155.5t-32 -164t-9 -145z" />
<glyph unicode="p" horiz-adv-x="1126" d="M-172 -449l162 23l295 1360l-164 16v64l338 30l41 -10l-43 -192l219 147q79 55 151 55q100 0 151.5 -69.5t51.5 -226.5q0 -151 -46 -292.5t-122.5 -245.5t-181 -167t-215.5 -63q-99 0 -184 45l-99 -451l226 -23v-63h-580v63zM317 201q27 -64 74 -99.5t98 -35.5 q67 0 130 63.5t107 162t70.5 217t26.5 228.5q0 82 -17 124t-58 42q-9 0 -18.5 -2t-16 -4t-16.5 -7l-14 -7t-14.5 -9t-13.5 -8l-223 -143z" />
<glyph unicode="q" horiz-adv-x="1095" d="M68 287q0 201 77 376t207 278t279 103q144 0 243 -83l99 71l41 -10l-314 -1448l164 -23v-63h-579v63l225 23l131 616l-139 -104q-69 -53 -122 -74.5t-110 -21.5q-86 0 -144 74.5t-58 222.5zM274 317q0 -186 86 -186q49 0 113 45l197 141l108 517q-50 124 -151 124 q-96 0 -179 -99.5t-128.5 -246.5t-45.5 -295z" />
<glyph unicode="r" horiz-adv-x="874" d="M84 0l199 934l-164 16v64l338 30l41 -10l-56 -260l107 146q91 124 170 124q35 0 61 -11.5t61.5 -34.5t67.5 -37l-86 -166q-39 15 -70.5 39t-50 38.5t-36.5 14.5q-21 0 -37.5 -13t-50.5 -59l-179 -240l-123 -575h-192z" />
<glyph unicode="s" horiz-adv-x="806" d="M-4 31l41 166q49 -7 107 -35t112 -52t100 -24q105 0 105 123q0 48 -17 91.5t-44 78t-59.5 68.5t-65.5 68.5t-60 71t-44 84t-17 99.5q0 113 90 193.5t233 80.5q69 0 152.5 -20t118.5 -23l-39 -161q-39 5 -76.5 24.5t-62 39t-59 35t-69.5 15.5q-106 0 -106 -135 q0 -51 32 -101t78 -94.5t91.5 -92.5t77.5 -113t32 -137q0 -137 -90.5 -216t-241.5 -79q-74 0 -184 21t-135 24z" />
<glyph unicode="t" horiz-adv-x="780" d="M102 932v92h191l39 184l155 86h58l-58 -270h269v-92h-289l-137 -656q-8 -35 -8 -63q0 -53 30 -75q16 -12 38 -13q42 0 108 41l170 110v-106l-144 -98q-71 -50 -120.5 -69t-98.5 -19q-61 0 -101 26t-56 69t-18 100v13q0 51 13 105l131 635h-172z" />
<glyph unicode="u" horiz-adv-x="1171" d="M102 950v64l338 30l41 -10l-166 -776q-4 -23 -4 -42q-1 -51 31 -73q15 -11 37 -11q39 0 98 36l205 131l158 725h192l-201 -918l252 164v-100l-178 -119q-31 -21 -45.5 -30.5t-48.5 -22t-66 -12.5q-51 0 -83 40q-21 27 -20 67q0 20 5 44l8 43l-211 -143q-75 -53 -153 -53 q-101 0 -145 80q-27 49 -27 114q0 41 10 88l137 668z" />
<glyph unicode="v" horiz-adv-x="993" d="M76 950v64l311 30l41 -10l35 -848q291 300 348 748l-143 16v64l262 26l43 -10q-37 -310 -172.5 -559t-362.5 -418l-71 -53h-82l-41 932z" />
<glyph unicode="w" horiz-adv-x="1505" d="M76 950v64l307 30l41 -10l18 -833q100 129 197.5 324.5t138.5 342.5l-2 64l-137 18v64l272 30l41 -10l21 -856q144 135 235 341.5t111 414.5l-145 16v64l262 26l43 -10q-28 -316 -165.5 -567.5t-369.5 -411.5l-76 -51h-71l-15 614q-63 -157 -168 -314t-221 -255l-53 -45 h-76l-20 932z" />
<glyph unicode="x" horiz-adv-x="1081" d="M8 -20l43 208q31 0 62.5 11t77.5 42t107 98t134 167l-172 426l-168 18v64l287 30l41 -10l160 -395q134 213 234 306t206 93l-43 -209q-30 0 -60.5 -10t-74 -38t-100.5 -88t-124 -150l181 -447l168 -18v-64l-285 -30l-41 10l-170 418q-146 -232 -250 -332t-213 -100z" />
<glyph unicode="y" horiz-adv-x="1050" d="M2 -410q70 71 218 170.5t204 151.5l-186 1020l-168 18v64l305 30l41 -10l157 -923q107 181 181.5 411.5t83.5 409.5l-162 18v64l262 26l43 -10q0 -171 -61.5 -377.5t-147.5 -376t-182 -299.5q-84 -114 -157 -196t-178 -184.5t-138 -137.5z" />
<glyph unicode="z" horiz-adv-x="884" d="M-6 0v43l643 831l-379 -14l-45 -110h-78l60 274h651v-43l-641 -831l397 14l45 112h78l-59 -276h-672z" />
<glyph unicode="{" horiz-adv-x="653" d="M18 489v72q59 13 99.5 30t77.5 48t60.5 81.5t37.5 123.5l74 379q30 152 105.5 227.5t207.5 75.5h111v-64h-60q-157 0 -205 -239l-69 -359q-39 -204 -221 -311q61 -30 93 -110t11 -187l-86 -442q-48 -240 111 -240h47l-2 -63h-121q-133 0 -179 75.5t-16 227.5l82 428 q43 216 -6 280q-81 -28 -152 -33z" />
<glyph unicode="|" horiz-adv-x="534" d="M-14 -530l370 2097h160l-371 -2097h-159z" />
<glyph unicode="}" horiz-adv-x="661" d="M-160 -426h60q156 0 204 240l70 358q39 204 221 311q-61 30 -93 110t-11 187l86 443q48 239 -111 239h-47l2 64h121q133 0 179 -75.5t16 -227.5l-82 -428q-43 -217 6 -281q82 28 151 33v-72q-59 -13 -99.5 -30t-77 -48t-60 -81t-37.5 -123l-74 -379q-30 -152 -105 -227.5 t-208 -75.5h-111v63z" />
<glyph unicode="~" horiz-adv-x="1110" d="M129 492q0 114 64.5 192t164.5 78q60 0 114 -21t88.5 -45.5t87 -45.5t110.5 -21q53 0 98.5 36t71.5 101l61 -23q0 -114 -64 -192t-161 -78q-53 0 -106.5 21t-90.5 45.5t-91 45.5t-109 21q-57 0 -104 -36t-73 -101z" />
<glyph unicode="&#xa2;" horiz-adv-x="903" d="M74 379q0 152 57.5 297.5t165 247.5t238.5 116l47 230h118l-47 -232q35 -4 89 -19t89 -20l-53 -163q-38 10 -70 31t-49.5 39t-44 32t-57.5 14q-80 0 -145.5 -91t-99 -219t-33.5 -255q0 -147 35.5 -216t109.5 -69q52 0 93 17.5t91 56.5l125 96v-104l-94 -72 q-116 -92 -209 -110l-45 -219h-119l45 219q-114 20 -175.5 122t-61.5 271z" />
<glyph unicode="&#xa3;" horiz-adv-x="1167" d="M37 0v70q76 36 124 87.5t77.5 141t35.5 221.5l5 86h-164v103h168l12 227q13 262 165 395t400 133q63 0 132.5 -10t107.5 -20l39 -11l-64 -368h-80v262q-72 16 -178 16q-167 0 -241 -92t-82 -260l-15 -272h367v-103h-371q-8 -190 -60 -306.5t-182 -184.5l615 32l74 222h86 l-68 -369h-903z" />
<glyph unicode="&#xa5;" horiz-adv-x="1439" d="M209 1370v64h493v-64l-157 -27l182 -456q13 -33 28 -78t24 -73l9 -29h9q46 78 118 184l195 289q25 37 46 76t30 59l8 20l-135 35v64h432v-64l-137 -31l-473 -675h217v-123h-267l-28 -166h295v-123h-318l-28 -162l161 -27l-2 -63h-528l2 63l166 27l29 162h-242v123h264 l29 166h-293v123h287l-279 679z" />
<glyph unicode="&#xa7;" horiz-adv-x="1017" d="M25 20l41 158q18 -10 49 -24.5t116 -39t156 -24.5q106 0 160.5 35.5t54.5 95.5q0 43 -26 81t-67.5 66t-92 55.5t-100.5 56.5t-91.5 61.5t-67.5 77.5t-26 98q0 81 53 144.5t164 139.5q-45 65 -45 146q0 138 116.5 227.5t317.5 89.5q87 0 161.5 -10t105.5 -20l32 -11 l-41 -157q-18 10 -49 24.5t-116 39t-156 24.5q-106 0 -160.5 -35.5t-54.5 -95.5q0 -43 26 -81t67.5 -66t91.5 -55.5t100.5 -56.5t92 -61.5t67.5 -77.5t26 -98q0 -83 -53 -146t-166 -141q47 -60 47 -143q0 -138 -116.5 -227.5t-317.5 -89.5q-87 0 -161.5 10t-106.5 20z M309 793q0 -47 24.5 -84t66.5 -63.5t87 -48.5t98 -52t87 -60q44 37 62 74t18 92q0 46 -24.5 82.5t-67 63t-87.5 48.5t-97.5 51.5t-86.5 59.5q-44 -37 -62 -73.5t-18 -89.5z" />
<glyph unicode="&#xa8;" horiz-adv-x="1028" d="M193 1391q0 53 34 93t97 40q48 0 80 -32.5t32 -86.5q0 -53 -34 -93t-97 -40q-48 0 -80 32.5t-32 86.5zM588 1391q0 53 34 93t97 40q48 0 80 -32.5t32 -86.5q0 -53 -34 -93t-97 -40q-48 0 -80 32.5t-32 86.5z" />
<glyph unicode="&#xa9;" horiz-adv-x="1679" d="M113 575q0 178 66.5 341t182 285t284 194.5t360.5 72.5q287 0 445.5 -156.5t158.5 -434.5q0 -178 -66.5 -341t-182 -285t-284 -194.5t-360.5 -72.5q-287 0 -445.5 156.5t-158.5 434.5zM291 575q0 -217 122 -357t322 -140q141 0 269 60.5t222.5 165.5t150 254.5 t55.5 318.5q0 217 -122.5 357t-322.5 140q-141 0 -269 -60.5t-222 -165.5t-149.5 -254.5t-55.5 -318.5zM522 635q0 146 74.5 266t187.5 184t234 64q56 0 104 -8.5t68 -16.5l20 -8l-57 -266h-74v194q-2 0 -21 3.5t-30 3.5q-151 0 -242.5 -113.5t-91.5 -278.5 q0 -106 49.5 -170.5t149.5 -64.5q50 0 102.5 10t79.5 20l27 11l-19 -88q-11 -6 -31 -14.5t-85 -22.5t-133 -14q-146 0 -229 82t-83 227z" />
<glyph unicode="&#xab;" horiz-adv-x="1050" d="M39 492l12 59q43 35 118.5 96t103 83t76.5 63t74 63.5t58 53.5t64 63l41 -37q-67 -110 -146.5 -199.5t-210.5 -216.5q134 -182 222 -457l-58 -30q-51 83 -84 132t-104 137t-166 190zM469 492l12 59q205 166 285 236t172 165l43 -37q-76 -121 -143.5 -204.5t-178.5 -190.5 q152 -206 213 -416l-53 -30q-58 92 -122.5 168t-227.5 250z" />
<glyph unicode="&#xac;" horiz-adv-x="1251" d="M172 551v131h875v-399h-127v268h-748z" />
<glyph unicode="&#xad;" horiz-adv-x="915" d="M158 516v141l596 21v-141z" />
<glyph unicode="&#xae;" horiz-adv-x="1026" d="M174 1004q0 93 35.5 177t99 146.5t157 99.5t202.5 37q157 0 250.5 -87t93.5 -224q0 -93 -35.5 -177t-99 -147t-157 -100t-202.5 -37q-157 0 -250.5 87.5t-93.5 224.5zM303 1006q0 -121 60.5 -181.5t166.5 -60.5q65 0 126.5 25t112.5 71.5t82.5 122t31.5 168.5 q0 120 -61 182t-167 62q-64 0 -126 -25.5t-113 -72.5t-82 -123t-31 -168zM371 887v39l51 8l55 289l-65 12v41h231q68 0 103.5 -27t35.5 -78q0 -87 -98 -120l47 -119l43 -10v-35h-133l-49 131h-55l-27 -131h-139zM547 1069h41q40 0 65 21.5t25 64.5q0 32 -17.5 50t-48.5 18 h-37z" />
<glyph unicode="&#xaf;" horiz-adv-x="745" d="M51 1135v120h479v-120h-479z" />
<glyph unicode="&#xb0;" horiz-adv-x="839" d="M203 1180q0 171 108.5 273.5t284.5 102.5q125 0 192.5 -69.5t67.5 -183.5q0 -171 -108.5 -274t-284.5 -103q-125 0 -192.5 70t-67.5 184zM346 1206q0 -82 38 -127t110 -45q102 0 160.5 71.5t58.5 170.5q0 81 -38.5 127.5t-109.5 46.5q-102 0 -160.5 -73t-58.5 -171z" />
<glyph unicode="&#xb1;" horiz-adv-x="1140" d="M76 133v129h842v-129h-842zM176 641v131h361l57 295h143l-57 -295h338v-131h-365l-57 -293h-143l57 293h-334z" />
<glyph unicode="&#xb4;" horiz-adv-x="602" d="M98 1278l355 313l106 -147l-414 -236z" />
<glyph unicode="&#xb5;" horiz-adv-x="1097" d="M-35 -414l146 688l12 58l108 512l29 180h201l-160 -756q-20 -99 22 -126t130 30l215 139l153 713h193l-185 -866l-26 -158l-203 -6l39 182l-213 -143q-75 -53 -147 -53q-46 0 -89 24q1 -67 1.5 -124.5t-5.5 -125t-20 -129.5l-8 -39h-193z" />
<glyph unicode="&#xb6;" horiz-adv-x="1425" d="M82 371q0 294 203 473.5t534 179.5h494l-297 -1538h-160l277 1423h-181l-276 -1423h-160l98 514h-53q-235 0 -357 97t-122 274zM285 403q0 -272 323 -272h33l150 776h-29q-147 0 -257 -69t-165 -182t-55 -253z" />
<glyph unicode="&#xb7;" horiz-adv-x="528" d="M135 559q0 53 34 93t97 40q49 0 81 -32.5t32 -86.5q0 -53 -34 -93t-97 -40q-49 0 -81 32.5t-32 86.5z" />
<glyph unicode="&#xb8;" horiz-adv-x="491" d="M57 -373l21 41q55 -30 131 -30q58 0 86.5 26.5t28.5 65.5q0 26 -28.5 41.5t-72.5 15.5q-39 0 -80 -12l-24 26l149 166h84l-104 -108q49 8 97 0.5t85 -38t37 -81.5q0 -63 -32.5 -108.5t-75 -64t-87.5 -18.5q-41 0 -78 8t-61 19.5t-42 23t-26 19.5z" />
<glyph unicode="&#xbb;" horiz-adv-x="1052" d="M37 88q76 122 143 205t178 190q-152 206 -213 416l54 31q58 -92 122.5 -168t227.5 -250l-12 -59q-202 -164 -283 -235t-174 -167zM432 68q67 110 146 199t210 216q-132 180 -221 457l58 31q51 -83 84 -132t104 -137t166 -190l-12 -59q-43 -35 -118.5 -96t-103 -83 t-76.5 -63t-74 -63.5t-58 -53.5t-64 -63z" />
<glyph unicode="&#xc0;" horiz-adv-x="1292" d="M-100 0v63l149 27l658 1346l170 12l194 -1358l146 -27v-63h-498v63l143 27l-45 336h-477l-49 -109q-52 -112 -88 -227l170 -27v-63h-473zM389 528h414l-70 525l-18 182h-8q-25 -80 -70 -176zM446 1972l152 101l221 -420l-69 -47z" />
<glyph unicode="&#xc1;" horiz-adv-x="1292" d="M-100 0v63l149 27l658 1346l170 12l194 -1358l146 -27v-63h-498v63l143 27l-45 336h-477l-49 -109q-52 -112 -88 -227l170 -27v-63h-473zM389 528h414l-70 525l-18 182h-8q-25 -80 -70 -176zM682 1661l354 313l107 -147l-414 -236z" />
<glyph unicode="&#xc2;" horiz-adv-x="1292" d="M-100 0v63l149 27l658 1346l170 12l194 -1358l146 -27v-63h-498v63l143 27l-45 336h-477l-49 -109q-52 -112 -88 -227l170 -27v-63h-473zM389 528h414l-70 525l-18 182h-8q-25 -80 -70 -176zM500 1655l325 243h60l215 -253l-51 -50l-211 142l-303 -144z" />
<glyph unicode="&#xc3;" horiz-adv-x="1292" d="M-100 0v63l149 27l658 1346l170 12l194 -1358l146 -27v-63h-498v63l143 27l-45 336h-477l-49 -109q-52 -112 -88 -227l170 -27v-63h-473zM389 528h414l-70 525l-18 182h-8q-25 -80 -70 -176zM432 1632q80 213 232 213q58 0 109 -24t95 -48t86 -24q32 0 61.5 20.5 t67.5 73.5l72 -26q-37 -100 -86 -155.5t-127 -55.5q-48 0 -89.5 14.5t-66 32.5t-57.5 32.5t-67 14.5q-49 0 -81.5 -19.5t-74.5 -68.5z" />
<glyph unicode="&#xc4;" horiz-adv-x="1292" d="M-100 0v63l149 27l658 1346l170 12l194 -1358l146 -27v-63h-498v63l143 27l-45 336h-477l-49 -109q-52 -112 -88 -227l170 -27v-63h-473zM389 528h414l-70 525l-18 182h-8q-25 -80 -70 -176zM494 1712q0 53 34 93t97 40q48 0 80 -32.5t32 -86.5q0 -53 -34 -93t-97 -40 q-48 0 -80 32.5t-32 86.5zM889 1712q0 53 34 93t97 40q49 0 81 -32.5t32 -86.5q0 -52 -34.5 -92.5t-97.5 -40.5q-48 0 -80 32.5t-32 86.5z" />
<glyph unicode="&#xc5;" horiz-adv-x="1292" d="M-100 0v63l149 27l658 1346l170 12l194 -1358l146 -27v-63h-498v63l143 27l-45 336h-477l-49 -109q-52 -112 -88 -227l170 -27v-63h-473zM389 528h414l-70 525l-18 182h-8q-25 -80 -70 -176zM602 1726q0 96 69.5 149.5t159.5 53.5q83 0 135 -42.5t52 -119.5 q0 -96 -69.5 -149t-160.5 -53q-83 0 -134.5 42t-51.5 119zM705 1737q0 -46 24.5 -72.5t67.5 -26.5q50 0 84 33.5t34 85.5q0 46 -24.5 72t-67.5 26q-50 0 -84 -33t-34 -85z" />
<glyph unicode="&#xc6;" horiz-adv-x="1794" d="M-143 0l10 63l158 27l925 1258l-129 22v64h994l-62 -349h-84l2 234l-436 12l-96 -547h399l-22 -125l-396 23l-102 -580l450 9l109 243h84l-80 -354h-930l-2 63l164 27l57 326h-477l-69 -99q-117 -164 -138 -207q-5 -12 -8 -20l166 -27l-10 -63h-477zM467 518h422l145 801 q-58 -100 -125 -195z" />
<glyph unicode="&#xc7;" horiz-adv-x="1212" d="M113 528q0 129 35 261.5t104.5 252.5t163.5 214t223 150t272 56q59 0 115 -8.5t94 -20.5t67.5 -24t43.5 -21l14 -8l-63 -295h-80l4 222q-88 59 -215 59q-109 0 -211.5 -64t-179.5 -173.5t-123.5 -265t-46.5 -328.5q0 -205 103 -335t284 -130q54 0 143 26l103 258h86 l-66 -303q-5 -3 -14 -8.5t-40 -19.5t-64.5 -24.5t-85.5 -19t-105 -8.5h-17l-82 -86q49 8 97 1t85.5 -37.5t37.5 -81.5q0 -63 -32.5 -108.5t-75 -64t-87.5 -18.5q-41 0 -78 8t-61 19.5t-42 23t-26 19.5l-8 8l21 41q55 -31 131 -31q58 0 86 26.5t28 65.5q0 26 -28.5 42 t-71.5 16q-36 0 -80 -13l-25 27l134 149q-148 19 -255.5 98t-159.5 195.5t-52 257.5z" />
<glyph unicode="&#xc8;" horiz-adv-x="1148" d="M4 63l164 27l225 1253l-162 27v64h938l-61 -349h-84l2 234l-436 12l-96 -547h399l-23 -125l-395 23l-102 -580l450 9l109 243h84l-80 -354h-930zM487 1960l152 100l221 -420l-69 -47z" />
<glyph unicode="&#xc9;" horiz-adv-x="1148" d="M4 63l164 27l225 1253l-162 27v64h938l-61 -349h-84l2 234l-436 12l-96 -547h399l-23 -125l-395 23l-102 -580l450 9l109 243h84l-80 -354h-930zM670 1683l354 314l106 -148l-413 -235z" />
<glyph unicode="&#xca;" horiz-adv-x="1148" d="M4 63l164 27l225 1253l-162 27v64h938l-61 -349h-84l2 234l-436 12l-96 -547h399l-23 -125l-395 23l-102 -580l450 9l109 243h84l-80 -354h-930zM479 1653l326 243h59l215 -254l-51 -49l-211 142l-303 -144z" />
<glyph unicode="&#xcb;" horiz-adv-x="1148" d="M4 63l164 27l225 1253l-162 27v64h938l-61 -349h-84l2 234l-436 12l-96 -547h399l-23 -125l-395 23l-102 -580l450 9l109 243h84l-80 -354h-930zM483 1710q0 53 34 93t97 40q49 0 81 -32.5t32 -86.5q0 -53 -34 -93t-97 -40q-49 0 -81 32.5t-32 86.5zM879 1710q0 53 34 93 t97 40q48 0 80 -32.5t32 -86.5q0 -53 -34 -93t-97 -40q-48 0 -80 32.5t-32 86.5z" />
<glyph unicode="&#xcc;" horiz-adv-x="722" d="M4 0v63l164 27l225 1253l-162 27v64h529v-64l-166 -27l-225 -1253l161 -27v-63h-526zM256 1958l152 100l221 -420l-70 -47z" />
<glyph unicode="&#xcd;" horiz-adv-x="722" d="M4 0v63l164 27l225 1253l-162 27v64h529v-64l-166 -27l-225 -1253l161 -27v-63h-526zM471 1663l354 313l107 -147l-414 -236z" />
<glyph unicode="&#xce;" horiz-adv-x="722" d="M4 0v63l164 27l225 1253l-162 27v64h529v-64l-166 -27l-225 -1253l161 -27v-63h-526zM223 1655l326 243h59l215 -253l-51 -50l-211 142l-303 -144z" />
<glyph unicode="&#xcf;" horiz-adv-x="722" d="M4 0v63l164 27l225 1253l-162 27v64h529v-64l-166 -27l-225 -1253l161 -27v-63h-526zM219 1710q0 53 34 93t97 40q49 0 81 -32.5t32 -86.5q0 -53 -34 -93t-97 -40q-49 0 -81 32.5t-32 86.5zM614 1710q0 53 34 93t97 40q49 0 81 -32.5t32 -86.5q0 -53 -34 -93t-97 -40 q-49 0 -81 32.5t-32 86.5z" />
<glyph unicode="&#xd0;" horiz-adv-x="1425" d="M12 0v63l164 27l96 537h-200v110h219l110 606l-161 27v64h495q151 0 270 -40.5t194.5 -113.5t115 -172.5t39.5 -220.5q0 -249 -112.5 -452t-311 -319t-441.5 -116h-477zM381 102h143q126 0 239.5 57.5t196 156.5t131 240.5t48.5 301.5q0 226 -114 349.5t-341 123.5h-86 l-106 -594h264v-110h-283z" />
<glyph unicode="&#xd1;" horiz-adv-x="1513" d="M-8 0v63l164 33l215 1213l-41 73v52l182 8l514 -969q16 -31 34 -71t28 -64l10 -25l8 2q8 95 24 179l150 839l-158 37v64h447v-64l-170 -37l-236 -1333l-82 -14l-542 1020l-78 161l-6 -2q-7 -90 -25 -184l-156 -885l160 -33v-63h-442zM590 1634q80 213 231 213 q46 0 89 -15t70 -33t62.5 -33t69.5 -15q32 0 61.5 20.5t67.5 73.5l72 -26q-37 -100 -86 -155.5t-127 -55.5q-48 0 -89.5 14.5t-66.5 32.5t-58 32.5t-67 14.5q-48 0 -80 -19.5t-75 -68.5z" />
<glyph unicode="&#xd2;" d="M113 500q0 104 21 214t61 217.5t103 203t141.5 169t182.5 116t220 42.5q243 0 378.5 -143.5t135.5 -384.5q0 -104 -21 -214t-61 -218t-103 -203.5t-141.5 -169t-182.5 -116t-220 -42.5q-242 0 -378 143.5t-136 385.5zM330 535q0 -135 31.5 -237t104 -166t179.5 -64 q99 0 192 74t158.5 191.5t104.5 267.5t39 298q0 135 -32 237.5t-104.5 166t-179.5 63.5q-134 0 -249.5 -125t-179.5 -315.5t-64 -390.5zM616 1960l152 100l221 -420l-69 -47z" />
<glyph unicode="&#xd3;" d="M113 500q0 104 21 214t61 217.5t103 203t141.5 169t182.5 116t220 42.5q243 0 378.5 -143.5t135.5 -384.5q0 -104 -21 -214t-61 -218t-103 -203.5t-141.5 -169t-182.5 -116t-220 -42.5q-242 0 -378 143.5t-136 385.5zM330 535q0 -135 31.5 -237t104 -166t179.5 -64 q99 0 192 74t158.5 191.5t104.5 267.5t39 298q0 135 -32 237.5t-104.5 166t-179.5 63.5q-134 0 -249.5 -125t-179.5 -315.5t-64 -390.5zM842 1663l354 313l107 -147l-414 -236z" />
<glyph unicode="&#xd4;" d="M113 500q0 104 21 214t61 217.5t103 203t141.5 169t182.5 116t220 42.5q243 0 378.5 -143.5t135.5 -384.5q0 -104 -21 -214t-61 -218t-103 -203.5t-141.5 -169t-182.5 -116t-220 -42.5q-242 0 -378 143.5t-136 385.5zM330 535q0 -135 31.5 -237t104 -166t179.5 -64 q99 0 192 74t158.5 191.5t104.5 267.5t39 298q0 135 -32 237.5t-104.5 166t-179.5 63.5q-134 0 -249.5 -125t-179.5 -315.5t-64 -390.5zM580 1655l325 243h60l215 -253l-52 -50l-210 142l-304 -144z" />
<glyph unicode="&#xd5;" d="M113 500q0 104 21 214t61 217.5t103 203t141.5 169t182.5 116t220 42.5q243 0 378.5 -143.5t135.5 -384.5q0 -104 -21 -214t-61 -218t-103 -203.5t-141.5 -169t-182.5 -116t-220 -42.5q-242 0 -378 143.5t-136 385.5zM330 535q0 -135 31.5 -237t104 -166t179.5 -64 q99 0 192 74t158.5 191.5t104.5 267.5t39 298q0 135 -32 237.5t-104.5 166t-179.5 63.5q-134 0 -249.5 -125t-179.5 -315.5t-64 -390.5zM541 1642q80 213 231 213q46 0 89 -15t70 -33t62.5 -33t69.5 -15q32 0 61.5 20.5t67.5 73.5l72 -26q-37 -100 -86 -155.5t-127 -55.5 q-48 0 -89.5 14.5t-66.5 32.5t-58 32.5t-67 14.5q-49 0 -81.5 -19.5t-74.5 -68.5z" />
<glyph unicode="&#xd6;" d="M113 500q0 104 21 214t61 217.5t103 203t141.5 169t182.5 116t220 42.5q243 0 378.5 -143.5t135.5 -384.5q0 -104 -21 -214t-61 -218t-103 -203.5t-141.5 -169t-182.5 -116t-220 -42.5q-242 0 -378 143.5t-136 385.5zM330 535q0 -135 31.5 -237t104 -166t179.5 -64 q99 0 192 74t158.5 191.5t104.5 267.5t39 298q0 135 -32 237.5t-104.5 166t-179.5 63.5q-134 0 -249.5 -125t-179.5 -315.5t-64 -390.5zM575 1710q0 53 34.5 93t97.5 40q48 0 80 -32.5t32 -86.5q0 -53 -34 -93t-97 -40q-49 0 -81 32.5t-32 86.5zM971 1710q0 53 34 93t97 40 q48 0 80 -32.5t32 -86.5q0 -53 -34 -93t-97 -40q-48 0 -80 32.5t-32 86.5z" />
<glyph unicode="&#xd8;" d="M113 500q0 104 21 214t61 217.5t103 203t141.5 169t182.5 116t220 42.5q174 0 299 -80l108 154l103 -68l-117 -165q121 -143 121 -369q0 -104 -21 -214t-61 -218t-103 -203.5t-141.5 -169t-182.5 -116t-220 -42.5q-161 0 -281 68l-110 -158l-103 66l117 166 q-137 140 -137 387zM330 535q0 -144 37 -254l682 970q-81 115 -226 115q-134 0 -249.5 -125t-179.5 -315.5t-64 -390.5zM432 162q81 -94 213 -94q99 0 192 74t158.5 191.5t104.5 267.5t39 298q0 115 -29 225z" />
<glyph unicode="&#xd9;" d="M203 1370v64h528v-64l-168 -29l-147 -827q-37 -204 19.5 -319t217.5 -115q93 0 162 32t115 94.5t74 141.5t47 187l145 806l-170 29v64h477v-64l-168 -29l-135 -759q-13 -69 -26.5 -124.5t-37.5 -121t-53 -115.5t-72.5 -99t-97 -80.5t-126.5 -51t-160 -19.5 q-255 0 -356 148.5t-54 419.5l145 804zM559 1960l152 100l221 -420l-70 -47z" />
<glyph unicode="&#xda;" d="M203 1370v64h528v-64l-168 -29l-147 -827q-37 -204 19.5 -319t217.5 -115q93 0 162 32t115 94.5t74 141.5t47 187l145 806l-170 29v64h477v-64l-168 -29l-135 -759q-13 -69 -26.5 -124.5t-37.5 -121t-53 -115.5t-72.5 -99t-97 -80.5t-126.5 -51t-160 -19.5 q-255 0 -356 148.5t-54 419.5l145 804zM815 1663l354 313l107 -147l-414 -236z" />
<glyph unicode="&#xdb;" d="M203 1370v64h528v-64l-168 -29l-147 -827q-37 -204 19.5 -319t217.5 -115q93 0 162 32t115 94.5t74 141.5t47 187l145 806l-170 29v64h477v-64l-168 -29l-135 -759q-13 -69 -26.5 -124.5t-37.5 -121t-53 -115.5t-72.5 -99t-97 -80.5t-126.5 -51t-160 -19.5 q-255 0 -356 148.5t-54 419.5l145 804zM618 1655l326 243h60l215 -253l-52 -50l-211 142l-303 -144z" />
<glyph unicode="&#xdc;" d="M203 1370v64h528v-64l-168 -29l-147 -827q-37 -204 19.5 -319t217.5 -115q93 0 162 32t115 94.5t74 141.5t47 187l145 806l-170 29v64h477v-64l-168 -29l-135 -759q-13 -69 -26.5 -124.5t-37.5 -121t-53 -115.5t-72.5 -99t-97 -80.5t-126.5 -51t-160 -19.5 q-255 0 -356 148.5t-54 419.5l145 804zM598 1712q0 53 34 93t97 40q49 0 81 -32.5t32 -86.5q0 -53 -34 -93t-97 -40q-49 0 -81 32.5t-32 86.5zM993 1712q0 53 34 93t97 40q49 0 81 -32.5t32 -86.5q0 -53 -34 -93t-97 -40q-49 0 -81 32.5t-32 86.5z" />
<glyph unicode="&#xdd;" horiz-adv-x="1247" d="M104 1370v64h494v-64l-158 -27l183 -456q13 -33 28 -78t24 -73l9 -29h8q47 78 119 184l195 289q25 37 46 76t30 59l8 20l-136 35v64h432v-64l-137 -31l-508 -727l-94 -522l162 -27l-2 -63h-528l2 63l165 27l95 522l-299 731zM733 1679l354 314l107 -148l-414 -235z" />
<glyph unicode="&#xde;" horiz-adv-x="1202" d="M4 0v63l164 27l225 1253l-162 27v64h549v-64l-188 -27l-33 -178h125q225 0 349 -93t124 -261q0 -153 -80.5 -270.5t-218 -179.5t-307.5 -62h-145l-37 -209l204 -27v-63h-569zM424 401h145q104 0 188.5 42.5t137.5 130.5t53 208q0 281 -311 281h-96z" />
<glyph unicode="&#xdf;" horiz-adv-x="1335" d="M-20 0v63l139 23l178 848h-137v90h159l21 96q44 207 186 321.5t357 114.5q162 0 271.5 -78.5t109.5 -207.5q0 -58 -22.5 -108t-59 -86.5t-80 -69t-87 -62.5t-80 -60.5t-59 -69t-22.5 -81.5q0 -32 20 -59.5t52.5 -49t71 -44t77.5 -49t71.5 -57.5t52.5 -76.5t20 -100.5 q0 -131 -117 -224t-264 -93q-71 0 -177 19.5t-147 23.5l47 147q47 -5 153 -37.5t160 -32.5q79 0 128 40.5t49 103.5q0 35 -21 65t-54.5 52.5t-73.5 45t-80.5 48.5t-74 56t-54.5 74t-21 97q0 59 21.5 108.5t56 85t76.5 67.5t83.5 64t76 66.5t56 83t21.5 105.5 q0 91 -55.5 142.5t-159.5 51.5q-140 0 -211 -75.5t-105 -235.5l-241 -1145h-311z" />
<glyph unicode="&#xe0;" horiz-adv-x="1150" d="M68 287q0 201 77 376t207 278t279 103q140 0 233 -75l105 67l41 -10l-199 -924l254 168v-100l-178 -119q-31 -21 -45.5 -30.5t-48.5 -22t-66 -12.5q-51 0 -83.5 41t-16.5 112l10 47l-135 -100q-69 -53 -122 -74.5t-110 -21.5q-86 0 -144 74.5t-58 222.5zM274 317 q0 -186 86 -186q49 0 113 45l191 137l112 525q-50 120 -149 120q-96 0 -179 -99.5t-128.5 -246.5t-45.5 -295zM422 1573l151 100l222 -420l-70 -47z" />
<glyph unicode="&#xe1;" horiz-adv-x="1150" d="M68 287q0 201 77 376t207 278t279 103q140 0 233 -75l105 67l41 -10l-199 -924l254 168v-100l-178 -119q-31 -21 -45.5 -30.5t-48.5 -22t-66 -12.5q-51 0 -83.5 41t-16.5 112l10 47l-135 -100q-69 -53 -122 -74.5t-110 -21.5q-86 0 -144 74.5t-58 222.5zM274 317 q0 -186 86 -186q49 0 113 45l191 137l112 525q-50 120 -149 120q-96 0 -179 -99.5t-128.5 -246.5t-45.5 -295zM590 1278l354 313l107 -147l-414 -236z" />
<glyph unicode="&#xe2;" horiz-adv-x="1150" d="M68 287q0 201 77 376t207 278t279 103q140 0 233 -75l105 67l41 -10l-199 -924l254 168v-100l-178 -119q-31 -21 -45.5 -30.5t-48.5 -22t-66 -12.5q-51 0 -83.5 41t-16.5 112l10 47l-135 -100q-69 -53 -122 -74.5t-110 -21.5q-86 0 -144 74.5t-58 222.5zM274 317 q0 -186 86 -186q49 0 113 45l191 137l112 525q-50 120 -149 120q-96 0 -179 -99.5t-128.5 -246.5t-45.5 -295zM412 1270l325 243h60l215 -253l-51 -50l-211 142l-304 -144z" />
<glyph unicode="&#xe3;" horiz-adv-x="1150" d="M68 287q0 201 77 376t207 278t279 103q140 0 233 -75l105 67l41 -10l-199 -924l254 168v-100l-178 -119q-31 -21 -45.5 -30.5t-48.5 -22t-66 -12.5q-51 0 -83.5 41t-16.5 112l10 47l-135 -100q-69 -53 -122 -74.5t-110 -21.5q-86 0 -144 74.5t-58 222.5zM274 317 q0 -186 86 -186q49 0 113 45l191 137l112 525q-50 120 -149 120q-96 0 -179 -99.5t-128.5 -246.5t-45.5 -295zM360 1233q80 213 232 213q46 0 89 -15t70 -33t62.5 -33t69.5 -15q32 0 61.5 20.5t67.5 73.5l71 -27q-37 -100 -86 -155.5t-127 -55.5q-48 0 -89.5 14.5t-66 32.5 t-57.5 32.5t-67 14.5q-49 0 -81.5 -19.5t-74.5 -68.5z" />
<glyph unicode="&#xe4;" horiz-adv-x="1150" d="M68 287q0 201 77 376t207 278t279 103q140 0 233 -75l105 67l41 -10l-199 -924l254 168v-100l-178 -119q-31 -21 -45.5 -30.5t-48.5 -22t-66 -12.5q-51 0 -83.5 41t-16.5 112l10 47l-135 -100q-69 -53 -122 -74.5t-110 -21.5q-86 0 -144 74.5t-58 222.5zM274 317 q0 -186 86 -186q49 0 113 45l191 137l112 525q-50 120 -149 120q-96 0 -179 -99.5t-128.5 -246.5t-45.5 -295zM428 1315q0 53 34 93t97 40q49 0 81 -32.5t32 -86.5q0 -53 -34 -93t-97 -40q-49 0 -81 32.5t-32 86.5zM823 1315q0 53 34 93t97 40q49 0 81 -32.5t32 -86.5 q0 -53 -34 -93t-97 -40q-49 0 -81 32.5t-32 86.5z" />
<glyph unicode="&#xe5;" horiz-adv-x="1150" d="M68 287q0 201 77 376t207 278t279 103q140 0 233 -75l105 67l41 -10l-199 -924l254 168v-100l-178 -119q-31 -21 -45.5 -30.5t-48.5 -22t-66 -12.5q-51 0 -83.5 41t-16.5 112l10 47l-135 -100q-69 -53 -122 -74.5t-110 -21.5q-86 0 -144 74.5t-58 222.5zM274 317 q0 -186 86 -186q49 0 113 45l191 137l112 525q-50 120 -149 120q-96 0 -179 -99.5t-128.5 -246.5t-45.5 -295zM518 1368q0 96 70 149.5t160 53.5q82 0 134 -42.5t52 -119.5q0 -96 -69.5 -149.5t-159.5 -53.5q-83 0 -135 42.5t-52 119.5zM621 1378q0 -46 24.5 -72t67.5 -26 q50 0 84 33.5t34 85.5q0 46 -24.5 72t-67.5 26q-50 0 -84 -33.5t-34 -85.5z" />
<glyph unicode="&#xe6;" horiz-adv-x="1560" d="M66 276q0 202 76 379t205.5 283t277.5 106q124 0 219 -67l80 67l41 -10l-13 -90q114 100 244 100q139 0 216 -62.5t77 -156.5q0 -116 -156 -192l-442 -217v-45q0 -130 49.5 -195t126.5 -65q61 0 129 43l186 118v-116l-137 -90q-132 -86 -233 -86q-123 0 -195.5 69.5 t-93.5 190.5l-309 -205q-79 -55 -152 -55q-196 0 -196 296zM266 307q0 -166 76 -166q11 0 20.5 2t21 7t16.5 7.5t18.5 11t15.5 9.5l225 144l107 489q-29 60 -74 93.5t-92 33.5q-89 0 -167.5 -97t-122.5 -242t-44 -292zM901 532l268 134q53 26 78 69t25 90q0 48 -32.5 80.5 t-84.5 32.5q-65 0 -118.5 -58.5t-86.5 -148t-49 -199.5z" />
<glyph unicode="&#xe7;" horiz-adv-x="888" d="M80 379q0 118 37.5 236.5t102 214t159.5 155t201 59.5q74 0 155.5 -21t102.5 -24l-54 -163q-38 10 -70 31t-49.5 39t-44 32t-57.5 14q-80 0 -145.5 -91t-99 -219t-33.5 -255q0 -147 35.5 -216t109.5 -69q52 0 93 17.5t91 56.5l125 96v-104l-94 -72q-123 -95 -213 -110 l-82 -86q49 8 97 0.5t85 -38t37 -81.5q0 -48 -18.5 -86.5t-48 -60t-62.5 -33t-65 -11.5q-41 0 -78 8t-61 19.5t-42 23t-26 19.5l-8 8l20 41q55 -31 131 -31q58 0 86.5 27t28.5 66q0 26 -28 41.5t-72 15.5q-40 0 -80 -12l-25 26l125 140q-127 10 -196.5 114t-69.5 283z" />
<glyph unicode="&#xe8;" horiz-adv-x="944" d="M76 356q0 190 77 349.5t203.5 249t270.5 89.5q125 0 193.5 -59t68.5 -143q0 -195 -305 -301l-301 -103q-2 -20 -2 -57q0 -137 43.5 -208t113.5 -71q52 0 93.5 18t91.5 56l125 96v-104l-95 -72q-76 -59 -138.5 -88t-129.5 -28q-142 0 -225.5 102t-83.5 274zM293 535 l149 57q125 47 180.5 105.5t55.5 142.5q0 51 -30 80.5t-73 29.5q-69 0 -129 -61t-97.5 -152.5t-55.5 -201.5zM301 1573l152 100l221 -420l-70 -47z" />
<glyph unicode="&#xe9;" horiz-adv-x="944" d="M76 356q0 190 77 349.5t203.5 249t270.5 89.5q125 0 193.5 -59t68.5 -143q0 -195 -305 -301l-301 -103q-2 -20 -2 -57q0 -137 43.5 -208t113.5 -71q52 0 93.5 18t91.5 56l125 96v-104l-95 -72q-76 -59 -138.5 -88t-129.5 -28q-142 0 -225.5 102t-83.5 274zM293 535 l149 57q125 47 180.5 105.5t55.5 142.5q0 51 -30 80.5t-73 29.5q-69 0 -129 -61t-97.5 -152.5t-55.5 -201.5zM453 1276l354 313l106 -147l-413 -236z" />
<glyph unicode="&#xea;" horiz-adv-x="944" d="M76 356q0 190 77 349.5t203.5 249t270.5 89.5q125 0 193.5 -59t68.5 -143q0 -195 -305 -301l-301 -103q-2 -20 -2 -57q0 -137 43.5 -208t113.5 -71q52 0 93.5 18t91.5 56l125 96v-104l-95 -72q-76 -59 -138.5 -88t-129.5 -28q-142 0 -225.5 102t-83.5 274zM272 1270 l326 243h59l215 -253l-51 -50l-211 142l-303 -144zM293 535l149 57q125 47 180.5 105.5t55.5 142.5q0 51 -30 80.5t-73 29.5q-69 0 -129 -61t-97.5 -152.5t-55.5 -201.5z" />
<glyph unicode="&#xeb;" horiz-adv-x="944" d="M76 356q0 190 77 349.5t203.5 249t270.5 89.5q125 0 193.5 -59t68.5 -143q0 -195 -305 -301l-301 -103q-2 -20 -2 -57q0 -137 43.5 -208t113.5 -71q52 0 93.5 18t91.5 56l125 96v-104l-95 -72q-76 -59 -138.5 -88t-129.5 -28q-142 0 -225.5 102t-83.5 274zM262 1327 q0 53 34 93t97 40q49 0 81 -32.5t32 -86.5q0 -53 -34 -93t-97 -40q-49 0 -81 32.5t-32 86.5zM293 535l149 57q125 47 180.5 105.5t55.5 142.5q0 51 -30 80.5t-73 29.5q-69 0 -129 -61t-97.5 -152.5t-55.5 -201.5zM657 1327q0 53 34 93t97 40q49 0 81 -32.5t32 -86.5 q0 -53 -34 -93t-97 -40q-49 0 -81 32.5t-32 86.5z" />
<glyph unicode="&#xec;" horiz-adv-x="667" d="M109 139l172 795l-166 16v64l338 30l41 -10l-199 -930l252 166v-100l-178 -119q-31 -21 -45.5 -30.5t-48.5 -22t-66 -12.5q-51 0 -83.5 41t-16.5 112zM115 1575l151 100l221 -420l-69 -47z" />
<glyph unicode="&#xed;" horiz-adv-x="667" d="M109 139l172 795l-166 16v64l338 30l41 -10l-199 -930l252 166v-100l-178 -119q-31 -21 -45.5 -30.5t-48.5 -22t-66 -12.5q-51 0 -83.5 41t-16.5 112zM262 1278l354 313l107 -147l-414 -236z" />
<glyph unicode="&#xee;" horiz-adv-x="667" d="M78 1268l325 243h60l215 -254l-51 -49l-211 142l-303 -144zM109 139l172 795l-166 16v64l338 30l41 -10l-199 -930l252 166v-100l-178 -119q-31 -21 -45.5 -30.5t-48.5 -22t-66 -12.5q-51 0 -83.5 41t-16.5 112z" />
<glyph unicode="&#xef;" horiz-adv-x="667" d="M61 1327q0 53 34.5 93t97.5 40q48 0 80 -32.5t32 -86.5q0 -53 -34 -93t-97 -40q-49 0 -81 32.5t-32 86.5zM109 139l172 795l-166 16v64l338 30l41 -10l-199 -930l252 166v-100l-178 -119q-31 -21 -45.5 -30.5t-48.5 -22t-66 -12.5q-51 0 -83.5 41t-16.5 112zM457 1327 q0 53 34 93t97 40q48 0 80 -32.5t32 -86.5q0 -53 -34 -93t-97 -40q-48 0 -80 32.5t-32 86.5z" />
<glyph unicode="&#xf0;" horiz-adv-x="1077" d="M78 358q0 93 20.5 185t61.5 175t98 147t135.5 101.5t167.5 37.5q136 0 209 -111q-20 238 -106 395l-222 -170l-63 78l227 174q-74 89 -176 146l25 45q133 -41 229 -131l209 159l59 -80l-198 -151q97 -118 147.5 -274.5t50.5 -317.5q0 -123 -19.5 -235.5t-62.5 -213.5 t-106 -175.5t-156 -118t-207 -43.5q-156 0 -239.5 97t-83.5 281zM279 344q0 -135 38.5 -206.5t112.5 -71.5q102 0 176 79.5t108 201t34 265.5q0 141 -49 217t-140 76q-55 0 -102.5 -38t-79.5 -98.5t-54.5 -136t-33 -149t-10.5 -139.5z" />
<glyph unicode="&#xf1;" horiz-adv-x="1179" d="M84 0l199 934l-164 16v64l338 30l41 -10l-41 -188l215 145q75 53 147 53q108 0 152 -80.5t14 -218.5l-137 -641l254 166v-100l-178 -119q-31 -21 -45.5 -30.5t-48.5 -22t-66 -12.5q-51 0 -82.5 40t-15.5 111l133 627q11 51 1 81.5t-32.5 42.5t-54.5 6t-66 -28l-215 -139 l-156 -727h-192zM332 1235q80 213 231 213q46 0 89 -15t70 -33t62.5 -33t69.5 -15q32 0 61.5 20.5t67.5 73.5l72 -27q-37 -100 -86 -155.5t-127 -55.5q-48 0 -89.5 15t-66.5 32.5t-58 32.5t-67 15q-48 0 -80 -19.5t-75 -69.5z" />
<glyph unicode="&#xf2;" horiz-adv-x="1052" d="M74 342q0 94 21.5 191t67 189t109 163.5t155 115t198.5 43.5q152 0 237.5 -94.5t85.5 -261.5q0 -93 -21 -190t-65.5 -190t-108 -166t-156 -117.5t-200.5 -44.5q-151 0 -237 94.5t-86 267.5zM279 334q0 -268 155 -268q73 0 131.5 54t91 130.5t54.5 169.5t29.5 161.5 t7.5 116.5q0 122 -38 191t-118 69q-69 0 -125 -45.5t-90 -114t-57 -155.5t-32 -164t-9 -145zM350 1573l152 100l221 -420l-70 -47z" />
<glyph unicode="&#xf3;" horiz-adv-x="1052" d="M74 342q0 94 21.5 191t67 189t109 163.5t155 115t198.5 43.5q152 0 237.5 -94.5t85.5 -261.5q0 -93 -21 -190t-65.5 -190t-108 -166t-156 -117.5t-200.5 -44.5q-151 0 -237 94.5t-86 267.5zM279 334q0 -268 155 -268q73 0 131.5 54t91 130.5t54.5 169.5t29.5 161.5 t7.5 116.5q0 122 -38 191t-118 69q-69 0 -125 -45.5t-90 -114t-57 -155.5t-32 -164t-9 -145zM514 1278l354 313l107 -147l-414 -236z" />
<glyph unicode="&#xf4;" horiz-adv-x="1052" d="M74 342q0 94 21.5 191t67 189t109 163.5t155 115t198.5 43.5q152 0 237.5 -94.5t85.5 -261.5q0 -93 -21 -190t-65.5 -190t-108 -166t-156 -117.5t-200.5 -44.5q-151 0 -237 94.5t-86 267.5zM279 334q0 -268 155 -268q73 0 131.5 54t91 130.5t54.5 169.5t29.5 161.5 t7.5 116.5q0 122 -38 191t-118 69q-69 0 -125 -45.5t-90 -114t-57 -155.5t-32 -164t-9 -145zM317 1268l326 243h59l216 -254l-52 -49l-211 142l-303 -144z" />
<glyph unicode="&#xf5;" horiz-adv-x="1052" d="M74 342q0 94 21.5 191t67 189t109 163.5t155 115t198.5 43.5q152 0 237.5 -94.5t85.5 -261.5q0 -93 -21 -190t-65.5 -190t-108 -166t-156 -117.5t-200.5 -44.5q-151 0 -237 94.5t-86 267.5zM272 1235q80 213 232 213q46 0 89 -15t70 -33t62.5 -33t69.5 -15 q32 0 61.5 20.5t67.5 73.5l71 -27q-37 -100 -86 -155.5t-127 -55.5q-48 0 -89.5 15t-66 32.5t-57.5 32.5t-67 15q-48 0 -80.5 -20t-75.5 -69zM279 334q0 -268 155 -268q73 0 131.5 54t91 130.5t54.5 169.5t29.5 161.5t7.5 116.5q0 122 -38 191t-118 69q-69 0 -125 -45.5 t-90 -114t-57 -155.5t-32 -164t-9 -145z" />
<glyph unicode="&#xf6;" horiz-adv-x="1052" d="M74 342q0 94 21.5 191t67 189t109 163.5t155 115t198.5 43.5q152 0 237.5 -94.5t85.5 -261.5q0 -93 -21 -190t-65.5 -190t-108 -166t-156 -117.5t-200.5 -44.5q-151 0 -237 94.5t-86 267.5zM279 334q0 -268 155 -268q73 0 131.5 54t91 130.5t54.5 169.5t29.5 161.5 t7.5 116.5q0 122 -38 191t-118 69q-69 0 -125 -45.5t-90 -114t-57 -155.5t-32 -164t-9 -145zM299 1315q0 53 34 93t97 40q49 0 81 -32.5t32 -86.5q0 -53 -34 -93t-97 -40q-49 0 -81 32.5t-32 86.5zM694 1315q0 53 34 93t97 40q49 0 81 -32.5t32 -86.5q0 -53 -34 -93t-97 -40 q-49 0 -81 32.5t-32 86.5z" />
<glyph unicode="&#xf7;" horiz-adv-x="1120" d="M123 518v131h862v-131h-862zM354 217q0 53 34 93t97 40q49 0 81 -32.5t32 -86.5q0 -53 -34 -93t-97 -40q-49 0 -81 32.5t-32 86.5zM481 942q0 53 34 93t97 40q49 0 81 -32.5t32 -86.5q0 -53 -34 -93t-97 -40q-49 0 -81 32.5t-32 86.5z" />
<glyph unicode="&#xf8;" horiz-adv-x="1052" d="M25 -57l114 157q-65 89 -65 242q0 94 21.5 191t67 189t109 163.5t155 115t198.5 43.5q98 0 168 -40l100 137l102 -68l-110 -151q63 -91 63 -234q0 -93 -21 -190t-65.5 -190t-108 -166t-156 -117.5t-200.5 -44.5q-97 0 -168 38l-102 -141zM279 293l432 596q-43 69 -119 69 q-69 0 -125 -45.5t-90 -114t-57 -155.5t-32 -164t-9 -145v-41zM315 137q38 -71 119 -71q73 0 131.5 54t91 130.5t54.5 169.5t29.5 161.5t7.5 116.5v33z" />
<glyph unicode="&#xf9;" horiz-adv-x="1171" d="M102 950v64l338 30l41 -10l-166 -776q-16 -85 27.5 -115t134.5 25l205 131l158 725h192l-201 -918l252 164v-100l-178 -119q-31 -21 -45.5 -30.5t-48.5 -22t-66 -12.5q-51 0 -82.5 40t-15.5 111l8 43l-211 -143q-75 -53 -153 -53q-102 0 -145.5 79.5t-16.5 202.5l137 668 zM348 1573l152 100l221 -420l-70 -47z" />
<glyph unicode="&#xfa;" horiz-adv-x="1171" d="M102 950v64l338 30l41 -10l-166 -776q-16 -85 27.5 -115t134.5 25l205 131l158 725h192l-201 -918l252 164v-100l-178 -119q-31 -21 -45.5 -30.5t-48.5 -22t-66 -12.5q-51 0 -82.5 40t-15.5 111l8 43l-211 -143q-75 -53 -153 -53q-102 0 -145.5 79.5t-16.5 202.5l137 668 zM590 1276l354 313l107 -147l-414 -236z" />
<glyph unicode="&#xfb;" horiz-adv-x="1171" d="M102 950v64l338 30l41 -10l-166 -776q-16 -85 27.5 -115t134.5 25l205 131l158 725h192l-201 -918l252 164v-100l-178 -119q-31 -21 -45.5 -30.5t-48.5 -22t-66 -12.5q-51 0 -82.5 40t-15.5 111l8 43l-211 -143q-75 -53 -153 -53q-102 0 -145.5 79.5t-16.5 202.5l137 668 zM338 1268l326 243h59l215 -254l-51 -49l-211 142l-303 -144z" />
<glyph unicode="&#xfc;" horiz-adv-x="1171" d="M102 950v64l338 30l41 -10l-166 -776q-16 -85 27.5 -115t134.5 25l205 131l158 725h192l-201 -918l252 164v-100l-178 -119q-31 -21 -45.5 -30.5t-48.5 -22t-66 -12.5q-51 0 -82.5 40t-15.5 111l8 43l-211 -143q-75 -53 -153 -53q-102 0 -145.5 79.5t-16.5 202.5l137 668 zM344 1327q0 53 34 93t97 40q49 0 81 -32.5t32 -86.5q0 -53 -34 -93t-97 -40q-49 0 -81 32.5t-32 86.5zM739 1327q0 53 34 93t97 40q49 0 81 -32.5t32 -86.5q0 -53 -34 -93t-97 -40q-49 0 -81 32.5t-32 86.5z" />
<glyph unicode="&#xfd;" horiz-adv-x="1050" d="M2 -410q70 71 218 170.5t204 151.5l-186 1020l-168 18v64l305 30l41 -10l157 -923q107 181 181.5 411.5t83.5 409.5l-162 18v64l262 26l43 -10q0 -171 -61.5 -377.5t-147.5 -376t-182 -299.5q-84 -114 -157 -196t-178 -184.5t-138 -137.5zM539 1278l354 313l106 -147 l-413 -236z" />
<glyph unicode="&#xfe;" horiz-adv-x="1093" d="M-205 -449l162 23l405 1868l-163 16v64l338 30l41 -10l-154 -700l219 147q79 55 152 55q99 0 150.5 -69.5t51.5 -226.5q0 -151 -46 -292.5t-122.5 -245.5t-181 -167t-215.5 -63q-99 0 -184 45l-98 -451l225 -23v-63h-580v63zM285 201q27 -64 74 -99.5t98 -35.5 q67 0 130 63.5t107 162t70.5 217t26.5 228.5q0 166 -76 166q-11 0 -20.5 -2t-21 -7t-16.5 -7.5t-18.5 -11t-15.5 -9.5l-224 -143z" />
<glyph unicode="&#xff;" horiz-adv-x="1050" d="M2 -410q70 71 218 170.5t204 151.5l-186 1020l-168 18v64l305 30l41 -10l157 -923q107 181 181.5 411.5t83.5 409.5l-162 18v64l262 26l43 -10q0 -171 -61.5 -377.5t-147.5 -376t-182 -299.5q-84 -114 -157 -196t-178 -184.5t-138 -137.5zM279 1325q0 53 34 93t97 40 q48 0 80 -32.5t32 -86.5q0 -53 -34 -93t-97 -40q-48 0 -80 32.5t-32 86.5zM674 1325q0 53 34 93t97 40q49 0 81 -32.5t32 -86.5q0 -52 -34.5 -92.5t-97.5 -40.5q-48 0 -80 32.5t-32 86.5z" />
<glyph unicode="&#x131;" horiz-adv-x="667" d="M109 139l172 795l-166 16v64l338 30l41 -10l-199 -930l252 166v-100l-178 -119q-31 -21 -45.5 -30.5t-48.5 -22t-66 -12.5q-51 0 -83.5 41t-16.5 112z" />
<glyph unicode="&#x152;" horiz-adv-x="1955" d="M115 500q0 127 28 258t88.5 258t145.5 225.5t210.5 159.5t272.5 61q225 0 328 -170l24 142h764l-61 -349h-84l2 234l-436 12l-97 -547h400l-23 -125l-395 23l-102 -580l450 9l109 243h84l-80 -354h-785l19 102q-163 -131 -395 -131q-121 0 -211.5 37.5t-146 108.5 t-82.5 166.5t-27 216.5zM332 535q0 -82 9 -149t31 -127.5t57 -101.5t90.5 -65t127.5 -24q116 0 212.5 66.5t154.5 182.5l116 656q-20 393 -299 393q-95 0 -177 -48t-140 -129.5t-100 -188.5t-62 -225.5t-20 -239.5z" />
<glyph unicode="&#x153;" horiz-adv-x="1585" d="M74 342q0 94 21.5 191t67 189t109 163.5t155 115t198.5 43.5q101 0 174 -43.5t110 -123.5q75 79 168 123t191 44q125 0 193.5 -59t68.5 -143q0 -195 -305 -301l-301 -103q-2 -20 -2 -57q0 -137 43.5 -208t113.5 -71q52 0 93.5 18t91.5 56l125 96v-104l-95 -72 q-76 -59 -138.5 -88t-129.5 -28q-93 0 -161 43.5t-107 123.5q-147 -167 -361 -167q-151 0 -237 94.5t-86 267.5zM279 334q0 -268 155 -268q63 0 115 39t86.5 106t56 137t35.5 150q0 1 1 3t1 3q19 130 19 194q0 122 -38 191t-118 69q-69 0 -125 -45.5t-90 -114t-57 -155.5 t-32 -164t-9 -145zM934 535l149 57q125 47 180.5 105.5t55.5 142.5q0 51 -29.5 80.5t-72.5 29.5q-69 0 -129 -61t-98 -152.5t-56 -201.5z" />
<glyph unicode="&#x178;" horiz-adv-x="1247" d="M104 1370v64h494v-64l-158 -27l183 -456q13 -33 28 -78t24 -73l9 -29h8q47 78 119 184l195 289q25 37 46 76t30 59l8 20l-136 35v64h432v-64l-137 -31l-508 -727l-94 -522l162 -27l-2 -63h-528l2 63l165 27l95 522l-299 731zM489 1710q0 53 34.5 93t97.5 40 q48 0 80 -32.5t32 -86.5q0 -53 -34 -93t-97 -40q-49 0 -81 32.5t-32 86.5zM885 1710q0 53 34 93t97 40q48 0 80 -32.5t32 -86.5q0 -53 -34 -93t-97 -40q-48 0 -80 32.5t-32 86.5z" />
<glyph unicode="&#x192;" horiz-adv-x="833" d="M-399 -469l45 147q56 -5 140 -32t130 -27q77 0 113.5 49t60.5 176l207 1065l-197 2l2 113h220l18 96q41 215 144.5 325.5t289.5 110.5q50 0 131.5 -18t132.5 -22l-45 -148q-57 5 -140.5 33.5t-129.5 28.5q-75 0 -114.5 -45t-57.5 -140l-41 -221h350v-123l-375 4 l-194 -1011q-13 -65 -31 -119t-50.5 -108.5t-75 -92t-106.5 -61t-143 -23.5q-63 0 -150.5 19t-133.5 22z" />
<glyph unicode="&#x2c6;" horiz-adv-x="786" d="M66 1212l325 244h60l215 -254l-52 -49l-211 141l-303 -143z" />
<glyph unicode="&#x2c7;" horiz-adv-x="786" d="M63 1405l52 49l211 -143l303 145l35 -61l-326 -244h-59z" />
<glyph unicode="&#x2d8;" horiz-adv-x="815" d="M152 1356l53 12q12 -79 64 -124.5t134 -45.5q78 0 152.5 46t120.5 124l45 -12q-41 -138 -132 -218.5t-216 -80.5q-116 0 -178 77t-43 222z" />
<glyph unicode="&#x2d9;" horiz-adv-x="380" d="M76 1159q0 53 34 93t97 40q49 0 80.5 -32t31.5 -86q0 -53 -34 -93.5t-97 -40.5q-48 0 -80 32.5t-32 86.5z" />
<glyph unicode="&#x2da;" horiz-adv-x="630" d="M80 1257q0 96 69.5 149.5t159.5 53.5q83 0 135 -42.5t52 -119.5q0 -96 -69.5 -149t-160.5 -53q-83 0 -134.5 42t-51.5 119zM182 1268q0 -46 24.5 -72.5t67.5 -26.5q50 0 84.5 33.5t34.5 85.5q0 46 -24.5 72t-67.5 26q-50 0 -84.5 -33t-34.5 -85z" />
<glyph unicode="&#x2db;" horiz-adv-x="436" d="M12 -254q0 108 117 193q26 19 60.5 34.5t55.5 20.5l21 6h101q-1 -1 -18.5 -10.5l-35 -19t-38 -23t-31.5 -23.5q-70 -56 -70 -127q0 -54 33.5 -79t83.5 -25q33 0 71 8.5t60 16.5l22 8v-54q-14 -8 -38 -19.5t-88.5 -30.5t-118.5 -19q-79 0 -133 36t-54 107z" />
<glyph unicode="&#x2dc;" horiz-adv-x="868" d="M57 1135q80 213 232 213q46 0 89 -15t70 -33.5t62.5 -33.5t69.5 -15q32 0 61.5 20.5t67.5 74.5l71 -27q-37 -100 -86 -155.5t-127 -55.5q-48 0 -89.5 14.5t-66 32.5t-57.5 32.5t-67 14.5q-49 0 -81.5 -19.5t-74.5 -68.5z" />
<glyph unicode="&#x2dd;" horiz-adv-x="1038" d="M115 1104l336 336l114 -142l-399 -260zM500 1104l336 336l114 -142l-399 -260z" />
<glyph unicode="&#x401;" horiz-adv-x="1148" d="M4 63l164 27l225 1253l-162 27v64h938l-61 -349h-84l2 234l-436 12l-96 -547h399l-23 -125l-395 23l-102 -580l450 9l109 243h84l-80 -354h-930zM459 1708q0 53 34 93t97 40q48 0 80 -32.5t32 -86.5q0 -53 -34 -93t-97 -40q-48 0 -80 32.5t-32 86.5zM854 1708q0 53 34 93 t97 40q49 0 81 -32.5t32 -86.5q0 -53 -34 -93t-97 -40q-49 0 -81 32.5t-32 86.5z" />
<glyph unicode="&#x402;" horiz-adv-x="1462" d="M135 1085l60 349h1114l-60 -349h-94v230l-321 18l-89 -493q127 51 228 51q179 0 280 -94t101 -256q0 -143 -38 -261t-107 -203.5t-158.5 -145.5t-200.5 -99l-31 62q166 87 248 248.5t82 379.5q0 240 -244 240q-108 0 -176 -17l-117 -655l162 -27l-2 -63h-528l2 63l166 27 l221 1243l-326 -18l-96 -230h-76z" />
<glyph unicode="&#x403;" horiz-adv-x="1075" d="M4 63l164 27l225 1253l-162 27v64h938l-61 -349h-84l2 234l-436 12l-221 -1241l184 -27v-63h-547zM670 1663l354 313l106 -147l-413 -236z" />
<glyph unicode="&#x404;" horiz-adv-x="1206" d="M113 528q0 129 35 261.5t104.5 252.5t163.5 214t223 150t272 56q59 0 115 -8.5t94 -20.5t67.5 -24t43.5 -21l14 -8l-63 -295h-80l4 222q-88 59 -215 59q-185 0 -336 -168.5t-203 -433.5l555 35l-26 -160l-545 25q-6 -64 -6 -129q0 -205 103 -335t284 -130q54 0 143 26 l103 258h86l-66 -303q-5 -3 -14 -8.5t-40 -19.5t-64.5 -24.5t-85.5 -19t-105 -8.5q-178 0 -307 76.5t-191.5 201t-62.5 279.5z" />
<glyph unicode="&#x405;" horiz-adv-x="1050" d="M45 51l76 303h78v-245q94 -31 229 -31q128 0 211.5 69t83.5 187q0 51 -11 92.5t-28 72t-51 63.5t-65 56.5t-85 59.5q-118 81 -153 111q-124 108 -136 246q-1 16 -1 32q0 78 34 149t96 126t156.5 87.5t206.5 32.5q67 0 126 -9t96 -22t65 -26t39 -22l12 -9l-76 -289h-80 v222q-93 49 -198 49q-131 0 -212 -67t-81 -179q0 -41 11 -75t27.5 -60t52 -58t67 -55t90.5 -63q41 -28 60 -41.5t55.5 -42.5t55 -50t44 -54.5t38 -66t22 -75.5t9.5 -90q0 -179 -127.5 -293.5t-369.5 -114.5q-104 0 -195.5 20t-131.5 40z" />
<glyph unicode="&#x406;" horiz-adv-x="716" d="M-10 0l4 43l174 47l219 1253l-154 48l7 43h528l-6 -43l-174 -48l-219 -1253l153 -47l-6 -43h-526z" />
<glyph unicode="&#x407;" horiz-adv-x="722" d="M4 0v63l164 27l225 1253l-162 27v64h529v-64l-166 -27l-225 -1253l161 -27v-63h-526zM213 1712q0 53 34 93t97 40q49 0 81 -32.5t32 -86.5q0 -53 -34 -93t-97 -40q-49 0 -81 32.5t-32 86.5zM608 1712q0 53 34 93t97 40q49 0 81 -32.5t32 -86.5q0 -53 -34 -93t-97 -40 q-49 0 -81 32.5t-32 86.5z" />
<glyph unicode="&#x408;" horiz-adv-x="692" d="M-76 -289l105 119q68 76 94 142t49 190l211 1181l-162 27v64h529v-64l-166 -27l-193 -1075q-25 -145 -78 -241q-13 -24 -27 -46.5t-33 -46.5t-31.5 -40.5t-38 -42.5t-36.5 -38t-42 -41t-39.5 -37.5t-45 -41.5t-43.5 -39z" />
<glyph unicode="&#x409;" horiz-adv-x="1898" d="M-78 160q53 -4 76 -4q82 0 138.5 48t101.5 138q72 139 162 468.5t126 532.5l-157 27v64h1089v-64l-190 -27l-86 -493h180q227 0 334.5 -84.5t107.5 -251.5q0 -148 -76.5 -265t-214 -183t-311.5 -66h-524v63l170 27l215 1233h-416q-162 -772 -319 -1081 q-131 -262 -299 -262q-32 0 -58.5 5t-36.5 10l-10 5zM1051 102h131q190 0 302.5 110.5t112.5 285.5q0 132 -72.5 191t-236.5 59h-125z" />
<glyph unicode="&#x40a;" horiz-adv-x="2043" d="M4 0v63l164 27l225 1253l-162 27l2 64h529l-2 -64l-166 -27l-100 -555h620l98 555l-155 27v64h547v-64l-191 -27l-86 -493h180q227 0 335 -84.5t108 -251.5q0 -148 -76.5 -265t-214 -183t-311.5 -66h-525v63l170 27l105 596h-623l-106 -596l161 -27l-2 -63h-524z M1196 102h131q190 0 303 110.5t113 285.5q0 132 -72.5 191t-236.5 59h-125z" />
<glyph unicode="&#x40b;" horiz-adv-x="1540" d="M135 1085l60 349h1114l-60 -349h-94v230l-321 18l-91 -499q176 57 306 57q99 0 167 -31.5t100 -87.5t41 -132.5t-9 -166.5l-68 -383l158 -27l-2 -63h-506l2 63l149 27l64 369q14 62 12 117.5t-17.5 96.5t-60.5 65t-118 24q-65 0 -234 -25l-115 -647l162 -27l-2 -63h-528 l2 63l166 27l221 1243l-326 -18l-96 -230h-76z" />
<glyph unicode="&#x40c;" horiz-adv-x="1316" d="M4 0v63l164 27l225 1253l-162 27v64h519v-64l-156 -27l-98 -546h151l426 546l-127 27v64h438v-64l-153 -27l-477 -557l385 -706l96 -17v-63h-277l-372 694h-109l-108 -604l161 -27l-2 -63h-524zM815 1663l354 313l107 -147l-414 -236z" />
<glyph unicode="&#x40e;" horiz-adv-x="1232" d="M125 1370v64h475v-64l-145 -29l180 -700l31 -158h8q30 86 71 162l342 696l-161 29v64h454v-64l-153 -31l-555 -1048q-166 -311 -377 -311q-44 0 -79 11t-48 21l-12 11l26 143q61 -23 133 -23q133 0 232 146l-279 1052zM420 1737l133 125q18 -19 47 -58.5t49.5 -64 t57 -45.5t79.5 -21t87 21t73 45t72.5 64.5t66.5 58.5l89 -125q-68 -56 -175.5 -100t-226.5 -44q-124 0 -213 43.5t-139 100.5z" />
<glyph unicode="&#x40f;" horiz-adv-x="1568" d="M0 0v63l170 27l221 1253l-160 27l2 64h527v-64l-168 -27l-219 -1241h645l219 1241l-160 27v64h531l-2 -64l-168 -27l-221 -1253l157 -27v-63h-610l-92 -377h-88l2 377h-586z" />
<glyph unicode="&#x410;" horiz-adv-x="1292" d="M-100 0v63l149 27l658 1346l170 12l194 -1358l146 -27v-63h-498v63l143 27l-45 336h-477l-49 -109q-52 -112 -88 -227l170 -27v-63h-473zM389 528h414l-70 525l-18 182h-8q-25 -80 -70 -176z" />
<glyph unicode="&#x411;" horiz-adv-x="1236" d="M4 63l168 27l219 1253l-158 27l-2 64h959l-62 -349h-84v234h-454l-84 -469h178q207 0 318.5 -93.5t113.5 -248.5q3 -143 -78.5 -260.5t-222 -182.5t-309.5 -65h-500zM375 102h143q95 0 172.5 34t125 90t72.5 122.5t23 134.5q-2 126 -74.5 195.5t-224.5 69.5h-125z" />
<glyph unicode="&#x412;" horiz-adv-x="1253" d="M4 0v63l164 27l225 1253l-162 27v64h471q222 0 334.5 -81.5t112.5 -226.5q0 -134 -91 -235t-214 -131l-2 -6q125 -19 204.5 -99.5t79.5 -195.5q0 -111 -49 -200t-133 -144.5t-191.5 -85t-230.5 -29.5h-518zM373 102h164q173 0 279 91.5t106 244.5q0 121 -68.5 189.5 t-200.5 68.5h-176zM496 799h229q101 38 157 117.5t56 181.5q0 233 -268 233h-80z" />
<glyph unicode="&#x413;" horiz-adv-x="1075" d="M4 63l164 27l225 1253l-162 27v64h938l-61 -349h-84l2 234l-436 12l-221 -1241l184 -27v-63h-547z" />
<glyph unicode="&#x414;" horiz-adv-x="1394" d="M-176 -377l84 479h108q97 86 193.5 253t185 426.5t140.5 561.5l-160 27v64h1048l-2 -64l-168 -27l-219 -1241h211l-80 -479h-84v377h-1050l-123 -377h-84zM164 102h670l215 1227h-398q-93 -461 -220 -770.5t-267 -456.5z" />
<glyph unicode="&#x415;" horiz-adv-x="1148" d="M4 63l164 27l225 1253l-162 27v64h938l-61 -349h-84l2 234l-436 12l-96 -547h399l-23 -125l-395 23l-102 -580l450 9l109 243h84l-80 -354h-930z" />
<glyph unicode="&#x416;" horiz-adv-x="1900" d="M-102 0v63l108 19l633 725l-301 536l-141 27v64h432v-64l-140 -27l263 -546h131l98 546l-152 27v64h510v-64l-157 -27l-99 -546h131l457 546l-129 27v64h440v-64l-153 -27l-506 -557l391 -706l98 -17v-63h-264l-383 694h-100l-109 -604l162 -27l-2 -63h-524v63l164 27 l108 604h-104l-594 -694h-268z" />
<glyph unicode="&#x417;" horiz-adv-x="1030" d="M-18 51l63 303h74v-252q82 -24 184 -24q177 0 279 98.5t102 249.5q0 274 -291 274h-90l19 103h86q89 0 161.5 28.5t116 74.5t67 100.5t23.5 111.5q0 107 -55.5 172.5t-169.5 65.5q-106 0 -199 -43l-41 -221h-80v288q5 3 14.5 8.5t44 20t74.5 25t106.5 19.5t139.5 9 q184 0 277.5 -86t93.5 -219q0 -76 -32.5 -145t-86.5 -118.5t-119 -83.5t-133 -48v-6q133 -10 207 -92.5t74 -212.5q0 -89 -43 -175.5t-117.5 -154t-184.5 -109t-235 -41.5q-90 0 -172.5 20t-119.5 40z" />
<glyph unicode="&#x418;" horiz-adv-x="1566" d="M2 0v63l170 27l219 1253l-158 27v64h529v-64l-170 -27l-172 -958q-4 -27 -14 -70.5t-18 -73.5l-7 -30h12q59 98 96 145l762 1078h355v-64l-170 -27l-219 -1253l157 -27l-2 -63h-528l2 63l170 27l176 1010q4 22 10.5 50.5t11.5 45.5l5 18h-11q-36 -63 -69 -104l-783 -1110 h-354z" />
<glyph unicode="&#x419;" horiz-adv-x="1566" d="M2 0v63l170 27l219 1253l-158 27v64h529v-64l-170 -27l-172 -958q-4 -27 -14 -70.5t-18 -73.5l-7 -30h12q59 98 96 145l762 1078h355v-64l-170 -27l-219 -1253l157 -27l-2 -63h-528l2 63l170 27l176 1010q4 22 10.5 50.5t11.5 45.5l5 18h-11q-36 -63 -69 -104l-783 -1110 h-354zM614 1737l134 125q18 -19 47 -58.5t49.5 -64t57 -45.5t79.5 -21t87 21t73 45t72.5 64.5t66.5 58.5l88 -125q-68 -56 -175 -100t-226 -44q-124 0 -213.5 43.5t-139.5 100.5z" />
<glyph unicode="&#x41a;" horiz-adv-x="1316" d="M4 0v63l164 27l225 1253l-162 27v64h519v-64l-156 -27l-98 -546h151l426 546l-127 27v64h438v-64l-153 -27l-477 -557l385 -706l96 -17v-63h-277l-372 694h-109l-108 -604l161 -27l-2 -63h-524z" />
<glyph unicode="&#x41b;" horiz-adv-x="1396" d="M-78 160q53 -4 76 -4q82 0 138.5 48t101.5 138q72 139 162 468.5t126 532.5l-157 27v64h1067v-64l-170 -27l-222 -1253l160 -27v-63h-528v63l168 27l219 1233h-416q-162 -772 -319 -1081q-131 -262 -299 -262q-32 0 -58.5 5t-36.5 10l-10 5z" />
<glyph unicode="&#x41c;" horiz-adv-x="1798" d="M6 0v63l164 35l223 1245l-162 27v64h406l207 -820q7 -29 13 -64.5t9 -55.5l2 -21h6q29 61 74 135l510 826h377v-64l-166 -27l-223 -1249l160 -31v-63h-516v63l167 31l170 961q8 45 20 102t20 91l8 34h-7q-59 -123 -110 -205l-547 -872h-41l-225 876q-16 59 -27.5 111.5 t-15.5 75.5l-4 22h-6q-4 -81 -33 -241l-170 -951l160 -35v-63h-443z" />
<glyph unicode="&#x41d;" horiz-adv-x="1546" d="M4 0v63l164 27l225 1253l-162 27l2 64h529l-2 -64l-166 -27l-100 -555h622l101 555l-162 27l2 64h528l-2 -64l-166 -27l-225 -1253l162 -27l-2 -63h-529l2 63l166 27l107 596h-623l-106 -596l161 -27l-2 -63h-524z" />
<glyph unicode="&#x41e;" d="M113 500q0 104 21 214t61 217.5t103 203t141.5 169t182.5 116t220 42.5q243 0 378.5 -143.5t135.5 -384.5q0 -104 -21 -214t-61 -218t-103 -203.5t-141.5 -169t-182.5 -116t-220 -42.5q-242 0 -378 143.5t-136 385.5zM330 535q0 -135 31.5 -237t104 -166t179.5 -64 q99 0 192 74t158.5 191.5t104.5 267.5t39 298q0 135 -32 237.5t-104.5 166t-179.5 63.5q-134 0 -249.5 -125t-179.5 -315.5t-64 -390.5z" />
<glyph unicode="&#x41f;" horiz-adv-x="1548" d="M2 63l170 27l219 1253l-158 27l3 64h1351l-2 -64l-170 -27l-219 -1253l158 -27v-63h-529v63l170 27l217 1241h-622l-217 -1241l157 -27v-63h-526z" />
<glyph unicode="&#x420;" horiz-adv-x="1206" d="M4 0v63l164 27l225 1253l-162 27v64h504q228 0 350.5 -91t122.5 -264q0 -153 -80.5 -270.5t-218 -179.5t-307.5 -62h-147l-86 -477l204 -27v-63h-569zM473 670h148q77 0 145 25t120 72t82.5 120.5t30.5 163.5q0 280 -311 280h-98z" />
<glyph unicode="&#x421;" horiz-adv-x="1212" d="M113 528q0 129 35 261.5t104.5 252.5t163.5 214t223 150t272 56q59 0 115 -8.5t94 -20.5t67.5 -24t43.5 -21l14 -8l-63 -295h-80l4 222q-88 59 -215 59q-109 0 -211.5 -64t-179.5 -173.5t-123.5 -265t-46.5 -328.5q0 -205 103 -335t284 -130q54 0 143 26l103 258h86 l-66 -303q-5 -3 -14 -8.5t-40 -19.5t-64.5 -24.5t-85.5 -19t-105 -8.5q-178 0 -307 76.5t-191.5 201t-62.5 279.5z" />
<glyph unicode="&#x422;" horiz-adv-x="1218" d="M135 1085l60 349h1114l-60 -349h-94v230l-321 18l-222 -1243l162 -27l-2 -63h-528l2 63l166 27l221 1243l-326 -18l-96 -230h-76z" />
<glyph unicode="&#x423;" horiz-adv-x="1232" d="M125 1370v64h475v-64l-145 -29l180 -700l31 -158h8q30 86 71 162l342 696l-161 29v64h454v-64l-153 -31l-555 -1048q-166 -311 -377 -311q-44 0 -79 11t-48 21l-12 11l26 143q61 -23 133 -23q133 0 232 146l-279 1052z" />
<glyph unicode="&#x424;" horiz-adv-x="1622" d="M90 657q0 105 27 201.5t86.5 183t146 151t213 102.5t279.5 40l24 133l-141 17l2 61h481v-61l-149 -17l-25 -133q119 -2 215.5 -32t158.5 -76.5t103.5 -107.5t58.5 -123t17 -126q0 -106 -27 -202.5t-86.5 -182.5t-146 -150t-213 -102t-280.5 -40l-21 -125l139 -25v-61 h-487v61l156 25l20 125q-119 2 -215 31t-157.5 75.5t-103 107.5t-58.5 123t-17 127zM293 678q0 -167 94.5 -277.5t269.5 -117.5l168 960q-115 -2 -211.5 -39t-168 -106.5t-112 -177t-40.5 -242.5zM850 285q115 2 212 39t169 107t112.5 177t40.5 242q0 167 -94.5 277.5 t-269.5 117.5z" />
<glyph unicode="&#x425;" horiz-adv-x="1347" d="M-78 0v63l141 33l533 606l-299 639l-141 29v64h542v-64l-180 -27l225 -514q39 54 109 140l166 205q31 38 56.5 78t35.5 60l10 21l-151 37v64h479v-64l-145 -31l-512 -591l313 -658l143 -27v-63h-540v63l184 27l-248 533q-34 -60 -104 -142l-189 -221q-31 -36 -58.5 -77 t-39.5 -64l-12 -23l157 -33v-63h-475z" />
<glyph unicode="&#x426;" horiz-adv-x="1576" d="M0 0v63l170 27l221 1253l-160 27v64h529v-64l-168 -27l-219 -1241h643l219 1241l-160 27v64h529v-64l-168 -27l-219 -1241h210l-81 -479h-84l2 377h-1264z" />
<glyph unicode="&#x427;" horiz-adv-x="1404" d="M147 1370v64h529v-64l-170 -27l-45 -256q-70 -395 264 -395q109 0 238 21l110 630l-158 27v64h529v-64l-170 -27l-219 -1253l157 -27v-63h-569v63l211 27l92 526q-157 -36 -293 -36q-122 0 -209.5 37t-132.5 102t-60.5 154t5.5 194l49 276z" />
<glyph unicode="&#x428;" horiz-adv-x="2099" d="M2 63l170 27l219 1253l-158 27v64h529v-64l-170 -27l-217 -1241h487l217 1241l-157 27v64h528v-64l-170 -27l-217 -1241h487l217 1241l-157 27v64h528v-64l-170 -27l-219 -1253l158 -27v-63h-1903z" />
<glyph unicode="&#x429;" horiz-adv-x="2109" d="M-2 0l2 63l170 27l221 1253l-160 27v64h529v-64l-168 -27l-219 -1241h487l219 1241l-159 27v64h528v-64l-168 -27l-219 -1241h487l219 1241l-159 27v64h528v-64l-168 -27l-219 -1241h211l-80 -479h-84v377h-1798z" />
<glyph unicode="&#x42a;" horiz-adv-x="1439" d="M135 1085l64 349h800v-64l-190 -27l-86 -493h180q227 0 335 -84.5t108 -251.5q0 -224 -169.5 -369t-433.5 -145h-524v63l170 27l215 1235l-293 -8l-100 -232h-76zM592 102h131q190 0 303 110.5t113 285.5q0 132 -73 191t-237 59h-124z" />
<glyph unicode="&#x42b;" horiz-adv-x="1855" d="M2 0v63l170 27l219 1253l-155 27v64h546v-64l-190 -27l-86 -493h180q227 0 334.5 -84.5t107.5 -251.5q0 -148 -76.5 -265t-214 -183t-311.5 -66h-524zM375 102h131q190 0 303 110.5t113 285.5q0 132 -73 191t-237 59h-125zM1137 0v63l163 27l226 1253l-162 27v64h528v-64 l-166 -27l-225 -1253l162 -27v-63h-526z" />
<glyph unicode="&#x42c;" horiz-adv-x="1222" d="M2 0v63l170 27l219 1253l-155 27v64h546v-64l-190 -27l-86 -493h180q227 0 334.5 -84.5t107.5 -251.5q0 -148 -76.5 -265t-214 -183t-311.5 -66h-524zM375 102h131q190 0 303 110.5t113 285.5q0 132 -73 191t-237 59h-125z" />
<glyph unicode="&#x42d;" horiz-adv-x="1150" d="M6 51l64 303h73v-252q96 -34 211 -34q83 0 161 40t143 114t113 188t67 252l-525 -25l25 145l510 -12q4 58 4 88q0 498 -317 498q-106 0 -199 -43l-41 -221h-80v288q5 3 15.5 8.5t45 20t72.5 25t97 19.5t120 9q134 0 233 -44.5t157 -124t86 -180.5t28 -224 q0 -204 -62.5 -379.5t-166 -291.5t-235 -181.5t-271.5 -65.5q-89 0 -171 20t-119 40z" />
<glyph unicode="&#x42e;" horiz-adv-x="2021" d="M4 0v63l164 27l225 1253l-162 27v64h529v-64l-166 -27l-100 -555h254q26 106 68.5 201t107.5 182.5t145 151.5t187 101.5t229 37.5q234 0 347.5 -141t113.5 -389q0 -89 -14.5 -182t-45 -187.5t-75.5 -181t-109 -161.5t-141 -130t-177.5 -87t-212.5 -32q-234 0 -347 140.5 t-113 388.5q0 98 14 186h-250l-106 -596l161 -27v-63h-526zM928 535q0 -82 9 -149t31 -127.5t57 -101.5t90.5 -65t127.5 -24q90 0 169.5 48t136.5 129.5t98 188t61.5 225.5t20.5 240q0 467 -320 467q-111 0 -204 -73.5t-152.5 -193t-92 -266t-32.5 -298.5z" />
<glyph unicode="&#x42f;" horiz-adv-x="1314" d="M-45 0v49l78 29l426 524q-100 39 -163 127t-63 209q0 229 168.5 362.5t452.5 133.5h504v-43l-172 -48l-221 -1253l155 -47v-43h-571v43l215 47l82 469h-217l-434 -559h-240zM438 973q0 -161 82 -238.5t217 -77.5h127l119 674h-119q-212 0 -319 -99.5t-107 -258.5z" />
<glyph unicode="&#x430;" horiz-adv-x="1150" d="M68 287q0 201 77 376t207 278t279 103q140 0 233 -75l105 67l41 -10l-199 -924l254 168v-100l-178 -119q-31 -21 -45.5 -30.5t-48.5 -22t-66 -12.5q-51 0 -83.5 41t-16.5 112l10 47l-135 -100q-69 -53 -122 -74.5t-110 -21.5q-86 0 -144 74.5t-58 222.5zM274 317 q0 -186 86 -186q49 0 113 45l191 137l112 525q-50 120 -149 120q-96 0 -179 -99.5t-128.5 -246.5t-45.5 -295z" />
<glyph unicode="&#x431;" horiz-adv-x="1081" d="M131 549q26 202 82.5 361.5t137 266.5t177.5 172.5t211 90.5q20 4 107 19.5t129 25.5q10 3 19 6t16 5.5t14 7.5t11.5 7.5t10.5 9.5t9 9.5t9 12t8 13t9.5 15t10.5 16.5h59q-10 -48 -20 -82.5t-27.5 -72t-40.5 -62.5t-58 -46t-81 -32q-60 -14 -250 -47 q-167 -30 -272 -155.5t-158 -368.5l6 -2q49 137 150.5 218t254.5 81q150 0 233 -98.5t83 -266.5q0 -124 -38 -244.5t-104 -215.5t-163.5 -154t-208.5 -59q-192 0 -276.5 145.5t-49.5 423.5zM322 328q0 -122 37.5 -189t111.5 -67q68 0 126 56.5t95.5 145.5t58.5 194.5 t21 207.5q0 116 -37.5 183t-113.5 67q-65 0 -118.5 -43.5t-86 -109.5t-55 -149t-31 -157t-8.5 -139z" />
<glyph unicode="&#x432;" horiz-adv-x="976" d="M72 342q0 94 21.5 191t67.5 189t109.5 163.5t155.5 115t199 43.5q121 0 183 -57.5t62 -159.5q0 -94 -62 -169t-167 -109v-8q90 -4 138 -58t48 -141q0 -101 -58.5 -184.5t-157.5 -130.5t-216 -47q-151 0 -237 94.5t-86 267.5zM276 334q0 -129 39 -198.5t117 -69.5 q88 0 146.5 79t58.5 185q0 176 -176 149l-178 -28q-7 -75 -7 -117zM293 532l274 41q53 41 86 110.5t33 139.5q0 135 -96 135q-64 0 -116.5 -37.5t-87 -101.5t-57.5 -135t-36 -152z" />
<glyph unicode="&#x433;" horiz-adv-x="763" d="M66 154q1 53 31 108t98 135q23 28 116 138t129 159q44 57 53.5 105t-13.5 74t-68 26q-58 0 -138 -46t-159 -132v115q195 208 368 208q80 0 132.5 -45t48.5 -133q-1 -53 -31 -108t-98 -135q-34 -41 -120.5 -144.5t-125.5 -152.5q-44 -57 -53.5 -105t13.5 -74t68 -26 q58 0 139 46t160 132v-115q-196 -209 -370 -209q-80 0 -132 45.5t-48 133.5z" />
<glyph unicode="&#x434;" horiz-adv-x="1085" d="M86 358q0 93 20.5 185t61.5 175t98 147t135.5 101.5t167.5 37.5q136 0 209 -111q-21 245 -104 392t-236 231l25 45q121 -35 218 -118.5t157 -193.5t91.5 -233.5t31.5 -249.5q0 -123 -19.5 -235.5t-62.5 -213.5t-106 -175.5t-156 -118t-207 -43.5q-156 0 -240 97t-84 281z M287 344q0 -135 38.5 -206.5t112.5 -71.5q102 0 176 79.5t108 201t34 265.5q0 141 -49 217t-140 76q-55 0 -102.5 -38t-79.5 -98.5t-54.5 -136t-33 -149t-10.5 -139.5z" />
<glyph unicode="&#x435;" horiz-adv-x="944" d="M76 356q0 190 77 349.5t203.5 249t270.5 89.5q125 0 193.5 -59t68.5 -143q0 -195 -305 -301l-301 -103q-2 -20 -2 -57q0 -137 43.5 -208t113.5 -71q52 0 93.5 18t91.5 56l125 96v-104l-95 -72q-76 -59 -138.5 -88t-129.5 -28q-142 0 -225.5 102t-83.5 274zM293 535 l149 57q125 47 180.5 105.5t55.5 142.5q0 51 -30 80.5t-73 29.5q-69 0 -129 -61t-97.5 -152.5t-55.5 -201.5z" />
<glyph unicode="&#x436;" horiz-adv-x="1673" d="M-27 4l37 166q32 -10 59 -34.5t48.5 -42t46.5 -17.5q38 0 78 47.5t72 126t52.5 190t20.5 230.5q0 241 -92 241q-27 0 -66 -28l-96 -72v107l66 49q59 45 94.5 61t87.5 16q180 0 180 -294q0 -214 -90 -390h10l291 328l74 336h164l-113 -530l332 368q39 47 63.5 73t60.5 55 t74.5 41.5t85.5 12.5q33 0 55.5 -3.5t48.5 -10t50 -10.5l-37 -166q-32 10 -59 34.5t-48 42t-46 17.5q-51 0 -102.5 -78.5t-86.5 -218.5t-35 -297q0 -241 93 -241q26 0 65 28l96 72v-107l-65 -49q-59 -45 -94.5 -61t-87.5 -16q-181 0 -181 294q0 97 32.5 216t70.5 194h-8 l-312 -350l-69 -334h-168l112 526l-325 -364q-38 -46 -63 -72.5t-61 -55.5t-75 -41.5t-86 -12.5q-33 0 -55.5 3.5t-48.5 10t-50 10.5z" />
<glyph unicode="&#x437;" horiz-adv-x="845" d="M-33 102l90 138q41 -27 79.5 -61.5t59 -56t49 -37t60.5 -15.5q84 0 141.5 74t57.5 178q0 184 -195 184h-88l17 82h92q99 0 156 54t57 163q0 65 -31 107t-90 42q-42 0 -84 -24t-93 -53t-106 -37v147q31 4 77 19t101.5 26.5t126.5 11.5q134 0 212.5 -55t78.5 -164 q0 -97 -64 -172t-188 -100v-8q91 -8 151 -65.5t60 -151.5q0 -99 -55 -180t-143 -124.5t-189 -43.5q-105 0 -175.5 28.5t-164.5 93.5z" />
<glyph unicode="&#x438;" horiz-adv-x="1171" d="M102 950v64l338 30l41 -10l-166 -776q-16 -85 27.5 -115t134.5 25l205 131l158 725h192l-201 -918l252 164v-100l-178 -119q-31 -21 -45.5 -30.5t-48.5 -22t-66 -12.5q-51 0 -82.5 40t-15.5 111l8 43l-211 -143q-75 -53 -153 -53q-102 0 -145.5 79.5t-16.5 202.5l137 668 z" />
<glyph unicode="&#x439;" horiz-adv-x="1171" d="M102 950v64l338 30l41 -10l-166 -776q-16 -85 27.5 -115t134.5 25l205 131l158 725h192l-201 -918l252 164v-100l-178 -119q-31 -21 -45.5 -30.5t-48.5 -22t-66 -12.5q-51 0 -82.5 40t-15.5 111l8 43l-211 -143q-75 -53 -153 -53q-102 0 -145.5 79.5t-16.5 202.5l137 668 zM336 1425l137 125q17 -18 44 -56.5t45 -61t54.5 -41.5t83.5 -19q39 0 75.5 19t62 44t64.5 59.5t73 55.5l88 -131q-69 -55 -166 -96t-203 -41q-238 0 -358 143z" />
<glyph unicode="&#x43a;" horiz-adv-x="1089" d="M84 0l199 934l-164 16v64l338 30l41 -10l-222 -1034h-192zM401 512v8q97 131 161.5 211.5t124.5 145.5t108 97t95.5 48t102.5 16l-51 -196q-42 0 -75 -7.5t-78 -32t-101 -75t-129 -131.5l229 -473l228 147v-104l-150 -98q-76 -49 -103.5 -62.5t-57.5 -13.5q-52 0 -76 49z " />
<glyph unicode="&#x43b;" horiz-adv-x="1099" d="M-61 0v152q22 -11 53 -11q47 0 89.5 28.5t78.5 84.5t67.5 125.5t60 163.5t51 185.5t46.5 205.5l-147 27v63h723l-203 -926l256 172v-100l-178 -119q-31 -21 -45.5 -30.5t-48.5 -22t-66 -12.5q-51 0 -82.5 40t-15.5 111l167 795h-264q-41 -194 -76.5 -332.5t-78 -262 t-86.5 -198t-98.5 -117t-118.5 -42.5q-25 0 -46 5t-29 10z" />
<glyph unicode="&#x43c;" horiz-adv-x="1499" d="M-27 0v147q21 -4 50 -4q42 0 80.5 33t70.5 94.5t58.5 134t50.5 167t41 177.5t34 181v4l-143 27v63h309l140 -559q8 -32 15 -68.5t10 -56.5l3 -21h10q31 70 78 138l385 567h195l-201 -922l254 168v-100l-178 -119q-31 -21 -45.5 -30.5t-48.5 -22t-66 -12.5q-51 0 -82.5 40 t-15.5 111l104 494l43 166h-8q-53 -95 -86 -142l-401 -594h-49l-140 545q-11 41 -18 79t-8 55l-2 18h-9q-8 -84 -22 -150q-72 -328 -146.5 -478t-187.5 -150q-24 0 -42.5 5t-24.5 10z" />
<glyph unicode="&#x43d;" horiz-adv-x="1171" d="M84 0l199 934l-164 16v64l338 30l41 -10l-99 -463l340 9l95 444h194l-194 -897l247 164v-121l-178 -119q-31 -21 -45.5 -30.5t-48.5 -22t-66 -12.5q-51 0 -82.5 40t-15.5 111l74 348l-340 -8l-103 -477h-192z" />
<glyph unicode="&#x43e;" horiz-adv-x="1052" d="M74 342q0 94 21.5 191t67 189t109 163.5t155 115t198.5 43.5q152 0 237.5 -94.5t85.5 -261.5q0 -93 -21 -190t-65.5 -190t-108 -166t-156 -117.5t-200.5 -44.5q-151 0 -237 94.5t-86 267.5zM279 334q0 -268 155 -268q73 0 131.5 54t91 130.5t54.5 169.5t29.5 161.5 t7.5 116.5q0 122 -38 191t-118 69q-69 0 -125 -45.5t-90 -114t-57 -155.5t-32 -164t-9 -145z" />
<glyph unicode="&#x43f;" horiz-adv-x="1175" d="M84 0l199 934l-164 16v64l338 30l41 -10l-41 -188l215 145q75 53 147 53q108 0 152 -80.5t14 -218.5l-137 -641l254 166v-100l-178 -119q-31 -21 -45.5 -30.5t-48.5 -22t-66 -12.5q-51 0 -82.5 40t-15.5 111l133 627q11 51 1 81.5t-32.5 42.5t-54.5 6t-66 -28l-215 -139 l-156 -727h-192z" />
<glyph unicode="&#x440;" horiz-adv-x="1126" d="M-172 -449l162 23l295 1360l-164 16v64l338 30l41 -10l-43 -192l219 147q79 55 151 55q100 0 151.5 -69.5t51.5 -226.5q0 -151 -46 -292.5t-122.5 -245.5t-181 -167t-215.5 -63q-99 0 -184 45l-99 -451l226 -23v-63h-580v63zM317 201q27 -64 74 -99.5t98 -35.5 q67 0 130 63.5t107 162t70.5 217t26.5 228.5q0 82 -17 124t-58 42q-9 0 -18.5 -2t-16 -4t-16.5 -7l-14 -7t-14.5 -9t-13.5 -8l-223 -143z" />
<glyph unicode="&#x441;" horiz-adv-x="882" d="M78 379q0 118 37.5 236.5t102 214t159.5 155t201 59.5q74 0 155.5 -21t102.5 -24l-54 -163q-38 10 -70 31t-49.5 39t-44 32t-57.5 14q-80 0 -145.5 -91t-99 -219t-33.5 -255q0 -147 35.5 -216t109.5 -69q52 0 93 17.5t91 56.5l125 96v-104l-94 -72q-75 -58 -137.5 -87 t-130.5 -29q-141 0 -219 105t-78 294z" />
<glyph unicode="&#x442;" horiz-adv-x="1681" d="M84 0l199 934l-164 16v64l338 30l41 -10l-41 -188l215 145q75 53 147 53q163 0 156 -202l221 149q75 53 147 53q57 0 93.5 -25.5t50 -70.5t13 -98.5t-14.5 -118.5l-131 -625l252 164v-100l-179 -119q-65 -45 -103 -57q-28 -8 -56 -8q-51 0 -83 40t-16 111l125 592 q13 59 13 98t-13.5 58.5t-43 15t-74.5 -34.5l-218 -139l-151 -727h-191l154 729q13 59 12.5 98t-13.5 58.5t-43 15t-75 -34.5l-221 -143l-154 -723h-192z" />
<glyph unicode="&#x443;" horiz-adv-x="1050" d="M2 -410q70 71 218 170.5t204 151.5l-186 1020l-168 18v64l305 30l41 -10l157 -923q107 181 181.5 411.5t83.5 409.5l-162 18v64l262 26l43 -10q0 -171 -61.5 -377.5t-147.5 -376t-182 -299.5q-84 -114 -157 -196t-178 -184.5t-138 -137.5z" />
<glyph unicode="&#x444;" horiz-adv-x="1638" d="M68 287q0 201 77 376t207 278t279 103q104 0 180 -40l20 96q42 207 160.5 335t274.5 128q59 0 144.5 -17.5t119.5 -21.5l-39 -166q-50 7 -97 35t-86.5 52.5t-76.5 24.5q-81 0 -127.5 -76t-75.5 -218l-70 -340l148 110q69 53 121.5 74.5t109.5 21.5q86 0 144.5 -74.5 t58.5 -222.5q0 -201 -77 -376t-207 -278t-279 -103q-102 0 -182 41l-93 -455l154 -23v-63h-489v63l153 23l127 621l-145 -109q-69 -53 -122 -74.5t-110 -21.5q-86 0 -144 74.5t-58 222.5zM270 317q0 -186 90 -186q49 0 113 45l199 143l106 519q-53 120 -151 120 q-96 0 -180 -99.5t-130.5 -246.5t-46.5 -295zM829 195q50 -121 152 -121q96 0 180 99.5t130 246.5t46 295q0 186 -90 186q-48 0 -112 -45l-201 -145z" />
<glyph unicode="&#x445;" horiz-adv-x="1081" d="M8 -20l43 208q31 0 62.5 11t77.5 42t107 98t134 167l-172 426l-168 18v64l287 30l41 -10l160 -395q134 213 234 306t206 93l-43 -209q-30 0 -60.5 -10t-74 -38t-100.5 -88t-124 -150l181 -447l168 -18v-64l-285 -30l-41 10l-170 418q-146 -232 -250 -332t-213 -100z" />
<glyph unicode="&#x446;" horiz-adv-x="1214" d="M104 950v64l338 30l41 -10l-161 -760q-12 -57 -1 -93t48.5 -42t105.5 39l189 121l157 725h193l-197 -897l320 213l30 -39l-22 -39q-26 -46 -36 -113.5t-15 -131t-21.5 -132t-71 -137.5t-149.5 -125l-35 41q43 31 65.5 77.5t30 98t15 105.5t32 116.5t68.5 114.5l-12 -10 q-16 -13 -52 -43.5t-52.5 -44t-46.5 -35.5t-50.5 -31.5t-46.5 -17.5t-51 -8q-51 0 -77 41t-11 110l8 43l-211 -143q-75 -53 -147 -53q-57 0 -93.5 25.5t-50 70.5t-13 98.5t14.5 118.5l131 637z" />
<glyph unicode="&#x447;" horiz-adv-x="1130" d="M82 950v64l338 30l41 -10l-88 -418q-10 -44 -5.5 -76.5t19 -51t47.5 -14.5t80 34l201 129l84 387h192l-203 -924l254 170v-100l-178 -119q-65 -45 -103 -57q-28 -8 -56 -8q-51 0 -83 40t-16 111l82 381l-211 -143q-75 -53 -147 -53q-57 0 -93.5 25.5t-50 70.5t-13 98.5 t14.5 118.5l60 299z" />
<glyph unicode="&#x448;" horiz-adv-x="1652" d="M104 950v64l338 30l41 -10l-161 -760q-12 -57 -1 -93t48.5 -42t105.5 39l170 111q1 1 1 3.5t1 4.5l150 727h194l-155 -735q-15 -67 -5 -106.5t46.5 -45t101.5 36.5l182 117l160 733h192l-200 -924l252 170v-100l-179 -119q-65 -45 -103 -57q-28 -8 -56 -8q-51 0 -83 40 t-16 111l7 35l-199 -135q-75 -53 -148 -53q-158 0 -155 192l-207 -139q-75 -53 -147 -53q-57 0 -93.5 25.5t-50 70.5t-13 98.5t14.5 118.5l131 637z" />
<glyph unicode="&#x449;" horiz-adv-x="1714" d="M104 950v64l338 30l41 -10l-161 -760q-12 -57 -1 -93t48.5 -42t105.5 39l170 111q1 1 1 3.5t1 4.5l150 727h194l-155 -735q-15 -67 -5 -106.5t46.5 -45t101.5 36.5l182 117l160 733h192l-194 -895l317 211l31 -39l-22 -39q-26 -46 -36 -113.5t-15 -131t-21.5 -132 t-71 -137.5t-149.5 -125l-35 41q43 31 65.5 77.5t30 98t15 105.5t32 116.5t68.5 114.5l-12 -10q-16 -13 -52 -43.5t-52.5 -44t-46.5 -35.5t-50.5 -31.5t-46.5 -17.5t-51 -8q-51 0 -78 39.5t-11 111.5l7 35l-199 -135q-75 -53 -148 -53q-158 0 -155 192l-207 -139 q-75 -53 -147 -53q-57 0 -93.5 25.5t-50 70.5t-13 98.5t14.5 118.5l131 637z" />
<glyph unicode="&#x44a;" horiz-adv-x="1032" d="M86 756l49 268h590v-55q-179 -159 -266 -373l102 45q78 33 146 33q93 0 153 -56.5t60 -168.5q0 -129 -62.5 -237.5t-166 -170t-222.5 -61.5q-129 0 -198.5 75t-69.5 215q0 90 27 178t77.5 169.5t108 151.5t133.5 144l-334 -20l-68 -137h-59zM385 215q0 -145 111 -145 q102 0 167.5 98.5t65.5 232.5q0 73 -32.5 115.5t-88.5 42.5q-36 0 -80 -18l-104 -47q-39 -136 -39 -279z" />
<glyph unicode="&#x44b;" horiz-adv-x="1484" d="M102 950v64l338 30l41 -10l-88 -420l107 48q49 22 99.5 27.5t96.5 -7.5t82.5 -41t58 -77.5t21.5 -114.5q0 -97 -37 -184.5t-98 -149.5t-143.5 -98.5t-171.5 -36.5q-163 0 -236.5 82.5t-40.5 238.5l135 633zM324 281q-22 -101 5.5 -156t104.5 -55q102 0 168 98.5t66 232.5 q0 101 -57 150t-144 10l-94 -43zM958 139l172 795l-165 16v64l338 30l40 -10l-198 -930l252 166v-100l-178 -119q-31 -21 -45.5 -30.5t-48.5 -22t-66 -12.5q-51 0 -84 41t-17 112z" />
<glyph unicode="&#x44c;" horiz-adv-x="970" d="M102 950v64l338 30l41 -10l-88 -420l107 48q49 22 99.5 27.5t96.5 -7.5t82.5 -41t58 -77.5t21.5 -114.5q0 -97 -37 -184.5t-98 -149.5t-143.5 -98.5t-171.5 -36.5q-163 0 -236.5 82.5t-40.5 238.5l135 633zM324 281q-22 -101 5.5 -156t104.5 -55q102 0 168 98.5t66 232.5 q0 101 -57 150t-144 10l-94 -43z" />
<glyph unicode="&#x44d;" horiz-adv-x="880" d="M-27 43l54 154q35 -23 79 -54t62.5 -43t43.5 -22t50 -10q61 0 111 35.5t84 96.5t56 126t36 141l-336 -43v158l352 -13q10 88 10 129q0 260 -155 260q-30 0 -62 -16t-58 -35.5t-67.5 -39.5t-85.5 -27v157q29 4 77 16.5t102.5 21.5t126.5 9q152 0 237.5 -94.5t85.5 -261.5 q0 -93 -21 -190t-65.5 -190t-108 -166t-156 -117.5t-200.5 -44.5q-60 0 -109 13.5t-143 49.5z" />
<glyph unicode="&#x44e;" horiz-adv-x="1542" d="M86 0l199 934l-164 16v64l338 30l41 -10l-101 -465h181q21 94 60 175.5t98.5 150.5t145.5 109t189 40q160 0 259.5 -102.5t99.5 -279.5q0 -93 -18.5 -186.5t-59.5 -183.5t-99.5 -159t-145.5 -111t-191 -42q-161 0 -260 106t-99 295q0 45 6 94h-186l-100 -475h-193z M764 401q0 -163 47.5 -249t134.5 -86q63 0 114 43.5t81 108t50.5 145t28 149.5t7.5 127q0 152 -44 235.5t-134 83.5q-63 0 -113.5 -39.5t-81.5 -100t-52 -137.5t-29.5 -147t-8.5 -133z" />
<glyph unicode="&#x44f;" horiz-adv-x="1062" d="M-25 0v145q23 -8 54 -8q74 0 147 72.5t162 212.5q-85 21 -135.5 81.5t-50.5 149.5q0 164 120 267.5t314 103.5h338l-203 -922l254 168v-100l-178 -119q-31 -21 -45.5 -30.5t-48.5 -22t-66 -12.5q-51 0 -82.5 40t-15.5 111l53 246h-168q-40 -75 -68.5 -125t-67.5 -107.5 t-72.5 -91t-74.5 -56.5t-82 -23q-25 0 -46 5t-29 10zM344 647q0 -80 52 -128t126 -48h88l101 465h-88q-143 0 -211 -80.5t-68 -208.5z" />
<glyph unicode="&#x451;" horiz-adv-x="944" d="M76 356q0 190 77 349.5t203.5 249t270.5 89.5q125 0 193.5 -59t68.5 -143q0 -195 -305 -301l-301 -103q-2 -20 -2 -57q0 -137 43.5 -208t113.5 -71q52 0 93.5 18t91.5 56l125 96v-104l-95 -72q-76 -59 -138.5 -88t-129.5 -28q-142 0 -225.5 102t-83.5 274zM293 535 l149 57q125 47 180.5 105.5t55.5 142.5q0 51 -30 80.5t-73 29.5q-69 0 -129 -61t-97.5 -152.5t-55.5 -201.5zM319 1325q0 53 34.5 93t97.5 40q48 0 80 -32.5t32 -86.5q0 -53 -34 -93t-97 -40q-49 0 -81 32.5t-32 86.5zM715 1325q0 53 34 93t97 40q48 0 80 -32.5t32 -86.5 q0 -53 -34 -93t-97 -40q-48 0 -80 32.5t-32 86.5z" />
<glyph unicode="&#x452;" horiz-adv-x="1083" d="M51 0l254 1186h-162v110h185l37 166l-166 17v63l338 31l41 -10l-58 -267h266v-110h-290l-72 -340l215 145q75 53 147 53q115 0 155 -86t9 -227l-155 -729q-43 -196 -131.5 -276t-235.5 -80q-58 0 -162 22l29 133q36 -6 86 -34.5t82 -28.5q49 0 79 57t56 182l170 795 q17 83 -30.5 113t-123.5 -19l-217 -141l-153 -725h-193z" />
<glyph unicode="&#x453;" horiz-adv-x="763" d="M66 154q1 53 31 108t98 135q23 28 116 138t129 159q44 57 53.5 105t-13.5 74t-68 26q-58 0 -138 -46t-159 -132v115q195 208 368 208q80 0 132.5 -45t48.5 -133q-1 -53 -31 -108t-98 -135q-34 -41 -120.5 -144.5t-125.5 -152.5q-44 -57 -53.5 -105t13.5 -74t68 -26 q58 0 139 46t160 132v-115q-196 -209 -370 -209q-80 0 -132 45.5t-48 133.5zM385 1278l354 313l107 -147l-414 -236z" />
<glyph unicode="&#x454;" horiz-adv-x="882" d="M78 379q0 118 37.5 236.5t102 214t159.5 155t201 59.5q74 0 155.5 -21t102.5 -24l-54 -163q-38 10 -70 31t-49.5 39t-44 32t-57.5 14q-62 0 -116.5 -56.5t-90.5 -142.5t-55 -190l352 47v-149l-364 6q-4 -54 -4 -80q0 -147 35.5 -216t109.5 -69q52 0 93 17.5t91 56.5 l125 96v-104l-94 -72q-75 -58 -137.5 -87t-130.5 -29q-141 0 -219 105t-78 294z" />
<glyph unicode="&#x455;" horiz-adv-x="806" d="M-4 31l41 166q49 -7 107 -35t112 -52t100 -24q105 0 105 123q0 48 -17 91.5t-44 78t-59.5 68.5t-65.5 68.5t-60 71t-44 84t-17 99.5q0 113 90 193.5t233 80.5q69 0 152.5 -20t118.5 -23l-39 -161q-39 5 -76.5 24.5t-62 39t-59 35t-69.5 15.5q-106 0 -106 -135 q0 -51 32 -101t78 -94.5t91.5 -92.5t77.5 -113t32 -137q0 -137 -90.5 -216t-241.5 -79q-74 0 -184 21t-135 24z" />
<glyph unicode="&#x456;" horiz-adv-x="667" d="M109 139l172 795l-166 16v64l338 30l41 -10l-199 -934l252 170v-100l-178 -119q-31 -21 -45.5 -30.5t-48.5 -22t-66 -12.5q-51 0 -83.5 41t-16.5 112zM315 1350q0 53 34 93t97 40q49 0 81 -32.5t32 -86.5q0 -53 -34 -93t-97 -40q-49 0 -81 32.5t-32 86.5z" />
<glyph unicode="&#x457;" horiz-adv-x="667" d="M70 1325q0 53 34 93t97 40q48 0 80 -32.5t32 -86.5q0 -53 -34 -93t-97 -40q-48 0 -80 32.5t-32 86.5zM109 139l172 795l-166 16v64l338 30l41 -10l-199 -930l252 166v-100l-178 -119q-31 -21 -45.5 -30.5t-48.5 -22t-66 -12.5q-51 0 -83.5 41t-16.5 112zM465 1325 q0 53 34 93t97 40q49 0 81 -32.5t32 -86.5q0 -53 -34 -93t-97 -40q-49 0 -81 32.5t-32 86.5z" />
<glyph unicode="&#x458;" horiz-adv-x="575" d="M-453 -487l41 165q50 -7 97 -34t86.5 -50.5t76.5 -23.5q45 0 80 24.5t60.5 75.5t43 108.5t36.5 143.5l215 1012l-166 16v64l338 30l41 -10l-224 -1034q-22 -102 -60.5 -192.5t-94 -167t-135 -121.5t-170.5 -45q-59 0 -145 17.5t-120 21.5zM317 1350q0 52 34.5 92.5 t97.5 40.5q48 0 80 -32.5t32 -86.5q0 -53 -34 -93t-97 -40q-49 0 -81 32.5t-32 86.5z" />
<glyph unicode="&#x459;" horiz-adv-x="1456" d="M-59 0v152q22 -11 53 -11q47 0 89 28.5t77.5 85t66 124.5t58.5 163.5t50 186t46 205.5l-148 27v63h730l-86 -410l106 48q61 27 124.5 28t116 -23t86 -81t33.5 -137q0 -97 -37 -184.5t-98.5 -149.5t-144.5 -98.5t-172 -36.5q-163 0 -236.5 82.5t-40.5 238.5l134 631h-265 q-41 -194 -76.5 -332.5t-78 -262t-86.5 -198t-98.5 -117t-118.5 -42.5q-25 0 -46 5t-29 10zM807 281q-20 -95 6.5 -153t104.5 -58q68 0 122.5 48.5t82.5 123.5t28 159q0 101 -57 150t-144 10l-94 -43z" />
<glyph unicode="&#x45a;" horiz-adv-x="1521" d="M86 0l199 934l-164 16v64l338 30l41 -10l-101 -465h336l99 455h194l-86 -410l107 48q61 27 124.5 28t116 -23t86 -81t33.5 -137q0 -129 -63 -237.5t-167 -170t-223 -61.5q-163 0 -236 82.5t-40 238.5l35 166h-336l-100 -467h-193zM872 281q-20 -95 6.5 -153t104.5 -58 q102 0 168 100.5t66 230.5q0 101 -57 150t-144 10l-94 -43z" />
<glyph unicode="&#x45b;" horiz-adv-x="1187" d="M51 0l254 1186h-162v110h185l37 166l-166 17v63l338 31l41 -10l-58 -267h266v-110h-290l-72 -340l215 145q75 53 147 53q111 0 152.5 -84t13.5 -215l-137 -641l254 166v-100l-178 -119q-31 -21 -45.5 -30.5t-48.5 -22t-66 -12.5q-51 0 -82.5 40t-15.5 111l133 627 q20 89 -22.5 122t-129.5 -20l-215 -139l-155 -727h-193z" />
<glyph unicode="&#x45c;" horiz-adv-x="1089" d="M84 0l199 934l-164 16v64l338 30l41 -10l-222 -1034h-192zM401 512v8q97 131 161.5 211.5t124.5 145.5t108 97t95.5 48t102.5 16l-51 -196q-42 0 -75 -7.5t-78 -32t-101 -75t-129 -131.5l229 -473l228 147v-104l-150 -98q-76 -49 -103.5 -62.5t-57.5 -13.5q-52 0 -76 49z M539 1276l354 313l106 -147l-413 -236z" />
<glyph unicode="&#x45e;" horiz-adv-x="1050" d="M2 -410q70 71 218 170.5t204 151.5l-186 1020l-168 18v64l305 30l41 -10l157 -923q107 181 181.5 411.5t83.5 409.5l-162 18v64l262 26l43 -10q0 -171 -61.5 -377.5t-147.5 -376t-182 -299.5q-84 -114 -157 -196t-178 -184.5t-138 -137.5zM272 1425l138 125 q15 -16 36.5 -44.5t37.5 -46.5t38.5 -37.5t51 -29.5t63.5 -10t68.5 9.5t66.5 30t56 37t59.5 47.5t54.5 44l84 -125q-70 -56 -178 -99.5t-227 -43.5q-124 0 -212.5 43t-136.5 100z" />
<glyph unicode="&#x45f;" horiz-adv-x="1171" d="M102 950v64l338 30l41 -10l-166 -776q-16 -85 27.5 -115t134.5 25l205 131l158 725h192l-201 -918l252 164v-100l-178 -119q-31 -21 -45.5 -30.5t-48.5 -22t-66 -12.5q-51 0 -82.5 40t-15.5 111l8 43l-211 -143q-75 -53 -153 -53q-102 0 -145.5 79.5t-16.5 202.5l137 668 zM248 -543q45 37 65.5 86t25.5 100.5t13.5 105.5t43.5 117t102 120l34 -23q-30 -36 -39 -90.5t-10 -109t-11.5 -113t-56.5 -120t-132 -112.5z" />
<glyph unicode="&#x490;" horiz-adv-x="1048" d="M4 0v63l168 27l219 1253l-158 27v64h777l106 297h82l-78 -451l-532 39l-215 -1229l178 -27l-2 -63h-545z" />
<glyph unicode="&#x491;" horiz-adv-x="886" d="M-43 0l14 63l164 27l180 844l-155 27l12 63h598l119 276h74l-95 -411l-366 24l-174 -823l198 -27l-14 -63h-555z" />
<glyph unicode="&#x2000;" horiz-adv-x="1036" />
<glyph unicode="&#x2001;" horiz-adv-x="2073" />
<glyph unicode="&#x2002;" horiz-adv-x="1036" />
<glyph unicode="&#x2003;" horiz-adv-x="2073" />
<glyph unicode="&#x2004;" horiz-adv-x="691" />
<glyph unicode="&#x2005;" horiz-adv-x="518" />
<glyph unicode="&#x2006;" horiz-adv-x="345" />
<glyph unicode="&#x2007;" horiz-adv-x="345" />
<glyph unicode="&#x2008;" horiz-adv-x="259" />
<glyph unicode="&#x2009;" horiz-adv-x="414" />
<glyph unicode="&#x200a;" horiz-adv-x="115" />
<glyph unicode="&#x2010;" horiz-adv-x="915" d="M158 516v141l596 21v-141z" />
<glyph unicode="&#x2011;" horiz-adv-x="915" d="M158 516v141l596 21v-141z" />
<glyph unicode="&#x2012;" horiz-adv-x="915" d="M158 516v141l596 21v-141z" />
<glyph unicode="&#x2013;" horiz-adv-x="1222" d="M166 530v132h883v-132h-883z" />
<glyph unicode="&#x2014;" horiz-adv-x="1695" d="M168 537v131h1354v-131h-1354z" />
<glyph unicode="&#x2018;" horiz-adv-x="471" d="M176 999q0 128 81 249t206 210l45 -55q-165 -126 -217 -281q54 10 91.5 -20t37.5 -96q0 -56 -36 -92.5t-95 -36.5q-48 0 -80.5 33t-32.5 89z" />
<glyph unicode="&#x2019;" horiz-adv-x="468" d="M164 932q165 126 217 280q-54 -10 -91.5 20.5t-37.5 96.5q0 56 36 92.5t95 36.5q48 0 80.5 -33t32.5 -90q0 -128 -81 -248.5t-206 -209.5z" />
<glyph unicode="&#x201a;" horiz-adv-x="497" d="M-45 -305q165 126 217 280q-54 -10 -91.5 20.5t-37.5 96.5q0 56 36 92.5t95 36.5q48 0 80.5 -33t32.5 -90q0 -128 -81 -248.5t-206 -209.5z" />
<glyph unicode="&#x201c;" horiz-adv-x="868" d="M176 999q0 128 81 249t206 210l45 -55q-165 -126 -217 -281q54 10 91.5 -20t37.5 -96q0 -56 -36 -92.5t-95 -36.5q-48 0 -80.5 33t-32.5 89zM573 999q0 128 81 249t206 210l45 -55q-165 -126 -217 -281q54 10 91.5 -20t37.5 -96q0 -56 -36 -92.5t-95 -36.5 q-48 0 -80.5 33t-32.5 89z" />
<glyph unicode="&#x201d;" horiz-adv-x="866" d="M164 932q165 126 217 280q-54 -10 -91.5 20.5t-37.5 96.5q0 56 36 92.5t95 36.5q48 0 80.5 -33t32.5 -90q0 -128 -81 -248.5t-206 -209.5zM561 932q165 126 217 280q-54 -10 -91.5 20.5t-37.5 96.5q0 56 36 92.5t95 36.5q48 0 80.5 -33t32.5 -90q0 -128 -81 -248.5 t-206 -209.5z" />
<glyph unicode="&#x201e;" horiz-adv-x="890" d="M-45 -305q165 126 217 280q-54 -10 -91.5 20.5t-37.5 96.5q0 56 36 92.5t95 36.5q48 0 80.5 -33t32.5 -90q0 -128 -81 -248.5t-206 -209.5zM348 -305q165 126 217 280q-54 -10 -91.5 20.5t-37.5 96.5q0 56 36 92.5t95 36.5q48 0 80.5 -33t32.5 -90q0 -128 -81 -248.5 t-206 -209.5z" />
<glyph unicode="&#x2020;" horiz-adv-x="1130" d="M152 852v192l436 -53l47 473h201l-156 -473l420 53v-192l-438 53l-230 -1321l-115 -96l-86 96l338 1321z" />
<glyph unicode="&#x2021;" horiz-adv-x="1191" d="M-18 -72l28 152l430 -29l41 410l125 438l-444 -27l28 152l435 -27l61 467h160l-119 -467l442 27l-28 -152l-432 27l-47 -438l-121 -410l446 29l-29 -152l-436 29l-59 -469h-160l119 469z" />
<glyph unicode="&#x2022;" horiz-adv-x="559" d="M133 580q0 79 49.5 129.5t130.5 50.5q49 0 81 -32t32 -81q0 -79 -49.5 -129.5t-130.5 -50.5q-44 0 -78.5 32.5t-34.5 80.5z" />
<glyph unicode="&#x2026;" horiz-adv-x="1533" d="M41 88q0 53 34 93t97 40q49 0 81 -32.5t32 -86.5q0 -53 -34 -93t-97 -40q-49 0 -81 32.5t-32 86.5zM561 88q0 53 34 93t97 40q49 0 81 -32.5t32 -86.5q0 -53 -34 -93t-97 -40q-49 0 -81 32.5t-32 86.5zM1083 88q0 53 34 93t97 40q49 0 81 -32.5t32 -86.5q0 -53 -34 -93 t-97 -40q-49 0 -81 32.5t-32 86.5z" />
<glyph unicode="&#x202f;" horiz-adv-x="414" />
<glyph unicode="&#x2030;" horiz-adv-x="2828" d="M166 1018q0 82 29 160t83 142t142 103t196 39q162 0 248 -90t86 -235q0 -186 -125 -312.5t-323 -126.5q-149 0 -242.5 81.5t-93.5 238.5zM360 1016q0 -88 38.5 -148.5t121.5 -60.5q107 0 169.5 96.5t62.5 231.5q0 91 -40 155t-120 64q-113 0 -172.5 -94t-59.5 -244z M373 0l1028 1434h198l-1026 -1434h-200zM1038 299q0 82 29 160t83.5 142t142.5 103t196 39q162 0 248 -90t86 -235q0 -186 -125.5 -312t-323.5 -126q-149 0 -242.5 81t-93.5 238zM1233 297q0 -88 38.5 -148.5t121.5 -60.5q107 0 169 96.5t62 231.5q0 91 -40 155t-120 64 q-112 0 -171.5 -94t-59.5 -244zM1919 299q0 82 29 160t83.5 142t142.5 103t196 39q162 0 247.5 -90t85.5 -235q0 -186 -125 -312t-323 -126q-149 0 -242.5 81t-93.5 238zM2114 297q0 -88 38 -148.5t121 -60.5q107 0 169.5 96.5t62.5 231.5q0 91 -40 155t-120 64 q-112 0 -171.5 -94t-59.5 -244z" />
<glyph unicode="&#x2039;" horiz-adv-x="708" d="M37 557l2 23l563 462l84 -112l-504 -375l334 -475l-117 -80z" />
<glyph unicode="&#x203a;" horiz-adv-x="710" d="M-6 111l504 374l-334 476l117 79l362 -557l-2 -22l-563 -463z" />
<glyph unicode="&#x2044;" horiz-adv-x="770" d="M-82 0l811 1436h168l-809 -1436h-170z" />
<glyph unicode="&#x205f;" horiz-adv-x="518" />
<glyph unicode="&#x20ac;" horiz-adv-x="1423" d="M109 483v123h208q9 95 33 185h-241v122h280q44 117 111.5 214.5t158 173.5t209.5 118.5t254 42.5q60 0 115.5 -8.5t92 -20.5t64 -24t40.5 -21l12 -8l-64 -295h-79l4 222q-88 59 -215 59q-182 0 -311 -125t-193 -328h610l-43 -122h-600q-20 -103 -23 -185h574l-43 -123 h-533q11 -201 98 -307t244 -106q99 0 189 28l102 256h86l-65 -303q-5 -3 -15.5 -8.5t-45.5 -19.5t-73 -24.5t-98 -19t-121 -8.5q-257 0 -386 136t-132 376h-204z" />
<glyph unicode="&#x2122;" horiz-adv-x="1949" d="M201 1194l37 242h673l-34 -242h-58v147h-170l-94 -483l107 -29v-53h-381v53l116 29l95 483h-179l-57 -147h-55zM858 776v53l131 29l94 492l-114 39v49h254l137 -293l35 -105h6q37 54 76 101l229 299h256v-51l-119 -39l-94 -492l104 -29v-53h-380v53l120 29l43 225l31 146 l-4 2q-32 -55 -98 -129l-217 -252h-23l-117 250q-15 30 -26.5 63.5t-15.5 51.5l-5 18l-4 -2q-4 -68 -20 -146l-43 -227l96 -29v-53h-332z" />
<glyph unicode="&#x2206;" horiz-adv-x="1337" d="M-23 59l850 1375h107l233 -1379l-43 -55h-1122zM176 127h787l-142 844q-6 46 -10 98.5t-5 81.5l-1 29h-8q-46 -113 -103 -207z" />
<glyph unicode="&#x221a;" horiz-adv-x="1304" d="M104 918v106h381l93 -639q9 -56 13 -117t3 -94v-33h8q47 115 113 240l598 1157h162l-840 -1538l-178 -10l-148 928h-205z" />
<glyph unicode="&#x221e;" horiz-adv-x="1499" d="M117 532q0 141 92 245t240 104q35 0 67 -7.5t56 -18t49.5 -30.5t41.5 -34.5t38 -42.5t31.5 -41t29.5 -43q195 217 375 217q101 0 170 -63.5t69 -174.5q0 -141 -92 -244.5t-240 -103.5q-35 0 -67 7.5t-56 18t-49.5 30.5t-41.5 34.5t-38 42.5t-31.5 41t-29.5 43 q-195 -217 -375 -217q-102 0 -170.5 63t-68.5 174zM258 569q0 -63 34 -96t97 -33q82 0 161.5 43.5t141.5 104.5q-41 49 -70 76.5t-77.5 49t-106.5 21.5q-85 0 -132.5 -49t-47.5 -117zM801 588q62 -75 116 -111.5t138 -36.5q85 0 132.5 49t47.5 117q0 63 -34 96t-97 33 q-82 0 -161.5 -43.5t-141.5 -103.5z" />
<glyph unicode="&#x2248;" horiz-adv-x="1122" d="M98 270q-2 114 66 192.5t174 78.5q57 0 107.5 -21t81.5 -45.5t76.5 -45.5t92.5 -21q147 0 201 137l61 -23q2 -114 -65.5 -192t-173.5 -78q-48 0 -97.5 21t-84.5 45.5t-83 45.5t-94 21q-146 0 -200 -137zM152 618q-2 114 65.5 192.5t173.5 78.5q57 0 107.5 -21t82 -45.5 t77 -45.5t92.5 -21q146 0 200 137l62 -23q2 -114 -66 -192t-174 -78q-48 0 -97.5 21t-84 45.5t-82.5 45.5t-94 21q-147 0 -201 -137z" />
<glyph unicode="&#x2260;" horiz-adv-x="1095" d="M82 311v142h299l162 247h-383v142h477l209 317l119 -82l-156 -235h192v-142h-286l-162 -247h371v-142h-465l-217 -329l-119 79l164 250h-205z" />
<glyph unicode="&#x2264;" horiz-adv-x="1122" d="M66 131v133h839v-133h-839zM168 696l2 19l627 348h278l-651 -365l510 -350h-254z" />
<glyph unicode="&#x2265;" horiz-adv-x="1101" d="M63 131v133h840v-133h-840zM78 348l661 367l-508 348h234l516 -348l-2 -19l-637 -348h-264z" />
<glyph unicode="&#x25ca;" horiz-adv-x="1261" d="M86 672l4 22l604 740h25l495 -662l-4 -22l-612 -781h-25zM262 735l379 -553l399 525l-389 520z" />
<glyph unicode="&#x25fc;" horiz-adv-x="1044" d="M0 0v1044h1044v-1044h-1044z" />
</font>
</defs>
</svg>
